<svg xmlns="http://www.w3.org/2000/svg" xmlns:xlink="http://www.w3.org/1999/xlink" width="1920" zoomAndPan="magnify" viewBox="0 0 1440 809.999993" height="1080" preserveAspectRatio="xMidYMid meet" version="1.0"><defs><g/></defs><rect x="-144" width="1728" fill="#ffffff" y="-80.999999" height="971.999992" fill-opacity="1"/><rect x="-144" width="1728" fill="#4a37d2" y="-80.999999" height="971.999992" fill-opacity="1"/><g fill="#ffffff" fill-opacity="1"><g transform="translate(311.066335, 119.250248)"><g><path d="M 6.828125 0 L 0 -6.828125 L 0 -30.03125 L 6.828125 -36.84375 L 13.640625 -36.84375 L 20.46875 -30.03125 L 17.734375 -27.296875 L 12.28125 -32.75 L 8.1875 -32.75 L 4.09375 -28.65625 L 4.09375 -8.1875 L 8.1875 -4.09375 L 12.28125 -4.09375 L 17.734375 -9.546875 L 20.46875 -6.828125 L 13.640625 0 Z M 6.828125 0 "/></g></g></g><g fill="#ffffff" fill-opacity="1"><g transform="translate(342.723435, 119.250248)"><g><path d="M 12.28125 -4.09375 L 16.375 -8.1875 L 16.375 -28.65625 L 12.28125 -32.75 L 8.1875 -32.75 L 4.09375 -28.65625 L 4.09375 -8.1875 L 8.1875 -4.09375 Z M 6.828125 0 L 0 -6.828125 L 0 -30.03125 L 6.828125 -36.84375 L 13.640625 -36.84375 L 20.46875 -30.03125 L 20.46875 -6.828125 L 13.640625 0 Z M 6.828125 0 "/></g></g></g><g fill="#ffffff" fill-opacity="1"><g transform="translate(374.380535, 119.250248)"><g><path d="M 0 0 L 0 -36.84375 L 3.40625 -36.84375 L 10.234375 -23.203125 L 17.0625 -36.84375 L 20.46875 -36.84375 L 20.46875 0 L 16.375 0 L 16.375 -27.296875 L 11.59375 -17.734375 L 8.875 -17.734375 L 4.09375 -27.296875 L 4.09375 0 Z M 0 0 "/></g></g></g><g fill="#ffffff" fill-opacity="1"><g transform="translate(406.037633, 119.250248)"><g><path d="M 12.28125 -4.09375 L 16.375 -8.1875 L 16.375 -28.65625 L 12.28125 -32.75 L 8.1875 -32.75 L 4.09375 -28.65625 L 4.09375 -8.1875 L 8.1875 -4.09375 Z M 6.828125 0 L 0 -6.828125 L 0 -30.03125 L 6.828125 -36.84375 L 13.640625 -36.84375 L 20.46875 -30.03125 L 20.46875 -6.828125 L 13.640625 0 Z M 6.828125 0 "/></g></g></g><g fill="#ffffff" fill-opacity="1"><g transform="translate(437.694736, 119.250248)"><g/></g></g><g fill="#ffffff" fill-opacity="1"><g transform="translate(469.351839, 119.250248)"><g><path d="M 16.375 -16.375 L 16.375 -19.109375 L 10.234375 -31.390625 L 4.09375 -19.109375 L 4.09375 -16.375 Z M 0 0 L 0 -19.109375 L 8.875 -36.84375 L 11.59375 -36.84375 L 20.46875 -19.109375 L 20.46875 0 L 16.375 0 L 16.375 -12.28125 L 4.09375 -12.28125 L 4.09375 0 Z M 0 0 "/></g></g></g><g fill="#ffffff" fill-opacity="1"><g transform="translate(501.008942, 119.250248)"><g><path d="M 6.828125 0 L 0 -6.828125 L 2.734375 -9.546875 L 8.1875 -4.09375 L 12.28125 -4.09375 L 16.375 -8.1875 L 16.375 -12.28125 L 12.28125 -16.375 L 6.828125 -16.375 L 0 -23.203125 L 0 -30.03125 L 6.828125 -36.84375 L 13.640625 -36.84375 L 20.46875 -30.03125 L 17.734375 -27.296875 L 12.28125 -32.75 L 8.1875 -32.75 L 4.09375 -28.65625 L 4.09375 -24.5625 L 8.1875 -20.46875 L 13.640625 -20.46875 L 20.46875 -13.640625 L 20.46875 -6.828125 L 13.640625 0 Z M 6.828125 0 "/></g></g></g><g fill="#ffffff" fill-opacity="1"><g transform="translate(532.666033, 119.250248)"><g><path d="M 6.828125 0 L 0 -6.828125 L 2.734375 -9.546875 L 8.1875 -4.09375 L 12.28125 -4.09375 L 16.375 -8.1875 L 16.375 -12.28125 L 12.28125 -16.375 L 6.828125 -16.375 L 0 -23.203125 L 0 -30.03125 L 6.828125 -36.84375 L 13.640625 -36.84375 L 20.46875 -30.03125 L 17.734375 -27.296875 L 12.28125 -32.75 L 8.1875 -32.75 L 4.09375 -28.65625 L 4.09375 -24.5625 L 8.1875 -20.46875 L 13.640625 -20.46875 L 20.46875 -13.640625 L 20.46875 -6.828125 L 13.640625 0 Z M 6.828125 0 "/></g></g></g><g fill="#ffffff" fill-opacity="1"><g transform="translate(564.323136, 119.250248)"><g><path d="M 4.09375 0 L 4.09375 -4.09375 L 8.1875 -4.09375 L 8.1875 -32.75 L 4.09375 -32.75 L 4.09375 -36.84375 L 16.375 -36.84375 L 16.375 -32.75 L 12.28125 -32.75 L 12.28125 -4.09375 L 16.375 -4.09375 L 16.375 0 Z M 4.09375 0 "/></g></g></g><g fill="#ffffff" fill-opacity="1"><g transform="translate(595.980239, 119.250248)"><g><path d="M 0 0 L 0 -36.84375 L 3.40625 -36.84375 L 10.234375 -23.203125 L 17.0625 -36.84375 L 20.46875 -36.84375 L 20.46875 0 L 16.375 0 L 16.375 -27.296875 L 11.59375 -17.734375 L 8.875 -17.734375 L 4.09375 -27.296875 L 4.09375 0 Z M 0 0 "/></g></g></g><g fill="#ffffff" fill-opacity="1"><g transform="translate(627.637343, 119.250248)"><g><path d="M 6.828125 0 L 6.828125 -6.828125 L 13.640625 -6.828125 L 13.640625 0 Z M 8.1875 -10.921875 L 8.1875 -16.375 L 16.375 -24.5625 L 16.375 -28.65625 L 12.28125 -32.75 L 8.1875 -32.75 L 2.734375 -27.296875 L 0 -30.03125 L 6.828125 -36.84375 L 13.640625 -36.84375 L 20.46875 -30.03125 L 20.46875 -23.203125 L 12.28125 -15.015625 L 12.28125 -10.921875 Z M 8.1875 -10.921875 "/></g></g></g><g fill="#ffffff" fill-opacity="1"><g transform="translate(659.294446, 119.250248)"><g/></g></g><g fill="#ffffff" fill-opacity="1"><g transform="translate(690.951549, 119.250248)"><g/></g></g><g fill="#ffffff" fill-opacity="1"><g transform="translate(708.953038, 119.250248)"><g/></g></g><g fill="#ffffff" fill-opacity="1"><g transform="translate(240.917901, 241.500242)"><g><path d="M 6.828125 0 L 0 -6.828125 L 2.734375 -9.546875 L 8.1875 -4.09375 L 12.28125 -4.09375 L 16.375 -8.1875 L 16.375 -12.28125 L 12.28125 -16.375 L 6.828125 -16.375 L 0 -23.203125 L 0 -30.03125 L 6.828125 -36.84375 L 13.640625 -36.84375 L 20.46875 -30.03125 L 17.734375 -27.296875 L 12.28125 -32.75 L 8.1875 -32.75 L 4.09375 -28.65625 L 4.09375 -24.5625 L 8.1875 -20.46875 L 13.640625 -20.46875 L 20.46875 -13.640625 L 20.46875 -6.828125 L 13.640625 0 Z M 6.828125 0 "/></g></g></g><g fill="#ffffff" fill-opacity="1"><g transform="translate(272.575001, 241.500242)"><g><path d="M 4.09375 0 L 4.09375 -4.09375 L 8.1875 -4.09375 L 8.1875 -32.75 L 4.09375 -32.75 L 4.09375 -36.84375 L 16.375 -36.84375 L 16.375 -32.75 L 12.28125 -32.75 L 12.28125 -4.09375 L 16.375 -4.09375 L 16.375 0 Z M 4.09375 0 "/></g></g></g><g fill="#ffffff" fill-opacity="1"><g transform="translate(304.232101, 241.500242)"><g><path d="M 0 0 L 0 -36.84375 L 3.40625 -36.84375 L 10.234375 -23.203125 L 17.0625 -36.84375 L 20.46875 -36.84375 L 20.46875 0 L 16.375 0 L 16.375 -27.296875 L 11.59375 -17.734375 L 8.875 -17.734375 L 4.09375 -27.296875 L 4.09375 0 Z M 0 0 "/></g></g></g><g fill="#ffffff" fill-opacity="1"><g transform="translate(335.889199, 241.500242)"><g><path d="M 8.1875 8.1875 L 5.453125 5.453125 L 9.546875 1.359375 L 9.546875 0 L 6.828125 0 L 6.828125 -6.828125 L 13.640625 -6.828125 L 13.640625 2.734375 Z M 8.1875 8.1875 "/></g></g></g><g fill="#ffffff" fill-opacity="1"><g transform="translate(367.546302, 241.500242)"><g/></g></g><g fill="#ffffff" fill-opacity="1"><g transform="translate(399.203405, 241.500242)"><g><path d="M 6.828125 0 L 0 -6.828125 L 2.734375 -9.546875 L 8.1875 -4.09375 L 12.28125 -4.09375 L 16.375 -8.1875 L 16.375 -12.28125 L 12.28125 -16.375 L 6.828125 -16.375 L 0 -23.203125 L 0 -30.03125 L 6.828125 -36.84375 L 13.640625 -36.84375 L 20.46875 -30.03125 L 17.734375 -27.296875 L 12.28125 -32.75 L 8.1875 -32.75 L 4.09375 -28.65625 L 4.09375 -24.5625 L 8.1875 -20.46875 L 13.640625 -20.46875 L 20.46875 -13.640625 L 20.46875 -6.828125 L 13.640625 0 Z M 6.828125 0 "/></g></g></g><g fill="#ffffff" fill-opacity="1"><g transform="translate(430.860508, 241.500242)"><g><path d="M 6.828125 0 L 0 -6.828125 L 0 -36.84375 L 4.09375 -36.84375 L 4.09375 -8.1875 L 8.1875 -4.09375 L 12.28125 -4.09375 L 16.375 -8.1875 L 16.375 -36.84375 L 20.46875 -36.84375 L 20.46875 -6.828125 L 13.640625 0 Z M 6.828125 0 "/></g></g></g><g fill="#ffffff" fill-opacity="1"><g transform="translate(462.517599, 241.500242)"><g><path d="M 16.375 -16.375 L 16.375 -19.109375 L 10.234375 -31.390625 L 4.09375 -19.109375 L 4.09375 -16.375 Z M 0 0 L 0 -19.109375 L 8.875 -36.84375 L 11.59375 -36.84375 L 20.46875 -19.109375 L 20.46875 0 L 16.375 0 L 16.375 -12.28125 L 4.09375 -12.28125 L 4.09375 0 Z M 0 0 "/></g></g></g><g fill="#ffffff" fill-opacity="1"><g transform="translate(494.174702, 241.500242)"><g/></g></g><g fill="#ffffff" fill-opacity="1"><g transform="translate(525.831806, 241.500242)"><g><path d="M 0 0 L 0 -36.84375 L 20.46875 -36.84375 L 20.46875 -32.75 L 4.09375 -32.75 L 4.09375 -20.46875 L 16.375 -20.46875 L 16.375 -16.375 L 4.09375 -16.375 L 4.09375 -4.09375 L 20.46875 -4.09375 L 20.46875 0 Z M 0 0 "/></g></g></g><g fill="#ffffff" fill-opacity="1"><g transform="translate(557.488909, 241.500242)"><g><path d="M 12.28125 -4.09375 L 12.96875 -4.78125 L 8.1875 -9.546875 L 10.921875 -12.28125 L 15.015625 -8.1875 L 15.015625 -8.109375 L 15.6875 -7.5 L 16.375 -8.1875 L 16.375 -28.65625 L 12.28125 -32.75 L 8.1875 -32.75 L 4.09375 -28.65625 L 4.09375 -8.1875 L 8.1875 -4.09375 Z M 20.46875 2.734375 L 15.6875 -2.046875 L 13.640625 0 L 6.828125 0 L 0 -6.828125 L 0 -30.03125 L 6.828125 -36.84375 L 13.640625 -36.84375 L 20.46875 -30.03125 L 20.46875 -6.828125 L 19.109375 -5.453125 L 19.015625 -5.453125 L 18.421875 -4.78125 L 23.203125 0 Z M 20.46875 2.734375 "/></g></g></g><g fill="#ffffff" fill-opacity="1"><g transform="translate(589.146012, 241.500242)"><g><path d="M 6.828125 0 L 0 -6.828125 L 0 -36.84375 L 4.09375 -36.84375 L 4.09375 -8.1875 L 8.1875 -4.09375 L 12.28125 -4.09375 L 16.375 -8.1875 L 16.375 -36.84375 L 20.46875 -36.84375 L 20.46875 -6.828125 L 13.640625 0 Z M 6.828125 0 "/></g></g></g><g fill="#ffffff" fill-opacity="1"><g transform="translate(620.803115, 241.500242)"><g><path d="M 4.09375 0 L 4.09375 -4.09375 L 8.1875 -4.09375 L 8.1875 -32.75 L 4.09375 -32.75 L 4.09375 -36.84375 L 16.375 -36.84375 L 16.375 -32.75 L 12.28125 -32.75 L 12.28125 -4.09375 L 16.375 -4.09375 L 16.375 0 Z M 4.09375 0 "/></g></g></g><g fill="#ffffff" fill-opacity="1"><g transform="translate(652.460195, 241.500242)"><g><path d="M 12.28125 -20.46875 L 16.375 -24.5625 L 16.375 -28.65625 L 12.28125 -32.75 L 4.09375 -32.75 L 4.09375 -20.46875 Z M 0 0 L 0 -36.84375 L 13.640625 -36.84375 L 20.46875 -30.03125 L 20.46875 -23.203125 L 13.640625 -16.375 L 4.09375 -16.375 L 4.09375 0 Z M 0 0 "/></g></g></g><g fill="#ffffff" fill-opacity="1"><g transform="translate(684.117298, 241.500242)"><g><path d="M 0 0 L 0 -36.84375 L 20.46875 -36.84375 L 20.46875 -32.75 L 4.09375 -32.75 L 4.09375 -20.46875 L 16.375 -20.46875 L 16.375 -16.375 L 4.09375 -16.375 L 4.09375 -4.09375 L 20.46875 -4.09375 L 20.46875 0 Z M 0 0 "/></g></g></g><g fill="#ffffff" fill-opacity="1"><g transform="translate(715.774401, 241.500242)"><g/></g></g><g fill="#ffffff" fill-opacity="1"><g transform="translate(747.431504, 241.500242)"><g><path d="M 12.28125 -4.09375 L 16.375 -8.1875 L 16.375 -28.65625 L 12.28125 -32.75 L 4.09375 -32.75 L 4.09375 -4.09375 Z M 0 0 L 0 -36.84375 L 13.640625 -36.84375 L 20.46875 -30.03125 L 20.46875 -6.828125 L 13.640625 0 Z M 0 0 "/></g></g></g><g fill="#ffffff" fill-opacity="1"><g transform="translate(779.088608, 241.500242)"><g><path d="M 0 0 L 0 -36.84375 L 20.46875 -36.84375 L 20.46875 -32.75 L 4.09375 -32.75 L 4.09375 -20.46875 L 16.375 -20.46875 L 16.375 -16.375 L 4.09375 -16.375 L 4.09375 -4.09375 L 20.46875 -4.09375 L 20.46875 0 Z M 0 0 "/></g></g></g><g fill="#ffffff" fill-opacity="1"><g transform="translate(98.464783, 363.750236)"><g><path d="M 12.28125 -4.09375 L 16.375 -8.1875 L 16.375 -28.65625 L 12.28125 -32.75 L 4.09375 -32.75 L 4.09375 -4.09375 Z M 0 0 L 0 -36.84375 L 13.640625 -36.84375 L 20.46875 -30.03125 L 20.46875 -6.828125 L 13.640625 0 Z M 0 0 "/></g></g></g><g fill="#ffffff" fill-opacity="1"><g transform="translate(130.121883, 363.750236)"><g><path d="M 0 0 L 0 -36.84375 L 20.46875 -36.84375 L 20.46875 -32.75 L 4.09375 -32.75 L 4.09375 -20.46875 L 16.375 -20.46875 L 16.375 -16.375 L 4.09375 -16.375 L 4.09375 -4.09375 L 20.46875 -4.09375 L 20.46875 0 Z M 0 0 "/></g></g></g><g fill="#ffffff" fill-opacity="1"><g transform="translate(161.778984, 363.750236)"><g><path d="M 6.828125 0 L 0 -6.828125 L 2.734375 -9.546875 L 8.1875 -4.09375 L 12.28125 -4.09375 L 16.375 -8.1875 L 16.375 -12.28125 L 12.28125 -16.375 L 6.828125 -16.375 L 0 -23.203125 L 0 -30.03125 L 6.828125 -36.84375 L 13.640625 -36.84375 L 20.46875 -30.03125 L 17.734375 -27.296875 L 12.28125 -32.75 L 8.1875 -32.75 L 4.09375 -28.65625 L 4.09375 -24.5625 L 8.1875 -20.46875 L 13.640625 -20.46875 L 20.46875 -13.640625 L 20.46875 -6.828125 L 13.640625 0 Z M 6.828125 0 "/></g></g></g><g fill="#ffffff" fill-opacity="1"><g transform="translate(193.436081, 363.750236)"><g><path d="M 0 0 L 0 -36.84375 L 20.46875 -36.84375 L 20.46875 -32.75 L 4.09375 -32.75 L 4.09375 -20.46875 L 16.375 -20.46875 L 16.375 -16.375 L 4.09375 -16.375 L 4.09375 -4.09375 L 20.46875 -4.09375 L 20.46875 0 Z M 0 0 "/></g></g></g><g fill="#ffffff" fill-opacity="1"><g transform="translate(225.093184, 363.750236)"><g><path d="M 0 0 L 0 -36.84375 L 3.40625 -36.84375 L 16.375 -10.921875 L 16.375 -36.84375 L 20.46875 -36.84375 L 20.46875 0 L 17.734375 0 L 4.09375 -27.296875 L 4.09375 0 Z M 0 0 "/></g></g></g><g fill="#ffffff" fill-opacity="1"><g transform="translate(256.750287, 363.750236)"><g><path d="M 8.875 0 L 0 -17.734375 L 0 -36.84375 L 4.09375 -36.84375 L 4.09375 -17.734375 L 10.234375 -5.453125 L 16.375 -17.734375 L 16.375 -36.84375 L 20.46875 -36.84375 L 20.46875 -17.734375 L 11.59375 0 Z M 8.875 0 "/></g></g></g><g fill="#ffffff" fill-opacity="1"><g transform="translate(288.40739, 363.750236)"><g><path d="M 12.28125 -4.09375 L 16.375 -8.1875 L 16.375 -28.65625 L 12.28125 -32.75 L 8.1875 -32.75 L 4.09375 -28.65625 L 4.09375 -8.1875 L 8.1875 -4.09375 Z M 6.828125 0 L 0 -6.828125 L 0 -30.03125 L 6.828125 -36.84375 L 13.640625 -36.84375 L 20.46875 -30.03125 L 20.46875 -6.828125 L 13.640625 0 Z M 6.828125 0 "/></g></g></g><g fill="#ffffff" fill-opacity="1"><g transform="translate(320.064481, 363.750236)"><g><path d="M 0 0 L 0 -36.84375 L 4.09375 -36.84375 L 4.09375 -4.09375 L 20.46875 -4.09375 L 20.46875 0 Z M 0 0 "/></g></g></g><g fill="#ffffff" fill-opacity="1"><g transform="translate(351.721585, 363.750236)"><g><path d="M 8.875 0 L 0 -17.734375 L 0 -36.84375 L 4.09375 -36.84375 L 4.09375 -17.734375 L 10.234375 -5.453125 L 16.375 -17.734375 L 16.375 -36.84375 L 20.46875 -36.84375 L 20.46875 -17.734375 L 11.59375 0 Z M 8.875 0 "/></g></g></g><g fill="#ffffff" fill-opacity="1"><g transform="translate(383.378688, 363.750236)"><g><path d="M 0 0 L 0 -36.84375 L 20.46875 -36.84375 L 20.46875 -32.75 L 4.09375 -32.75 L 4.09375 -20.46875 L 16.375 -20.46875 L 16.375 -16.375 L 4.09375 -16.375 L 4.09375 -4.09375 L 20.46875 -4.09375 L 20.46875 0 Z M 0 0 "/></g></g></g><g fill="#ffffff" fill-opacity="1"><g transform="translate(415.035791, 363.750236)"><g><path d="M 12.28125 -4.09375 L 16.375 -8.1875 L 16.375 -28.65625 L 12.28125 -32.75 L 4.09375 -32.75 L 4.09375 -4.09375 Z M 0 0 L 0 -36.84375 L 13.640625 -36.84375 L 20.46875 -30.03125 L 20.46875 -6.828125 L 13.640625 0 Z M 0 0 "/></g></g></g><g fill="#ffffff" fill-opacity="1"><g transform="translate(446.692894, 363.750236)"><g><path d="M 12.28125 -4.09375 L 16.375 -8.1875 L 16.375 -28.65625 L 12.28125 -32.75 L 8.1875 -32.75 L 4.09375 -28.65625 L 4.09375 -8.1875 L 8.1875 -4.09375 Z M 6.828125 0 L 0 -6.828125 L 0 -30.03125 L 6.828125 -36.84375 L 13.640625 -36.84375 L 20.46875 -30.03125 L 20.46875 -6.828125 L 13.640625 0 Z M 6.828125 0 "/></g></g></g><g fill="#ffffff" fill-opacity="1"><g transform="translate(478.349997, 363.750236)"><g><path d="M 12.28125 -20.46875 L 16.375 -24.5625 L 16.375 -28.65625 L 12.28125 -32.75 L 4.09375 -32.75 L 4.09375 -20.46875 Z M 0 0 L 0 -36.84375 L 13.640625 -36.84375 L 20.46875 -30.03125 L 20.46875 -23.203125 L 13.640625 -16.375 L 12.96875 -16.375 L 20.46875 -1.359375 L 17.734375 0 L 17.0625 0 L 8.875 -16.375 L 4.09375 -16.375 L 4.09375 0 Z M 0 0 "/></g></g></g><g fill="#ffffff" fill-opacity="1"><g transform="translate(510.007077, 363.750236)"><g><path d="M 0 0 L 0 -36.84375 L 20.46875 -36.84375 L 20.46875 -32.75 L 4.09375 -32.75 L 4.09375 -20.46875 L 16.375 -20.46875 L 16.375 -16.375 L 4.09375 -16.375 L 4.09375 -4.09375 L 20.46875 -4.09375 L 20.46875 0 Z M 0 0 "/></g></g></g><g fill="#ffffff" fill-opacity="1"><g transform="translate(541.66418, 363.750236)"><g><path d="M 6.828125 0 L 0 -6.828125 L 2.734375 -9.546875 L 8.1875 -4.09375 L 12.28125 -4.09375 L 16.375 -8.1875 L 16.375 -12.28125 L 12.28125 -16.375 L 6.828125 -16.375 L 0 -23.203125 L 0 -30.03125 L 6.828125 -36.84375 L 13.640625 -36.84375 L 20.46875 -30.03125 L 17.734375 -27.296875 L 12.28125 -32.75 L 8.1875 -32.75 L 4.09375 -28.65625 L 4.09375 -24.5625 L 8.1875 -20.46875 L 13.640625 -20.46875 L 20.46875 -13.640625 L 20.46875 -6.828125 L 13.640625 0 Z M 6.828125 0 "/></g></g></g><g fill="#ffffff" fill-opacity="1"><g transform="translate(573.321283, 363.750236)"><g/></g></g><g fill="#ffffff" fill-opacity="1"><g transform="translate(604.978387, 363.750236)"><g><path d="M 12.28125 -20.46875 L 16.375 -24.5625 L 16.375 -28.65625 L 12.28125 -32.75 L 4.09375 -32.75 L 4.09375 -20.46875 Z M 0 0 L 0 -36.84375 L 13.640625 -36.84375 L 20.46875 -30.03125 L 20.46875 -23.203125 L 13.640625 -16.375 L 12.96875 -16.375 L 20.46875 -1.359375 L 17.734375 0 L 17.0625 0 L 8.875 -16.375 L 4.09375 -16.375 L 4.09375 0 Z M 0 0 "/></g></g></g><g fill="#ffffff" fill-opacity="1"><g transform="translate(636.63549, 363.750236)"><g><path d="M 0 0 L 0 -36.84375 L 20.46875 -36.84375 L 20.46875 -32.75 L 4.09375 -32.75 L 4.09375 -20.46875 L 16.375 -20.46875 L 16.375 -16.375 L 4.09375 -16.375 L 4.09375 -4.09375 L 20.46875 -4.09375 L 20.46875 0 Z M 0 0 "/></g></g></g><g fill="#ffffff" fill-opacity="1"><g transform="translate(668.292593, 363.750236)"><g><path d="M 6.828125 0 L 0 -6.828125 L 0 -30.03125 L 6.828125 -36.84375 L 13.640625 -36.84375 L 20.46875 -30.03125 L 17.734375 -27.296875 L 12.28125 -32.75 L 8.1875 -32.75 L 4.09375 -28.65625 L 4.09375 -8.1875 L 8.1875 -4.09375 L 12.28125 -4.09375 L 17.734375 -9.546875 L 20.46875 -6.828125 L 13.640625 0 Z M 6.828125 0 "/></g></g></g><g fill="#ffffff" fill-opacity="1"><g transform="translate(699.949696, 363.750236)"><g><path d="M 0 0 L 0 -36.84375 L 20.46875 -36.84375 L 20.46875 -32.75 L 4.09375 -32.75 L 4.09375 -20.46875 L 16.375 -20.46875 L 16.375 -16.375 L 4.09375 -16.375 L 4.09375 -4.09375 L 20.46875 -4.09375 L 20.46875 0 Z M 0 0 "/></g></g></g><g fill="#ffffff" fill-opacity="1"><g transform="translate(731.606799, 363.750236)"><g><path d="M 12.28125 -4.09375 L 16.375 -8.1875 L 16.375 -12.28125 L 12.28125 -16.375 L 4.09375 -16.375 L 4.09375 -4.09375 Z M 12.28125 -20.46875 L 16.375 -24.5625 L 16.375 -28.65625 L 12.28125 -32.75 L 4.09375 -32.75 L 4.09375 -20.46875 Z M 0 0 L 0 -36.84375 L 13.640625 -36.84375 L 20.46875 -30.03125 L 20.46875 -23.203125 L 16.375 -19.109375 L 16.296875 -19.109375 L 15.6875 -18.421875 L 20.46875 -13.640625 L 20.46875 -6.828125 L 13.640625 0 Z M 0 0 "/></g></g></g><g fill="#ffffff" fill-opacity="1"><g transform="translate(763.263902, 363.750236)"><g><path d="M 0 0 L 0 -36.84375 L 20.46875 -36.84375 L 20.46875 -32.75 L 4.09375 -32.75 L 4.09375 -20.46875 L 16.375 -20.46875 L 16.375 -16.375 L 4.09375 -16.375 L 4.09375 -4.09375 L 20.46875 -4.09375 L 20.46875 0 Z M 0 0 "/></g></g></g><g fill="#ffffff" fill-opacity="1"><g transform="translate(794.921005, 363.750236)"><g><path d="M 6.828125 0 L 0 -6.828125 L 0 -36.84375 L 4.09375 -36.84375 L 4.09375 -8.1875 L 8.1875 -4.09375 L 12.28125 -4.09375 L 16.375 -8.1875 L 16.375 -36.84375 L 20.46875 -36.84375 L 20.46875 -6.828125 L 13.640625 0 Z M 6.828125 0 "/></g></g></g><g fill="#ffffff" fill-opacity="1"><g transform="translate(826.578109, 363.750236)"><g/></g></g><g fill="#ffffff" fill-opacity="1"><g transform="translate(858.235212, 363.750236)"><g><path d="M 6.828125 0 L 0 -6.828125 L 0 -36.84375 L 4.09375 -36.84375 L 4.09375 -8.1875 L 8.1875 -4.09375 L 12.28125 -4.09375 L 16.375 -8.1875 L 16.375 -36.84375 L 20.46875 -36.84375 L 20.46875 -6.828125 L 13.640625 0 Z M 6.828125 0 "/></g></g></g><g fill="#ffffff" fill-opacity="1"><g transform="translate(889.892269, 363.750236)"><g><path d="M 0 0 L 0 -36.84375 L 3.40625 -36.84375 L 10.234375 -23.203125 L 17.0625 -36.84375 L 20.46875 -36.84375 L 20.46875 0 L 16.375 0 L 16.375 -27.296875 L 11.59375 -17.734375 L 8.875 -17.734375 L 4.09375 -27.296875 L 4.09375 0 Z M 0 0 "/></g></g></g><g fill="#ffffff" fill-opacity="1"><g transform="translate(921.549372, 363.750236)"><g><path d="M 16.375 -16.375 L 16.375 -19.109375 L 10.234375 -31.390625 L 4.09375 -19.109375 L 4.09375 -16.375 Z M 0 0 L 0 -19.109375 L 8.875 -36.84375 L 11.59375 -36.84375 L 20.46875 -19.109375 L 20.46875 0 L 16.375 0 L 16.375 -12.28125 L 4.09375 -12.28125 L 4.09375 0 Z M 0 0 "/></g></g></g><g fill="#ffffff" fill-opacity="1"><g transform="translate(177.613217, 486.00023)"><g><path d="M 0 0 L 0 -36.84375 L 20.46875 -36.84375 L 20.46875 -32.75 L 4.09375 -32.75 L 4.09375 -20.46875 L 16.375 -20.46875 L 16.375 -16.375 L 4.09375 -16.375 L 4.09375 -4.09375 L 20.46875 -4.09375 L 20.46875 0 Z M 0 0 "/></g></g></g><g fill="#ffffff" fill-opacity="1"><g transform="translate(209.270317, 486.00023)"><g><path d="M 0 0 L 0 -36.84375 L 3.40625 -36.84375 L 16.375 -10.921875 L 16.375 -36.84375 L 20.46875 -36.84375 L 20.46875 0 L 17.734375 0 L 4.09375 -27.296875 L 4.09375 0 Z M 0 0 "/></g></g></g><g fill="#ffffff" fill-opacity="1"><g transform="translate(240.927417, 486.00023)"><g><path d="M 6.828125 0 L 0 -6.828125 L 0 -30.03125 L 6.828125 -36.84375 L 13.640625 -36.84375 L 20.46875 -30.03125 L 17.734375 -27.296875 L 12.28125 -32.75 L 8.1875 -32.75 L 4.09375 -28.65625 L 4.09375 -8.1875 L 8.1875 -4.09375 L 12.28125 -4.09375 L 17.734375 -9.546875 L 20.46875 -6.828125 L 13.640625 0 Z M 6.828125 0 "/></g></g></g><g fill="#ffffff" fill-opacity="1"><g transform="translate(272.584514, 486.00023)"><g><path d="M 12.28125 -4.09375 L 16.375 -8.1875 L 16.375 -28.65625 L 12.28125 -32.75 L 8.1875 -32.75 L 4.09375 -28.65625 L 4.09375 -8.1875 L 8.1875 -4.09375 Z M 6.828125 0 L 0 -6.828125 L 0 -30.03125 L 6.828125 -36.84375 L 13.640625 -36.84375 L 20.46875 -30.03125 L 20.46875 -6.828125 L 13.640625 0 Z M 6.828125 0 "/></g></g></g><g fill="#ffffff" fill-opacity="1"><g transform="translate(304.241617, 486.00023)"><g><path d="M 0 0 L 0 -36.84375 L 3.40625 -36.84375 L 10.234375 -23.203125 L 17.0625 -36.84375 L 20.46875 -36.84375 L 20.46875 0 L 16.375 0 L 16.375 -27.296875 L 11.59375 -17.734375 L 8.875 -17.734375 L 4.09375 -27.296875 L 4.09375 0 Z M 0 0 "/></g></g></g><g fill="#ffffff" fill-opacity="1"><g transform="translate(335.898721, 486.00023)"><g><path d="M 0 0 L 0 -36.84375 L 20.46875 -36.84375 L 20.46875 -32.75 L 4.09375 -32.75 L 4.09375 -20.46875 L 16.375 -20.46875 L 16.375 -16.375 L 4.09375 -16.375 L 4.09375 -4.09375 L 20.46875 -4.09375 L 20.46875 0 Z M 0 0 "/></g></g></g><g fill="#ffffff" fill-opacity="1"><g transform="translate(367.555824, 486.00023)"><g><path d="M 0 0 L 0 -36.84375 L 3.40625 -36.84375 L 16.375 -10.921875 L 16.375 -36.84375 L 20.46875 -36.84375 L 20.46875 0 L 17.734375 0 L 4.09375 -27.296875 L 4.09375 0 Z M 0 0 "/></g></g></g><g fill="#ffffff" fill-opacity="1"><g transform="translate(399.212915, 486.00023)"><g><path d="M 12.28125 -4.09375 L 16.375 -8.1875 L 16.375 -28.65625 L 12.28125 -32.75 L 4.09375 -32.75 L 4.09375 -4.09375 Z M 0 0 L 0 -36.84375 L 13.640625 -36.84375 L 20.46875 -30.03125 L 20.46875 -6.828125 L 13.640625 0 Z M 0 0 "/></g></g></g><g fill="#ffffff" fill-opacity="1"><g transform="translate(430.870018, 486.00023)"><g><path d="M 16.375 -16.375 L 16.375 -19.109375 L 10.234375 -31.390625 L 4.09375 -19.109375 L 4.09375 -16.375 Z M 0 0 L 0 -19.109375 L 8.875 -36.84375 L 11.59375 -36.84375 L 20.46875 -19.109375 L 20.46875 0 L 16.375 0 L 16.375 -12.28125 L 4.09375 -12.28125 L 4.09375 0 Z M 0 0 "/></g></g></g><g fill="#ffffff" fill-opacity="1"><g transform="translate(462.527121, 486.00023)"><g><path d="M 8.1875 8.1875 L 5.453125 5.453125 L 9.546875 1.359375 L 9.546875 0 L 6.828125 0 L 6.828125 -6.828125 L 13.640625 -6.828125 L 13.640625 2.734375 Z M 8.1875 8.1875 "/></g></g></g><g fill="#ffffff" fill-opacity="1"><g transform="translate(525.841328, 486.00023)"><g><path d="M 0 0 L 0 -36.84375 L 20.46875 -36.84375 L 20.46875 -32.75 L 4.09375 -32.75 L 4.09375 -20.46875 L 16.375 -20.46875 L 16.375 -16.375 L 4.09375 -16.375 L 4.09375 -4.09375 L 20.46875 -4.09375 L 20.46875 0 Z M 0 0 "/></g></g></g><g fill="#ffffff" fill-opacity="1"><g transform="translate(589.155511, 486.00023)"><g><path d="M 12.28125 -4.09375 L 16.375 -8.1875 L 16.375 -28.65625 L 12.28125 -32.75 L 8.1875 -32.75 L 4.09375 -28.65625 L 4.09375 -8.1875 L 8.1875 -4.09375 Z M 6.828125 0 L 0 -6.828125 L 0 -30.03125 L 6.828125 -36.84375 L 13.640625 -36.84375 L 20.46875 -30.03125 L 20.46875 -6.828125 L 13.640625 0 Z M 6.828125 0 "/></g></g></g><g fill="#ffffff" fill-opacity="1"><g transform="translate(652.469717, 486.00023)"><g><path d="M 12.28125 -20.46875 L 16.375 -24.5625 L 16.375 -28.65625 L 12.28125 -32.75 L 4.09375 -32.75 L 4.09375 -20.46875 Z M 0 0 L 0 -36.84375 L 13.640625 -36.84375 L 20.46875 -30.03125 L 20.46875 -23.203125 L 13.640625 -16.375 L 4.09375 -16.375 L 4.09375 0 Z M 0 0 "/></g></g></g><g fill="#ffffff" fill-opacity="1"><g transform="translate(684.12682, 486.00023)"><g><path d="M 12.28125 -20.46875 L 16.375 -24.5625 L 16.375 -28.65625 L 12.28125 -32.75 L 4.09375 -32.75 L 4.09375 -20.46875 Z M 0 0 L 0 -36.84375 L 13.640625 -36.84375 L 20.46875 -30.03125 L 20.46875 -23.203125 L 13.640625 -16.375 L 12.96875 -16.375 L 20.46875 -1.359375 L 17.734375 0 L 17.0625 0 L 8.875 -16.375 L 4.09375 -16.375 L 4.09375 0 Z M 0 0 "/></g></g></g><g fill="#ffffff" fill-opacity="1"><g transform="translate(715.783923, 486.00023)"><g><path d="M 12.28125 -4.09375 L 16.375 -8.1875 L 16.375 -28.65625 L 12.28125 -32.75 L 8.1875 -32.75 L 4.09375 -28.65625 L 4.09375 -8.1875 L 8.1875 -4.09375 Z M 6.828125 0 L 0 -6.828125 L 0 -30.03125 L 6.828125 -36.84375 L 13.640625 -36.84375 L 20.46875 -30.03125 L 20.46875 -6.828125 L 13.640625 0 Z M 6.828125 0 "/></g></g></g><g fill="#ffffff" fill-opacity="1"><g transform="translate(747.441026, 486.00023)"><g><path d="M 12.28125 -4.09375 L 16.375 -8.1875 L 16.375 -28.65625 L 12.28125 -32.75 L 4.09375 -32.75 L 4.09375 -4.09375 Z M 0 0 L 0 -36.84375 L 13.640625 -36.84375 L 20.46875 -30.03125 L 20.46875 -6.828125 L 13.640625 0 Z M 0 0 "/></g></g></g><g fill="#ffffff" fill-opacity="1"><g transform="translate(779.09813, 486.00023)"><g><path d="M 6.828125 0 L 0 -6.828125 L 0 -36.84375 L 4.09375 -36.84375 L 4.09375 -8.1875 L 8.1875 -4.09375 L 12.28125 -4.09375 L 16.375 -8.1875 L 16.375 -36.84375 L 20.46875 -36.84375 L 20.46875 -6.828125 L 13.640625 0 Z M 6.828125 0 "/></g></g></g><g fill="#ffffff" fill-opacity="1"><g transform="translate(810.755233, 486.00023)"><g><path d="M 8.1875 0 L 8.1875 -32.75 L 0 -32.75 L 0 -36.84375 L 20.46875 -36.84375 L 20.46875 -32.75 L 12.28125 -32.75 L 12.28125 0 Z M 8.1875 0 "/></g></g></g><g fill="#ffffff" fill-opacity="1"><g transform="translate(842.412336, 486.00023)"><g><path d="M 12.28125 -4.09375 L 16.375 -8.1875 L 16.375 -28.65625 L 12.28125 -32.75 L 8.1875 -32.75 L 4.09375 -28.65625 L 4.09375 -8.1875 L 8.1875 -4.09375 Z M 6.828125 0 L 0 -6.828125 L 0 -30.03125 L 6.828125 -36.84375 L 13.640625 -36.84375 L 20.46875 -30.03125 L 20.46875 -6.828125 L 13.640625 0 Z M 6.828125 0 "/></g></g></g><g fill="#ffffff" fill-opacity="1"><g transform="translate(145.949156, 608.250224)"><g><path d="M 0 0 L 0 -36.84375 L 20.46875 -36.84375 L 20.46875 -32.75 L 4.09375 -32.75 L 4.09375 -20.46875 L 16.375 -20.46875 L 16.375 -16.375 L 4.09375 -16.375 L 4.09375 0 Z M 0 0 "/></g></g></g><g fill="#ffffff" fill-opacity="1"><g transform="translate(177.606256, 608.250224)"><g><path d="M 4.09375 0 L 4.09375 -4.09375 L 8.1875 -4.09375 L 8.1875 -32.75 L 4.09375 -32.75 L 4.09375 -36.84375 L 16.375 -36.84375 L 16.375 -32.75 L 12.28125 -32.75 L 12.28125 -4.09375 L 16.375 -4.09375 L 16.375 0 Z M 4.09375 0 "/></g></g></g><g fill="#ffffff" fill-opacity="1"><g transform="translate(209.263356, 608.250224)"><g><path d="M 0 0 L 0 -36.84375 L 3.40625 -36.84375 L 16.375 -10.921875 L 16.375 -36.84375 L 20.46875 -36.84375 L 20.46875 0 L 17.734375 0 L 4.09375 -27.296875 L 4.09375 0 Z M 0 0 "/></g></g></g><g fill="#ffffff" fill-opacity="1"><g transform="translate(240.920453, 608.250224)"><g><path d="M 16.375 -16.375 L 16.375 -19.109375 L 10.234375 -31.390625 L 4.09375 -19.109375 L 4.09375 -16.375 Z M 0 0 L 0 -19.109375 L 8.875 -36.84375 L 11.59375 -36.84375 L 20.46875 -19.109375 L 20.46875 0 L 16.375 0 L 16.375 -12.28125 L 4.09375 -12.28125 L 4.09375 0 Z M 0 0 "/></g></g></g><g fill="#ffffff" fill-opacity="1"><g transform="translate(272.577557, 608.250224)"><g><path d="M 0 0 L 0 -36.84375 L 4.09375 -36.84375 L 4.09375 -4.09375 L 20.46875 -4.09375 L 20.46875 0 Z M 0 0 "/></g></g></g><g fill="#ffffff" fill-opacity="1"><g transform="translate(304.23466, 608.250224)"><g/></g></g><g fill="#ffffff" fill-opacity="1"><g transform="translate(335.891763, 608.250224)"><g><path d="M 12.28125 -4.09375 L 16.375 -8.1875 L 16.375 -28.65625 L 12.28125 -32.75 L 4.09375 -32.75 L 4.09375 -4.09375 Z M 0 0 L 0 -36.84375 L 13.640625 -36.84375 L 20.46875 -30.03125 L 20.46875 -6.828125 L 13.640625 0 Z M 0 0 "/></g></g></g><g fill="#ffffff" fill-opacity="1"><g transform="translate(367.548854, 608.250224)"><g><path d="M 0 0 L 0 -36.84375 L 20.46875 -36.84375 L 20.46875 -32.75 L 4.09375 -32.75 L 4.09375 -20.46875 L 16.375 -20.46875 L 16.375 -16.375 L 4.09375 -16.375 L 4.09375 -4.09375 L 20.46875 -4.09375 L 20.46875 0 Z M 0 0 "/></g></g></g><g fill="#ffffff" fill-opacity="1"><g transform="translate(399.205957, 608.250224)"><g><path d="M 8.875 0 L 0 -17.734375 L 0 -36.84375 L 4.09375 -36.84375 L 4.09375 -17.734375 L 10.234375 -5.453125 L 16.375 -17.734375 L 16.375 -36.84375 L 20.46875 -36.84375 L 20.46875 -17.734375 L 11.59375 0 Z M 8.875 0 "/></g></g></g><g fill="#ffffff" fill-opacity="1"><g transform="translate(430.86306, 608.250224)"><g><path d="M 0 0 L 0 -36.84375 L 20.46875 -36.84375 L 20.46875 -32.75 L 4.09375 -32.75 L 4.09375 -20.46875 L 16.375 -20.46875 L 16.375 -16.375 L 4.09375 -16.375 L 4.09375 -4.09375 L 20.46875 -4.09375 L 20.46875 0 Z M 0 0 "/></g></g></g><g fill="#ffffff" fill-opacity="1"><g transform="translate(462.520163, 608.250224)"><g><path d="M 12.28125 -20.46875 L 16.375 -24.5625 L 16.375 -28.65625 L 12.28125 -32.75 L 4.09375 -32.75 L 4.09375 -20.46875 Z M 0 0 L 0 -36.84375 L 13.640625 -36.84375 L 20.46875 -30.03125 L 20.46875 -23.203125 L 13.640625 -16.375 L 12.96875 -16.375 L 20.46875 -1.359375 L 17.734375 0 L 17.0625 0 L 8.875 -16.375 L 4.09375 -16.375 L 4.09375 0 Z M 0 0 "/></g></g></g><g fill="#ffffff" fill-opacity="1"><g transform="translate(494.177267, 608.250224)"><g><path d="M 16.375 -16.375 L 16.375 -19.109375 L 10.234375 -31.390625 L 4.09375 -19.109375 L 4.09375 -16.375 Z M 0 0 L 0 -19.109375 L 8.875 -36.84375 L 11.59375 -36.84375 L 20.46875 -19.109375 L 20.46875 0 L 16.375 0 L 16.375 -12.28125 L 4.09375 -12.28125 L 4.09375 0 Z M 9.546875 -39.578125 L 6.828125 -42.3125 L 12.28125 -47.765625 L 15.015625 -45.03125 Z M 9.546875 -39.578125 "/></g></g></g><g fill="#ffffff" fill-opacity="1"><g transform="translate(525.83437, 608.250224)"><g/></g></g><g fill="#ffffff" fill-opacity="1"><g transform="translate(557.49145, 608.250224)"><g><path d="M 12.28125 -20.46875 L 16.375 -24.5625 L 16.375 -28.65625 L 12.28125 -32.75 L 4.09375 -32.75 L 4.09375 -20.46875 Z M 0 0 L 0 -36.84375 L 13.640625 -36.84375 L 20.46875 -30.03125 L 20.46875 -23.203125 L 13.640625 -16.375 L 12.96875 -16.375 L 20.46875 -1.359375 L 17.734375 0 L 17.0625 0 L 8.875 -16.375 L 4.09375 -16.375 L 4.09375 0 Z M 0 0 "/></g></g></g><g fill="#ffffff" fill-opacity="1"><g transform="translate(589.148553, 608.250224)"><g><path d="M 0 0 L 0 -36.84375 L 20.46875 -36.84375 L 20.46875 -32.75 L 4.09375 -32.75 L 4.09375 -20.46875 L 16.375 -20.46875 L 16.375 -16.375 L 4.09375 -16.375 L 4.09375 -4.09375 L 20.46875 -4.09375 L 20.46875 0 Z M 0 0 "/></g></g></g><g fill="#ffffff" fill-opacity="1"><g transform="translate(620.805656, 608.250224)"><g><path d="M 6.828125 0 L 0 -6.828125 L 2.734375 -9.546875 L 8.1875 -4.09375 L 12.28125 -4.09375 L 16.375 -8.1875 L 16.375 -12.28125 L 12.28125 -16.375 L 6.828125 -16.375 L 0 -23.203125 L 0 -30.03125 L 6.828125 -36.84375 L 13.640625 -36.84375 L 20.46875 -30.03125 L 17.734375 -27.296875 L 12.28125 -32.75 L 8.1875 -32.75 L 4.09375 -28.65625 L 4.09375 -24.5625 L 8.1875 -20.46875 L 13.640625 -20.46875 L 20.46875 -13.640625 L 20.46875 -6.828125 L 13.640625 0 Z M 6.828125 0 "/></g></g></g><g fill="#ffffff" fill-opacity="1"><g transform="translate(652.462759, 608.250224)"><g><path d="M 12.28125 -20.46875 L 16.375 -24.5625 L 16.375 -28.65625 L 12.28125 -32.75 L 4.09375 -32.75 L 4.09375 -20.46875 Z M 0 0 L 0 -36.84375 L 13.640625 -36.84375 L 20.46875 -30.03125 L 20.46875 -23.203125 L 13.640625 -16.375 L 4.09375 -16.375 L 4.09375 0 Z M 0 0 "/></g></g></g><g fill="#ffffff" fill-opacity="1"><g transform="translate(684.119862, 608.250224)"><g><path d="M 0 0 L 0 -36.84375 L 20.46875 -36.84375 L 20.46875 -32.75 L 4.09375 -32.75 L 4.09375 -20.46875 L 16.375 -20.46875 L 16.375 -16.375 L 4.09375 -16.375 L 4.09375 -4.09375 L 20.46875 -4.09375 L 20.46875 0 Z M 0 0 "/></g></g></g><g fill="#ffffff" fill-opacity="1"><g transform="translate(715.776965, 608.250224)"><g><path d="M 4.09375 0 L 4.09375 -4.09375 L 8.1875 -4.09375 L 8.1875 -32.75 L 4.09375 -32.75 L 4.09375 -36.84375 L 16.375 -36.84375 L 16.375 -32.75 L 12.28125 -32.75 L 12.28125 -4.09375 L 16.375 -4.09375 L 16.375 0 Z M 4.09375 0 "/></g></g></g><g fill="#ffffff" fill-opacity="1"><g transform="translate(747.434069, 608.250224)"><g><path d="M 8.1875 0 L 8.1875 -32.75 L 0 -32.75 L 0 -36.84375 L 20.46875 -36.84375 L 20.46875 -32.75 L 12.28125 -32.75 L 12.28125 0 Z M 8.1875 0 "/></g></g></g><g fill="#ffffff" fill-opacity="1"><g transform="translate(779.091172, 608.250224)"><g><path d="M 16.375 -16.375 L 16.375 -19.109375 L 10.234375 -31.390625 L 4.09375 -19.109375 L 4.09375 -16.375 Z M 0 0 L 0 -19.109375 L 8.875 -36.84375 L 11.59375 -36.84375 L 20.46875 -19.109375 L 20.46875 0 L 16.375 0 L 16.375 -12.28125 L 4.09375 -12.28125 L 4.09375 0 Z M 0 0 "/></g></g></g><g fill="#ffffff" fill-opacity="1"><g transform="translate(810.748275, 608.250224)"><g><path d="M 12.28125 -20.46875 L 16.375 -24.5625 L 16.375 -28.65625 L 12.28125 -32.75 L 4.09375 -32.75 L 4.09375 -20.46875 Z M 0 0 L 0 -36.84375 L 13.640625 -36.84375 L 20.46875 -30.03125 L 20.46875 -23.203125 L 13.640625 -16.375 L 12.96875 -16.375 L 20.46875 -1.359375 L 17.734375 0 L 17.0625 0 L 8.875 -16.375 L 4.09375 -16.375 L 4.09375 0 Z M 0 0 "/></g></g></g><g fill="#ffffff" fill-opacity="1"><g transform="translate(842.405378, 608.250224)"><g/></g></g><g fill="#ffffff" fill-opacity="1"><g transform="translate(874.062481, 608.250224)"><g><path d="M 12.28125 -4.09375 L 16.375 -8.1875 L 16.375 -28.65625 L 12.28125 -32.75 L 8.1875 -32.75 L 4.09375 -28.65625 L 4.09375 -8.1875 L 8.1875 -4.09375 Z M 6.828125 0 L 0 -6.828125 L 0 -30.03125 L 6.828125 -36.84375 L 13.640625 -36.84375 L 20.46875 -30.03125 L 20.46875 -6.828125 L 13.640625 0 Z M 6.828125 0 "/></g></g></g><g fill="#ffffff" fill-opacity="1"><g transform="translate(240.917901, 730.500218)"><g><path d="M 12.28125 -4.09375 L 16.375 -8.1875 L 16.375 -28.65625 L 12.28125 -32.75 L 4.09375 -32.75 L 4.09375 -4.09375 Z M 0 0 L 0 -36.84375 L 13.640625 -36.84375 L 20.46875 -30.03125 L 20.46875 -6.828125 L 13.640625 0 Z M 0 0 "/></g></g></g><g fill="#ffffff" fill-opacity="1"><g transform="translate(272.575001, 730.500218)"><g><path d="M 0 0 L 0 -36.84375 L 20.46875 -36.84375 L 20.46875 -32.75 L 4.09375 -32.75 L 4.09375 -20.46875 L 16.375 -20.46875 L 16.375 -16.375 L 4.09375 -16.375 L 4.09375 -4.09375 L 20.46875 -4.09375 L 20.46875 0 Z M 0 0 "/></g></g></g><g fill="#ffffff" fill-opacity="1"><g transform="translate(304.232101, 730.500218)"><g><path d="M 6.828125 0 L 0 -6.828125 L 2.734375 -9.546875 L 8.1875 -4.09375 L 12.28125 -4.09375 L 16.375 -8.1875 L 16.375 -12.28125 L 12.28125 -16.375 L 6.828125 -16.375 L 0 -23.203125 L 0 -30.03125 L 6.828125 -36.84375 L 13.640625 -36.84375 L 20.46875 -30.03125 L 17.734375 -27.296875 L 12.28125 -32.75 L 8.1875 -32.75 L 4.09375 -28.65625 L 4.09375 -24.5625 L 8.1875 -20.46875 L 13.640625 -20.46875 L 20.46875 -13.640625 L 20.46875 -6.828125 L 13.640625 0 Z M 6.828125 0 "/></g></g></g><g fill="#ffffff" fill-opacity="1"><g transform="translate(335.889199, 730.500218)"><g><path d="M 0 0 L 0 -36.84375 L 20.46875 -36.84375 L 20.46875 -32.75 L 4.09375 -32.75 L 4.09375 -20.46875 L 16.375 -20.46875 L 16.375 -16.375 L 4.09375 -16.375 L 4.09375 -4.09375 L 20.46875 -4.09375 L 20.46875 0 Z M 0 0 "/></g></g></g><g fill="#ffffff" fill-opacity="1"><g transform="translate(367.546302, 730.500218)"><g><path d="M 6.828125 0 L 0 -6.828125 L 2.734375 -9.546875 L 8.1875 -4.09375 L 12.28125 -4.09375 L 16.375 -8.1875 L 16.375 -36.84375 L 20.46875 -36.84375 L 20.46875 -6.828125 L 13.640625 0 Z M 6.828125 0 "/></g></g></g><g fill="#ffffff" fill-opacity="1"><g transform="translate(399.203405, 730.500218)"><g><path d="M 12.28125 -4.09375 L 16.375 -8.1875 L 16.375 -28.65625 L 12.28125 -32.75 L 8.1875 -32.75 L 4.09375 -28.65625 L 4.09375 -8.1875 L 8.1875 -4.09375 Z M 6.828125 0 L 0 -6.828125 L 0 -30.03125 L 6.828125 -36.84375 L 13.640625 -36.84375 L 20.46875 -30.03125 L 20.46875 -6.828125 L 13.640625 0 Z M 6.828125 0 "/></g></g></g><g fill="#ffffff" fill-opacity="1"><g transform="translate(430.860508, 730.500218)"><g/></g></g><g fill="#ffffff" fill-opacity="1"><g transform="translate(462.517599, 730.500218)"><g><path d="M 12.28125 -4.09375 L 16.375 -8.1875 L 16.375 -28.65625 L 12.28125 -32.75 L 4.09375 -32.75 L 4.09375 -4.09375 Z M 0 0 L 0 -36.84375 L 13.640625 -36.84375 L 20.46875 -30.03125 L 20.46875 -6.828125 L 13.640625 0 Z M 0 0 "/></g></g></g><g fill="#ffffff" fill-opacity="1"><g transform="translate(494.174702, 730.500218)"><g><path d="M 12.28125 -4.09375 L 16.375 -8.1875 L 16.375 -28.65625 L 12.28125 -32.75 L 8.1875 -32.75 L 4.09375 -28.65625 L 4.09375 -8.1875 L 8.1875 -4.09375 Z M 6.828125 0 L 0 -6.828125 L 0 -30.03125 L 6.828125 -36.84375 L 13.640625 -36.84375 L 20.46875 -30.03125 L 20.46875 -6.828125 L 13.640625 0 Z M 6.828125 0 "/></g></g></g><g fill="#ffffff" fill-opacity="1"><g transform="translate(525.831806, 730.500218)"><g/></g></g><g fill="#ffffff" fill-opacity="1"><g transform="translate(557.488909, 730.500218)"><g><path d="M 6.828125 0 L 0 -6.828125 L 0 -30.03125 L 6.828125 -36.84375 L 13.640625 -36.84375 L 20.46875 -30.03125 L 17.734375 -27.296875 L 12.28125 -32.75 L 8.1875 -32.75 L 4.09375 -28.65625 L 4.09375 -8.1875 L 8.1875 -4.09375 L 12.28125 -4.09375 L 17.734375 -9.546875 L 20.46875 -6.828125 L 13.640625 0 Z M 6.828125 0 "/></g></g></g><g fill="#ffffff" fill-opacity="1"><g transform="translate(589.146012, 730.500218)"><g><path d="M 0 0 L 0 -36.84375 L 4.09375 -36.84375 L 4.09375 -4.09375 L 20.46875 -4.09375 L 20.46875 0 Z M 0 0 "/></g></g></g><g fill="#ffffff" fill-opacity="1"><g transform="translate(620.803115, 730.500218)"><g><path d="M 4.09375 0 L 4.09375 -4.09375 L 8.1875 -4.09375 L 8.1875 -32.75 L 4.09375 -32.75 L 4.09375 -36.84375 L 16.375 -36.84375 L 16.375 -32.75 L 12.28125 -32.75 L 12.28125 -4.09375 L 16.375 -4.09375 L 16.375 0 Z M 4.09375 0 "/></g></g></g><g fill="#ffffff" fill-opacity="1"><g transform="translate(652.460195, 730.500218)"><g><path d="M 0 0 L 0 -36.84375 L 20.46875 -36.84375 L 20.46875 -32.75 L 4.09375 -32.75 L 4.09375 -20.46875 L 16.375 -20.46875 L 16.375 -16.375 L 4.09375 -16.375 L 4.09375 -4.09375 L 20.46875 -4.09375 L 20.46875 0 Z M 0 0 "/></g></g></g><g fill="#ffffff" fill-opacity="1"><g transform="translate(684.117298, 730.500218)"><g><path d="M 0 0 L 0 -36.84375 L 3.40625 -36.84375 L 16.375 -10.921875 L 16.375 -36.84375 L 20.46875 -36.84375 L 20.46875 0 L 17.734375 0 L 4.09375 -27.296875 L 4.09375 0 Z M 0 0 "/></g></g></g><g fill="#ffffff" fill-opacity="1"><g transform="translate(715.774401, 730.500218)"><g><path d="M 8.1875 0 L 8.1875 -32.75 L 0 -32.75 L 0 -36.84375 L 20.46875 -36.84375 L 20.46875 -32.75 L 12.28125 -32.75 L 12.28125 0 Z M 8.1875 0 "/></g></g></g><g fill="#ffffff" fill-opacity="1"><g transform="translate(747.431504, 730.500218)"><g><path d="M 0 0 L 0 -36.84375 L 20.46875 -36.84375 L 20.46875 -32.75 L 4.09375 -32.75 L 4.09375 -20.46875 L 16.375 -20.46875 L 16.375 -16.375 L 4.09375 -16.375 L 4.09375 -4.09375 L 20.46875 -4.09375 L 20.46875 0 Z M 0 0 "/></g></g></g><g fill="#ffffff" fill-opacity="1"><g transform="translate(779.088608, 730.500218)"><g><path d="M 6.828125 0 L 6.828125 -6.828125 L 13.640625 -6.828125 L 13.640625 0 Z M 6.828125 0 "/></g></g></g><path fill="#2a245e" d="M 1136.496094 206.011719 C 1138.1875 225.296875 1135.214844 239.777344 1130.007812 251.953125 C 1130.007812 251.953125 1153.273438 249.03125 1153.273438 249.03125 C 1143.765625 237.734375 1141.207031 223.125 1144.027344 205.949219 C 1144.027344 205.949219 1136.496094 206.011719 1136.496094 206.011719 Z M 1136.496094 206.011719 " fill-opacity="1" fill-rule="nonzero"/><path fill="#02c1c2" d="M 1167.195312 261.324219 C 1167.195312 261.324219 1154.601562 262.476562 1154.601562 262.476562 C 1154.601562 262.476562 1114.257812 266.175781 1114.257812 266.175781 C 1116.335938 257.0625 1122.945312 250.015625 1141.167969 248.214844 C 1144.042969 248.019531 1146.757812 247.890625 1149.273438 247.882812 C 1160.742188 247.847656 1168.058594 250.378906 1167.195312 261.324219 Z M 1167.195312 261.324219 " fill-opacity="1" fill-rule="nonzero"/><path fill="#35cdce" d="M 1167.195312 261.324219 C 1167.195312 261.324219 1154.601562 262.476562 1154.601562 262.476562 C 1156.765625 257.972656 1154.453125 253.054688 1149.273438 247.882812 C 1160.742188 247.847656 1168.058594 250.378906 1167.195312 261.324219 Z M 1167.195312 261.324219 " fill-opacity="1" fill-rule="nonzero"/><path fill="#f0c808" d="M 1155.652344 195.625 C 1155.722656 204.144531 1148.871094 211.101562 1140.355469 211.167969 C 1131.839844 211.238281 1124.878906 204.386719 1124.8125 195.871094 C 1124.746094 187.351562 1131.597656 180.394531 1140.113281 180.328125 C 1148.628906 180.261719 1155.585938 187.109375 1155.652344 195.625 Z M 1155.652344 195.625 " fill-opacity="1" fill-rule="nonzero"/><path fill="#02c1c2" d="M 1246.34375 375.128906 C 1245.71875 378.375 1243.714844 381.203125 1240.878906 382.894531 C 1222.78125 393.671875 1204.71875 401.582031 1186.679688 406.835938 C 1141.816406 419.917969 1097.144531 416.574219 1052.613281 400.117188 C 1048.542969 398.613281 1045.710938 394.871094 1045.4375 390.539062 C 1041.558594 330.074219 1067.097656 272.460938 1136.152344 259.972656 C 1142.515625 258.824219 1148.992188 258.375 1155.433594 258.769531 C 1155.433594 258.769531 1155.445312 258.769531 1155.445312 258.769531 C 1157.191406 258.875 1158.9375 259.050781 1160.675781 259.277344 C 1215.871094 266.65625 1256.824219 320.441406 1246.34375 375.128906 Z M 1246.34375 375.128906 " fill-opacity="1" fill-rule="nonzero"/><path fill="#35cdce" d="M 1246.34375 375.128906 C 1245.71875 378.375 1243.714844 381.203125 1240.878906 382.894531 C 1222.78125 393.671875 1204.71875 401.582031 1186.679688 406.835938 C 1208.082031 359.316406 1207.371094 310.527344 1155.433594 258.769531 C 1155.433594 258.769531 1155.445312 258.769531 1155.445312 258.769531 C 1157.191406 258.875 1158.9375 259.050781 1160.675781 259.277344 C 1215.871094 266.65625 1256.824219 320.441406 1246.34375 375.128906 Z M 1246.34375 375.128906 " fill-opacity="1" fill-rule="nonzero"/><path fill="#2a245e" d="M 1146.390625 288.730469 C 1187.121094 295.359375 1203.183594 323.582031 1212.210938 345.140625 C 1223.875 380.605469 1204.929688 390.910156 1154.558594 380.035156 C 1141.789062 377.277344 1128.78125 378.164062 1116.53125 382.253906 C 1072.542969 396.929688 1056.5625 373.058594 1074.277344 328.457031 C 1082.996094 308.390625 1095.535156 296.632812 1111.65625 291.355469 C 1120.914062 288.328125 1136.703125 287.152344 1146.390625 288.730469 Z M 1146.390625 288.730469 " fill-opacity="1" fill-rule="nonzero"/><path fill="#2a245e" d="M 1258.945312 561.125 C 1258.945312 581.632812 1274.554688 598.253906 1293.808594 598.253906 C 1313.0625 598.253906 1328.671875 581.632812 1328.671875 561.125 C 1328.671875 540.617188 1313.0625 523.992188 1293.808594 523.992188 C 1274.554688 523.992188 1258.945312 540.617188 1258.945312 561.125 Z M 1258.945312 561.125 " fill-opacity="1" fill-rule="nonzero"/><path fill="#02c1c2" d="M 1263.816406 568.6875 C 1282.21875 567.351562 1298.589844 562.96875 1311.085938 552.75 C 1318.394531 546.789062 1324.378906 538.820312 1328.671875 528.3125 C 1315.21875 494.761719 1294.390625 466.195312 1272.1875 438.539062 C 1259.460938 426.574219 1241.734375 423.308594 1226.660156 427.832031 C 1207.050781 433.699219 1191.90625 452.707031 1198.039062 482.8125 C 1212.226562 511.644531 1233.699219 540.285156 1263.816406 568.6875 Z M 1263.816406 568.6875 " fill-opacity="1" fill-rule="nonzero"/><path fill="#35cdce" d="M 1311.085938 552.75 C 1318.394531 546.789062 1324.378906 538.820312 1328.671875 528.3125 C 1315.21875 494.761719 1294.390625 466.195312 1272.1875 438.539062 C 1259.460938 426.578125 1241.734375 423.308594 1226.660156 427.832031 C 1256.214844 453.605469 1284.394531 494.886719 1311.085938 552.75 Z M 1311.085938 552.75 " fill-opacity="1" fill-rule="nonzero"/><path fill="#35cdce" d="M 1255.625 430.597656 C 1269.25 537.804688 1253.40625 605.964844 1175.839844 619.628906 C 1175.839844 619.628906 1175.832031 619.628906 1175.832031 619.628906 C 1173.382812 620.066406 1170.875 620.4375 1168.300781 620.757812 C 1161.628906 621.082031 1155.339844 620.949219 1149.414062 620.402344 C 1076.289062 613.6875 1058.785156 543.175781 1055.015625 456.902344 C 1055.015625 456.902344 1071.09375 454.792969 1071.09375 454.792969 C 1071.09375 454.792969 1131.367188 446.890625 1131.367188 446.890625 C 1131.367188 446.890625 1195.667969 438.460938 1195.667969 438.460938 C 1195.667969 438.460938 1195.691406 438.453125 1195.691406 438.453125 C 1195.691406 438.453125 1246.457031 431.796875 1246.457031 431.796875 C 1246.457031 431.796875 1255.625 430.597656 1255.625 430.597656 Z M 1255.625 430.597656 " fill-opacity="1" fill-rule="nonzero"/><path fill="#02c1c2" d="M 1246.457031 431.796875 C 1254.898438 530.414062 1239.074219 592.9375 1174.789062 606.027344 C 1174.789062 606.027344 1174.78125 606.027344 1174.78125 606.027344 C 1172.652344 606.464844 1170.472656 606.847656 1168.234375 607.167969 C 1162.429688 607.5 1156.96875 607.371094 1151.828125 606.835938 C 1091.132812 600.492188 1074.894531 535.816406 1071.09375 454.792969 C 1071.09375 454.792969 1131.367188 446.890625 1131.367188 446.890625 C 1131.367188 446.890625 1195.667969 438.460938 1195.667969 438.460938 C 1195.667969 438.460938 1195.691406 438.453125 1195.691406 438.453125 C 1195.691406 438.453125 1246.457031 431.796875 1246.457031 431.796875 Z M 1246.457031 431.796875 " fill-opacity="1" fill-rule="nonzero"/><path fill="#2a245e" d="M 1220.808594 469.875 C 1220.808594 469.875 1239.386719 466.679688 1239.386719 466.679688 C 1241.734375 466.273438 1243.851562 467.890625 1243.769531 470.027344 C 1243.769531 470.027344 1242.363281 507.019531 1242.363281 507.019531 C 1242.304688 508.503906 1241.179688 509.824219 1239.578125 510.234375 C 1233.417969 511.816406 1227.085938 512.316406 1220.621094 511.960938 C 1218.644531 511.851562 1217.125 510.40625 1217.152344 508.625 C 1217.152344 508.625 1217.660156 473.234375 1217.660156 473.234375 C 1217.683594 471.601562 1219.007812 470.183594 1220.808594 469.875 Z M 1220.808594 469.875 " fill-opacity="1" fill-rule="nonzero"/><path fill="#02c1c2" d="M 1221.503906 475.839844 C 1221.503906 475.839844 1221.71875 480.550781 1221.71875 480.550781 C 1221.753906 481.308594 1222.515625 481.859375 1223.359375 481.734375 C 1223.359375 481.734375 1237.941406 479.542969 1237.941406 479.542969 C 1238.632812 479.4375 1239.152344 478.90625 1239.175781 478.28125 C 1239.175781 478.28125 1239.378906 472.953125 1239.378906 472.953125 C 1239.410156 472.128906 1238.585938 471.511719 1237.683594 471.679688 C 1237.683594 471.679688 1222.679688 474.492188 1222.679688 474.492188 C 1221.976562 474.625 1221.472656 475.199219 1221.503906 475.839844 Z M 1221.503906 475.839844 " fill-opacity="1" fill-rule="nonzero"/><path fill="#f0c808" d="M 1221.824219 487.410156 C 1221.824219 487.410156 1221.644531 492.042969 1221.644531 492.042969 C 1221.617188 492.773438 1222.277344 493.367188 1223.097656 493.339844 C 1223.097656 493.339844 1237.320312 492.902344 1237.320312 492.902344 C 1238.058594 492.882812 1238.667969 492.359375 1238.738281 491.699219 C 1238.738281 491.699219 1239.429688 484.886719 1239.429688 484.886719 C 1239.515625 484.039062 1238.683594 483.371094 1237.753906 483.539062 C 1237.753906 483.539062 1223.015625 486.15625 1223.015625 486.15625 C 1222.34375 486.277344 1221.847656 486.800781 1221.824219 487.410156 Z M 1221.824219 487.410156 " fill-opacity="1" fill-rule="nonzero"/><path fill="#f0c808" d="M 1221.339844 500.15625 C 1221.339844 500.15625 1221.132812 505.515625 1221.132812 505.515625 C 1221.105469 506.261719 1221.78125 506.855469 1222.609375 506.816406 C 1222.609375 506.816406 1237.378906 506.105469 1237.378906 506.105469 C 1238.136719 506.066406 1238.75 505.507812 1238.773438 504.828125 C 1238.773438 504.828125 1238.996094 499.007812 1238.996094 499.007812 C 1239.023438 498.246094 1238.316406 497.644531 1237.472656 497.714844 C 1237.472656 497.714844 1222.683594 498.882812 1222.683594 498.882812 C 1221.945312 498.941406 1221.363281 499.492188 1221.339844 500.15625 Z M 1221.339844 500.15625 " fill-opacity="1" fill-rule="nonzero"/><path fill="#2a245e" d="M 1059.054688 462.199219 C 1089.609375 475.453125 1228.800781 456.757812 1253.519531 436.210938 C 1257.386719 432.992188 1255.972656 427.285156 1251.035156 425.910156 C 1218.714844 416.933594 1087.636719 431 1058.105469 450.75 C 1053.5625 453.789062 1054.0625 460.035156 1059.054688 462.199219 Z M 1059.054688 462.199219 " fill-opacity="1" fill-rule="nonzero"/><path fill="#02c1c2" d="M 1161.355469 561.257812 C 1162.015625 566.207031 1164.832031 570.585938 1168.941406 573.410156 C 1203.933594 597.4375 1243.453125 610.660156 1285.929688 616.820312 C 1294.269531 618.035156 1302.378906 613.226562 1305.164062 605.261719 C 1308.730469 595.0625 1310.84375 584.207031 1310.65625 572.289062 C 1310.539062 565.363281 1309.648438 558.074219 1307.796875 550.359375 C 1306.882812 546.53125 1304.683594 543.125 1301.601562 540.683594 C 1266.671875 513.027344 1228.621094 493.761719 1186.042969 488.667969 C 1177.628906 487.667969 1169.691406 492.789062 1167.097656 500.863281 C 1166.234375 503.546875 1165.457031 506.191406 1164.765625 508.8125 C 1159.8125 527.644531 1159.164062 544.960938 1161.355469 561.257812 Z M 1161.355469 561.257812 " fill-opacity="1" fill-rule="nonzero"/><path fill="#35cdce" d="M 1164.769531 508.8125 C 1222.964844 519.867188 1271.613281 541 1310.65625 572.289062 C 1310.539062 565.363281 1309.648438 558.074219 1307.796875 550.359375 C 1306.882812 546.53125 1304.683594 543.125 1301.601562 540.683594 C 1266.675781 513.027344 1228.621094 493.761719 1186.042969 488.667969 C 1177.628906 487.667969 1169.691406 492.789062 1167.097656 500.863281 C 1166.234375 503.546875 1165.457031 506.191406 1164.769531 508.8125 Z M 1164.769531 508.8125 " fill-opacity="1" fill-rule="nonzero"/><path fill="#f0c808" d="M 1177.109375 578.691406 C 1177.109375 578.691406 1073.042969 598.609375 1073.042969 598.609375 C 1073.042969 598.609375 994.15625 564.871094 994.15625 564.871094 C 989.289062 562.789062 985.988281 558.179688 985.582031 552.902344 C 985.582031 552.902344 974.636719 409.367188 974.636719 409.367188 C 974.386719 406.023438 977.722656 403.585938 980.828125 404.835938 C 980.828125 404.835938 1067.96875 440.03125 1067.96875 440.03125 C 1067.96875 440.03125 1162.910156 417.574219 1162.910156 417.574219 C 1168.167969 416.328125 1173.3125 420.003906 1173.847656 425.371094 C 1173.851562 425.40625 1173.851562 425.4375 1173.859375 425.472656 C 1173.859375 425.472656 1186.324219 566.484375 1186.324219 566.484375 C 1186.332031 566.539062 1186.335938 566.59375 1186.335938 566.648438 C 1186.765625 572.414062 1182.800781 577.601562 1177.109375 578.691406 Z M 1177.109375 578.691406 " fill-opacity="1" fill-rule="nonzero"/><path fill="#f3d339" d="M 1177.109375 578.691406 C 1177.109375 578.691406 1073.042969 598.609375 1073.042969 598.609375 C 1073.042969 598.609375 1067.96875 440.03125 1067.96875 440.03125 C 1067.96875 440.03125 1162.910156 417.574219 1162.910156 417.574219 C 1168.167969 416.328125 1173.3125 420.003906 1173.847656 425.371094 C 1173.851562 425.40625 1173.851562 425.4375 1173.859375 425.472656 C 1173.859375 425.472656 1186.324219 566.484375 1186.324219 566.484375 C 1186.332031 566.539062 1186.335938 566.59375 1186.335938 566.648438 C 1186.765625 572.414062 1182.800781 577.601562 1177.109375 578.691406 Z M 1177.109375 578.691406 " fill-opacity="1" fill-rule="nonzero"/><path fill="#2a245e" d="M 1085.6875 490.695312 C 1085.261719 486.132812 1086.296875 481.371094 1088.792969 476.417969 C 1091.289062 471.460938 1095.207031 467.1875 1100.539062 463.589844 C 1105.875 459.992188 1112.289062 457.847656 1119.785156 457.152344 C 1126.75 456.503906 1133.019531 457.222656 1138.589844 459.296875 C 1144.160156 461.371094 1148.601562 464.480469 1151.921875 468.632812 C 1155.238281 472.78125 1157.136719 477.449219 1157.617188 482.640625 C 1157.996094 486.722656 1157.5 490.378906 1156.128906 493.605469 C 1154.753906 496.835938 1153.03125 499.671875 1150.957031 502.117188 C 1148.882812 504.5625 1145.136719 508.703125 1139.71875 514.535156 C 1138.222656 516.175781 1137.035156 517.609375 1136.15625 518.828125 C 1135.277344 520.046875 1134.636719 521.148438 1134.246094 522.128906 C 1133.851562 523.109375 1133.566406 524.082031 1133.390625 525.042969 C 1133.210938 526.003906 1132.96875 527.6875 1132.660156 530.089844 C 1132.210938 535.171875 1129.582031 537.933594 1124.777344 538.378906 C 1122.28125 538.609375 1120.101562 537.988281 1118.246094 536.515625 C 1116.390625 535.039062 1115.3125 532.691406 1115.015625 529.476562 C 1114.640625 525.4375 1114.9375 521.886719 1115.914062 518.816406 C 1116.890625 515.746094 1118.304688 512.996094 1120.164062 510.574219 C 1122.019531 508.148438 1124.5625 505.234375 1127.785156 501.832031 C 1130.609375 498.859375 1132.640625 496.621094 1133.882812 495.125 C 1135.125 493.628906 1136.136719 492 1136.917969 490.230469 C 1137.699219 488.460938 1137.996094 486.59375 1137.8125 484.621094 C 1137.457031 480.777344 1135.726562 477.667969 1132.625 475.292969 C 1129.519531 472.917969 1125.710938 471.9375 1121.195312 472.355469 C 1115.910156 472.847656 1112.144531 474.539062 1109.894531 477.4375 C 1107.644531 480.335938 1105.894531 484.460938 1104.644531 489.808594 C 1103.515625 495.390625 1100.667969 498.390625 1096.105469 498.8125 C 1093.414062 499.0625 1091.058594 498.328125 1089.03125 496.601562 C 1087.007812 494.875 1085.890625 492.90625 1085.6875 490.695312 Z M 1128.179688 566.410156 C 1125.25 566.679688 1122.605469 565.96875 1120.242188 564.273438 C 1117.878906 562.582031 1116.539062 560.027344 1116.222656 556.617188 C 1115.941406 553.589844 1116.761719 550.945312 1118.6875 548.683594 C 1120.609375 546.421875 1123.105469 545.148438 1126.179688 544.863281 C 1129.207031 544.582031 1131.847656 545.378906 1134.105469 547.253906 C 1136.363281 549.125 1137.632812 551.578125 1137.914062 554.601562 C 1138.226562 557.964844 1137.390625 560.710938 1135.40625 562.832031 C 1133.425781 564.953125 1131.015625 566.144531 1128.179688 566.410156 Z M 1128.179688 566.410156 " fill-opacity="1" fill-rule="nonzero"/><path fill="#2a245e" d="M 1215.691406 499.875 C 1225.492188 513.632812 1227.777344 529.882812 1225.0625 547.800781 C 1223.785156 556.230469 1217.515625 562.664062 1209.890625 563.445312 C 1198.6875 564.589844 1188.078125 564.34375 1178.71875 561.171875 C 1177.132812 560.636719 1175.628906 559.832031 1174.253906 558.800781 C 1162.144531 549.707031 1156.253906 536.632812 1159.339844 517.808594 C 1159.796875 515.019531 1159.726562 512.148438 1159.085938 509.402344 C 1157.496094 502.613281 1158.910156 497.574219 1162.402344 493.742188 C 1165.300781 490.566406 1169.230469 488.882812 1173.285156 488.632812 C 1184.566406 487.9375 1195.816406 489.914062 1207.050781 493.425781 C 1210.464844 494.496094 1213.484375 496.777344 1215.691406 499.875 Z M 1215.691406 499.875 " fill-opacity="1" fill-rule="nonzero"/><path fill="#2a245e" d="M 972.703125 473.859375 C 963.765625 486.269531 961.621094 500.976562 964 517.207031 C 965.117188 524.847656 970.765625 530.699219 977.664062 531.441406 C 987.800781 532.527344 997.40625 532.355469 1005.898438 529.527344 C 1007.335938 529.046875 1008.703125 528.324219 1009.949219 527.398438 C 1020.957031 519.222656 1026.347656 507.410156 1023.640625 490.351562 C 1023.242188 487.824219 1023.3125 485.222656 1023.910156 482.746094 C 1025.378906 476.605469 1024.121094 472.035156 1020.976562 468.550781 C 1018.367188 465.664062 1014.816406 464.121094 1011.148438 463.875 C 1000.9375 463.195312 990.742188 464.933594 980.554688 468.0625 C 977.457031 469.011719 974.714844 471.0625 972.703125 473.859375 Z M 972.703125 473.859375 " fill-opacity="1" fill-rule="nonzero"/><path fill="#02c1c2" d="M 1215.34375 645.289062 C 1214.863281 645.941406 1214.195312 646.46875 1213.425781 646.792969 C 1204.890625 650.441406 1196.402344 652.945312 1187.949219 654.316406 C 1168.84375 657.417969 1149.945312 654.730469 1131.238281 646.425781 C 1130.335938 646.023438 1129.582031 645.355469 1129.09375 644.53125 C 1126.441406 640.03125 1125.699219 635.609375 1126.75 631.273438 C 1127.339844 628.839844 1129.949219 627.371094 1132.519531 627.996094 C 1152.386719 632.808594 1172.21875 634.035156 1192.011719 631.273438 C 1199.027344 630.300781 1206.039062 628.816406 1213.054688 626.824219 C 1215.964844 625.996094 1218.988281 627.972656 1219.183594 630.839844 C 1219.570312 636.289062 1218.414062 641.152344 1215.34375 645.289062 Z M 1215.34375 645.289062 " fill-opacity="1" fill-rule="nonzero"/><path fill="#35cdce" d="M 1215.34375 645.289062 C 1214.863281 645.941406 1214.195312 646.464844 1213.425781 646.792969 C 1204.890625 650.441406 1196.402344 652.945312 1187.949219 654.316406 C 1196.390625 648.257812 1198.609375 640.777344 1192.011719 631.273438 C 1199.027344 630.300781 1206.039062 628.816406 1213.054688 626.820312 C 1215.964844 625.996094 1218.988281 627.972656 1219.183594 630.839844 C 1219.570312 636.289062 1218.414062 641.152344 1215.34375 645.289062 Z M 1215.34375 645.289062 " fill-opacity="1" fill-rule="nonzero"/><path fill="#02c1c2" d="M 1206.023438 670.527344 C 1205.792969 671.460938 1205.46875 672.390625 1205.042969 673.308594 C 1203.859375 675.921875 1201.457031 677.886719 1198.558594 678.691406 C 1194.527344 679.816406 1190.429688 680.730469 1186.277344 681.460938 C 1174.933594 683.449219 1163.15625 683.992188 1150.945312 683.148438 C 1146.714844 682.855469 1142.847656 680.695312 1140.585938 677.296875 C 1139.410156 675.546875 1138.660156 673.882812 1138.378906 672.324219 C 1137.722656 668.703125 1140.832031 665.480469 1144.707031 665.679688 C 1160.207031 666.472656 1175.046875 666.382812 1188.921875 664.976562 C 1192.414062 664.628906 1195.84375 664.195312 1199.203125 663.671875 C 1203.398438 663.007812 1206.96875 666.613281 1206.023438 670.527344 Z M 1206.023438 670.527344 " fill-opacity="1" fill-rule="nonzero"/><path fill="#35cdce" d="M 1206.023438 670.527344 C 1205.792969 671.460938 1205.46875 672.390625 1205.042969 673.308594 C 1203.859375 675.925781 1201.457031 677.890625 1198.558594 678.691406 C 1194.527344 679.816406 1190.429688 680.730469 1186.277344 681.460938 C 1189.734375 676.789062 1190.933594 671.402344 1188.921875 664.980469 C 1192.414062 664.628906 1195.84375 664.195312 1199.203125 663.671875 C 1203.398438 663.007812 1206.96875 666.613281 1206.023438 670.527344 Z M 1206.023438 670.527344 " fill-opacity="1" fill-rule="nonzero"/><path fill="#f0c808" d="M 1253.871094 244.78125 C 1251.46875 257.894531 1254.800781 270.730469 1262.074219 280.710938 C 1267.277344 288.53125 1271.171875 296.144531 1270.636719 303.074219 C 1270.636719 303.074219 1309.460938 310.183594 1309.460938 310.183594 C 1311.5 303.234375 1318.289062 297.289062 1326.351562 291.621094 C 1326.386719 291.597656 1326.414062 291.578125 1326.449219 291.550781 C 1336.234375 284.757812 1343.4375 274.242188 1345.75 261.601562 C 1350.394531 236.222656 1333.59375 211.894531 1308.222656 207.25 C 1282.847656 202.605469 1258.515625 219.402344 1253.871094 244.78125 Z M 1253.871094 244.78125 " fill-opacity="1" fill-rule="nonzero"/><path stroke-linecap="round" transform="matrix(0.594608, 0.0802598, -0.0802598, 0.594608, 1296.732829, 277.115749)" fill="none" stroke-linejoin="round" d="M 6.353156 53.618811 C 5.662522 29.326208 6.398434 4.992148 8.535403 -19.182844 C 9.441262 -29.408941 10.647589 -39.793845 14.572042 -49.120068 C 15.994043 -52.504765 18.713944 -56.20261 22.043457 -55.384121 C 24.16357 -54.862249 25.61381 -52.489344 25.763058 -50.118207 C 25.912307 -47.74707 24.996672 -45.429279 23.768967 -43.476672 C 20.493108 -38.251934 15.075747 -35.070295 9.536182 -33.232038 C 3.801833 -31.328073 -2.369477 -30.665879 -8.232184 -32.049025 C -14.102213 -33.437752 -19.644444 -36.972951 -23.12671 -42.330026 C -24.734567 -44.799906 -25.911459 -47.873223 -25.304889 -50.82595 C -24.704771 -53.777806 -21.715658 -56.211237 -19.135119 -55.101137 C -18.096277 -54.656677 -17.289422 -53.740751 -16.636898 -52.751437 C -14.161384 -49.012517 -13.610232 -44.199235 -13.291312 -39.597677 C -11.12264 -7.713203 -16.769175 24.286731 -15.146818 56.212099 " stroke="#2a245e" stroke-width="5" stroke-opacity="1" stroke-miterlimit="4"/><path fill="#35cdce" d="M 1268.507812 311.324219 C 1268.507812 311.324219 1308.882812 318.714844 1308.882812 318.714844 C 1308.882812 318.714844 1310.414062 310.359375 1310.414062 310.359375 C 1310.414062 310.359375 1270.035156 302.964844 1270.035156 302.964844 C 1270.035156 302.964844 1268.507812 311.324219 1268.507812 311.324219 Z M 1268.507812 311.324219 " fill-opacity="1" fill-rule="nonzero"/><path fill="#35cdce" d="M 1270.890625 328.261719 C 1270.890625 328.261719 1301.910156 333.941406 1301.910156 333.941406 C 1304.148438 334.351562 1306.292969 332.867188 1306.703125 330.632812 C 1306.703125 330.632812 1307.492188 326.324219 1307.492188 326.324219 C 1307.492188 326.324219 1267.113281 318.929688 1267.113281 318.929688 C 1267.113281 318.929688 1266.554688 321.980469 1266.554688 321.980469 C 1266.019531 324.914062 1267.960938 327.726562 1270.890625 328.261719 Z M 1270.890625 328.261719 " fill-opacity="1" fill-rule="nonzero"/><path fill="#02c1c2" d="M 1268.238281 319.144531 C 1268.238281 319.144531 1306.363281 326.125 1306.363281 326.125 C 1307.675781 326.363281 1308.933594 325.496094 1309.175781 324.183594 C 1309.175781 324.183594 1309.699219 321.324219 1309.699219 321.324219 C 1309.9375 320.007812 1309.070312 318.75 1307.757812 318.507812 C 1307.757812 318.507812 1269.632812 311.53125 1269.632812 311.53125 C 1268.320312 311.289062 1267.058594 312.160156 1266.820312 313.472656 C 1266.820312 313.472656 1266.296875 316.332031 1266.296875 316.332031 C 1266.054688 317.644531 1266.925781 318.90625 1268.238281 319.144531 Z M 1268.238281 319.144531 " fill-opacity="1" fill-rule="nonzero"/><path fill="#f0c808" d="M 1170.472656 353.300781 C 1171.371094 359.4375 1175.117188 364.015625 1178.839844 363.527344 C 1182.5625 363.039062 1184.851562 357.667969 1183.949219 351.53125 C 1183.050781 345.394531 1179.304688 340.816406 1175.582031 341.304688 C 1171.859375 341.792969 1169.570312 347.164062 1170.472656 353.300781 Z M 1170.472656 353.300781 " fill-opacity="1" fill-rule="nonzero"/><path fill="#f0c808" d="M 1088.480469 355.09375 C 1089.324219 360.84375 1092.683594 365.152344 1095.984375 364.71875 C 1099.289062 364.28125 1101.28125 359.269531 1100.4375 353.523438 C 1099.59375 347.773438 1096.234375 343.464844 1092.933594 343.902344 C 1089.632812 344.335938 1087.636719 349.347656 1088.480469 355.09375 Z M 1088.480469 355.09375 " fill-opacity="1" fill-rule="nonzero"/><path stroke-linecap="round" transform="matrix(0.6, 0, 0, 0.6, 1133.976741, 361.208176)" fill="none" stroke-linejoin="round" d="M 20.904651 4.047571 C 5.917671 -2.072221 -8.216444 -4.044877 -20.905247 1.039758 " stroke="#f0c808" stroke-width="7" stroke-opacity="1" stroke-miterlimit="4"/></svg>