<svg xmlns="http://www.w3.org/2000/svg" xmlns:xlink="http://www.w3.org/1999/xlink" width="1920" zoomAndPan="magnify" viewBox="0 0 1440 809.999993" height="1080" preserveAspectRatio="xMidYMid meet" version="1.0"><defs><g/></defs><rect x="-144" width="1728" fill="#ffffff" y="-80.999999" height="971.999992" fill-opacity="1"/><rect x="-144" width="1728" fill="#4a37d2" y="-80.999999" height="971.999992" fill-opacity="1"/><path fill="#02c1c2" d="M 404.402344 181.125 C 404.398438 185.191406 404.386719 189.253906 404.402344 193.316406 C 404.414062 197.945312 405.011719 198.003906 409.574219 197.914062 C 414.203125 197.824219 419.152344 197.910156 423.417969 199.4375 C 430.058594 201.8125 433.414062 210.765625 431.507812 218.230469 C 429.460938 226.269531 422.632812 231.675781 415.082031 231.261719 C 413.472656 231.171875 411.859375 231.171875 410.246094 231.085938 C 404.34375 230.773438 404.339844 230.765625 404.339844 236.464844 C 404.339844 244.320312 404.160156 252.183594 404.429688 260.03125 C 404.550781 263.632812 402.886719 264.574219 399.875 264.53125 C 393.511719 264.449219 387.148438 264.328125 380.789062 264.230469 C 379.570312 264.214844 378.347656 264.179688 377.132812 264.242188 C 372.144531 264.492188 371.148438 265.992188 372.792969 270.691406 C 377.222656 283.34375 369.566406 295.746094 356.953125 296.359375 C 343.425781 297.015625 334.167969 284.273438 338.6875 271.222656 C 340.605469 265.695312 339.539062 264.132812 333.636719 264.085938 C 326.324219 264.027344 319.007812 263.984375 311.699219 264.101562 C 308.234375 264.15625 306.863281 262.804688 306.953125 259.28125 C 307.148438 251.429688 307.09375 243.570312 307.089844 235.714844 C 307.089844 230.371094 306.03125 229.628906 301.113281 231.363281 C 293.871094 233.917969 284.578125 231.660156 280.664062 226.394531 C 275.71875 219.746094 275.65625 209.195312 280.519531 202.777344 C 285.335938 196.429688 293.535156 194.109375 301.257812 196.910156 C 305.984375 198.621094 307.195312 197.835938 307.222656 192.945312 C 307.265625 184.820312 307.386719 176.691406 307.222656 168.566406 C 307.152344 165.207031 308.382812 163.9375 311.691406 163.992188 C 319.949219 164.132812 328.214844 164.046875 336.472656 164.144531 C 341.023438 164.199219 341.628906 165.351562 339.609375 169.644531 C 335.890625 177.554688 337.4375 187.488281 343.238281 192.984375 C 348.964844 198.40625 358.144531 199.417969 365.539062 195.445312 C 373.613281 191.101562 377.027344 179.746094 373.023438 170.554688 C 370.503906 164.78125 370.875 164.214844 377.308594 164.203125 C 385.027344 164.191406 392.75 164.308594 400.464844 164.175781 C 403.40625 164.125 404.617188 165.039062 404.460938 168.128906 C 404.242188 172.449219 404.40625 176.792969 404.402344 181.125 Z M 404.402344 181.125 " fill-opacity="1" fill-rule="nonzero"/><path fill="#02c1c2" d="M 408.910156 266.9375 C 408.910156 266.9375 435.109375 266.9375 435.109375 266.9375 C 436.199219 266.9375 437 267.980469 436.695312 269.023438 C 434.082031 278 434.707031 286.207031 441.792969 293.113281 C 446 297.214844 451.074219 298.886719 456.953125 298.652344 C 464.902344 298.339844 470.484375 294.441406 474.28125 287.726562 C 477.730469 281.625 477.078125 275.277344 475.183594 268.902344 C 474.898438 267.9375 475.53125 266.90625 476.535156 266.8125 C 476.585938 266.808594 476.636719 266.804688 476.6875 266.804688 C 485.347656 266.785156 494.007812 266.789062 503.050781 266.789062 C 503.953125 266.789062 504.691406 267.527344 504.691406 268.429688 C 504.691406 268.429688 504.691406 287.945312 504.691406 287.945312 C 504.691406 289.4375 504.675781 290.929688 504.695312 292.417969 C 504.769531 297.703125 505.855469 298.472656 510.777344 296.75 C 518.4375 294.0625 526.058594 296.085938 530.914062 302.097656 C 536.25 308.707031 536.449219 318.726562 531.382812 325.972656 C 527.433594 331.621094 518.125 333.867188 510.34375 331.039062 C 505.925781 329.4375 504.707031 330.234375 504.671875 334.976562 C 504.613281 342.972656 504.515625 350.96875 504.695312 358.960938 C 504.777344 362.695312 503.316406 364.046875 499.671875 363.964844 C 492.359375 363.796875 485.039062 363.855469 477.722656 363.878906 C 472.019531 363.894531 470.996094 365.394531 472.847656 370.828125 C 475.746094 379.3125 473.050781 388.03125 466.054688 392.8125 C 459.585938 397.230469 450.242188 396.800781 444.042969 391.792969 C 438.042969 386.945312 435.816406 378.4375 438.550781 370.792969 C 440.574219 365.128906 439.660156 363.84375 433.554688 363.828125 C 426.644531 363.8125 419.734375 363.839844 412.824219 363.820312 C 407.328125 363.804688 406.679688 363.164062 406.683594 357.820312 C 406.691406 350.097656 406.746094 342.371094 406.738281 334.648438 C 406.734375 329.757812 405.769531 329.117188 401.199219 330.8125 C 394.335938 333.359375 385.542969 331.59375 381.242188 326.808594 C 376.546875 321.582031 375.335938 311.976562 378.542969 305.398438 C 381.855469 298.609375 388.375 294.78125 396.042969 295.304688 C 397.761719 295.421875 399.496094 295.921875 401.140625 296.484375 C 406.007812 298.160156 407.117188 297.425781 407.171875 292.113281 C 407.242188 285.070312 407.242188 278.019531 407.269531 270.976562 C 407.273438 270.179688 407.273438 269.386719 407.273438 268.578125 C 407.273438 267.671875 408.007812 266.9375 408.910156 266.9375 Z M 408.910156 266.9375 " fill-opacity="1" fill-rule="nonzero"/><path fill="#02c1c2" d="M 437.617188 166.050781 C 438.269531 166.292969 438.558594 167.066406 438.285156 167.707031 C 433.578125 178.726562 434.160156 188.96875 444.886719 196.492188 C 452.054688 201.515625 462.039062 200.90625 468.363281 195.246094 C 476.628906 187.847656 477.539062 178.914062 473.640625 169.136719 C 473.035156 167.621094 474.097656 165.917969 475.730469 165.898438 C 475.742188 165.898438 475.75 165.898438 475.761719 165.898438 C 483.621094 165.847656 491.480469 165.949219 499.339844 165.800781 C 502.183594 165.746094 503.074219 166.761719 503.023438 169.566406 C 502.882812 177.695312 502.957031 185.828125 503.007812 193.957031 C 503.035156 199.09375 505.523438 200.785156 510.28125 199.019531 C 518.46875 195.980469 525.835938 198.058594 530.398438 204.691406 C 534.59375 210.792969 534.125 220.777344 529.378906 226.40625 C 525.648438 230.832031 517.273438 232.578125 510.960938 230.246094 C 505.003906 228.042969 503.050781 229.410156 503.035156 235.84375 C 503.015625 243.296875 502.863281 250.757812 503.105469 258.203125 C 503.222656 261.851562 502.253906 263.285156 498.355469 263.113281 C 491.320312 262.800781 484.265625 262.992188 477.21875 262.996094 C 471.042969 263 469.160156 265.6875 471.222656 271.503906 C 475.449219 283.425781 467.878906 294.820312 455.695312 294.871094 C 444.226562 294.914062 436.253906 284.03125 439.683594 272.992188 C 439.964844 272.089844 440.363281 271.226562 440.660156 270.324219 C 442.066406 266.039062 440.035156 263.078125 435.445312 263.027344 C 427.859375 262.9375 420.265625 262.878906 412.683594 263.074219 C 408.960938 263.167969 408.019531 262.046875 408.328125 257.164062 C 408.679688 251.628906 408.542969 246.257812 408.332031 240.765625 C 408.152344 236.105469 409.011719 234.9375 412.492188 235.152344 C 430.355469 236.25 441.136719 220.285156 433.449219 204.179688 C 429.9375 196.824219 423.613281 194.0625 415.960938 193.824219 C 408.296875 193.585938 408.292969 193.71875 408.292969 186.0625 C 408.296875 180.371094 408.167969 174.671875 408.429688 168.992188 C 408.476562 167.914062 410.0625 166.027344 410.972656 166.003906 C 419.773438 165.816406 428.582031 165.941406 437.386719 166.003906 C 437.464844 166.003906 437.539062 166.023438 437.617188 166.050781 Z M 437.617188 166.050781 " fill-opacity="1" fill-rule="nonzero"/><path fill="#2a245e" d="M 340.382812 394.871094 C 346.621094 400.808594 350.652344 407.28125 352.371094 414.3125 C 352.371094 414.3125 314.730469 440.472656 314.730469 440.472656 C 308.933594 434.621094 307.816406 427.867188 312.535156 419.984375 C 312.535156 419.984375 340.382812 394.871094 340.382812 394.871094 Z M 340.382812 394.871094 " fill-opacity="1" fill-rule="nonzero"/><path fill="#02c1c2" d="M 345.203125 393.023438 C 345.488281 393.585938 345.375 394.273438 344.921875 394.714844 C 344.921875 394.714844 339.230469 400.257812 339.230469 400.257812 C 339.230469 400.257812 308.792969 429.871094 308.792969 429.871094 C 281.613281 399.097656 265.589844 367.867188 286.464844 349.867188 C 287.980469 348.558594 289.6875 347.324219 291.601562 346.15625 C 314.199219 342.074219 330.539062 364.0625 345.203125 393.023438 Z M 345.203125 393.023438 " fill-opacity="1" fill-rule="nonzero"/><path fill="#35cdce" d="M 344.878906 394.757812 C 344.878906 394.757812 339.230469 400.257812 339.230469 400.257812 C 326.734375 373.394531 309.839844 355.214844 286.464844 349.867188 C 287.980469 348.558594 289.6875 347.324219 291.601562 346.15625 C 314.1875 342.078125 330.519531 364.035156 345.175781 392.96875 C 345.480469 393.566406 345.359375 394.292969 344.878906 394.757812 Z M 344.878906 394.757812 " fill-opacity="1" fill-rule="nonzero"/><path fill="#02c1c2" d="M 384.382812 477.382812 C 384.585938 479.824219 383.261719 482.128906 381.089844 483.257812 C 377.1875 485.292969 373.113281 487.058594 368.882812 488.5625 C 358.683594 492.199219 347.539062 494.328125 335.554688 495.105469 C 334.636719 495.164062 333.71875 494.875 333.003906 494.292969 C 317.839844 481.902344 307.050781 465.644531 309.253906 437.871094 C 311.335938 439.53125 328.863281 428.503906 341.019531 419.3125 C 346.515625 415.15625 350.910156 411.375 352.292969 409.308594 C 352.648438 408.78125 353.394531 408.71875 353.824219 409.1875 C 374.761719 432.214844 382.519531 454.878906 384.382812 477.382812 Z M 384.382812 477.382812 " fill-opacity="1" fill-rule="nonzero"/><path fill="#35cdce" d="M 381.089844 483.257812 C 377.1875 485.289062 373.113281 487.058594 368.882812 488.5625 C 365.96875 462.019531 357.867188 438.289062 341.019531 419.3125 C 346.527344 415.148438 350.929688 411.359375 352.304688 409.292969 C 352.648438 408.773438 353.390625 408.710938 353.8125 409.171875 C 374.757812 432.207031 382.519531 454.875 384.382812 477.382812 C 384.585938 479.824219 383.261719 482.128906 381.089844 483.257812 Z M 381.089844 483.257812 " fill-opacity="1" fill-rule="nonzero"/><path fill="#2a245e" d="M 340.339844 499.847656 C 355.261719 496.246094 369.167969 494.519531 379.894531 498.625 C 381.363281 499.1875 382.464844 500.449219 382.78125 501.992188 C 386.902344 522.105469 378.359375 533.167969 363.488281 539.71875 C 357.605469 540.582031 354.839844 538.214844 356.214844 531.550781 C 347.171875 534.417969 343.125 530.363281 344.183594 519.234375 C 339.238281 521.835938 336.09375 521.308594 335.550781 516.269531 C 335.332031 514.210938 335.695312 512.125 336.492188 510.210938 C 337.382812 508.082031 337.808594 505.847656 337.675781 503.484375 C 337.578125 501.785156 338.683594 500.246094 340.339844 499.847656 Z M 340.339844 499.847656 " fill-opacity="1" fill-rule="nonzero"/><path fill="#02c1c2" d="M 230.886719 515.421875 C 159.789062 519.910156 127.464844 467.40625 116.925781 382.882812 C 116.925781 382.882812 127.15625 380.871094 127.15625 380.871094 C 127.15625 380.871094 299.71875 346.867188 299.71875 346.867188 C 300.675781 349.539062 301.582031 352.203125 302.417969 354.859375 C 327.796875 434.824219 300.75 506.5625 230.886719 515.421875 Z M 230.886719 515.421875 " fill-opacity="1" fill-rule="nonzero"/><path fill="#35cdce" d="M 230.167969 489.398438 C 170.976562 493.105469 140.367188 450.949219 127.15625 380.871094 C 127.15625 380.871094 299.71875 346.867188 299.71875 346.867188 C 300.675781 349.539062 301.578125 352.203125 302.417969 354.859375 C 313.816406 424.203125 287.730469 481.800781 230.167969 489.398438 Z M 230.167969 489.398438 " fill-opacity="1" fill-rule="nonzero"/><path fill="#2a245e" d="M 269.460938 382.347656 C 269.460938 382.347656 288.199219 376.664062 288.199219 376.664062 C 290.566406 375.949219 293.019531 377.328125 293.277344 379.527344 C 293.277344 379.527344 297.730469 417.605469 297.730469 417.605469 C 297.910156 419.132812 296.957031 420.628906 295.363281 421.257812 C 289.234375 423.675781 282.753906 425.007812 275.996094 425.480469 C 273.929688 425.625 272.125 424.339844 271.867188 422.515625 C 271.867188 422.515625 266.734375 386.195312 266.734375 386.195312 C 266.5 384.519531 267.644531 382.894531 269.460938 382.347656 Z M 269.460938 382.347656 " fill-opacity="1" fill-rule="nonzero"/><path fill="#f0c808" d="M 271.132812 388.363281 C 271.132812 388.363281 272.113281 393.160156 272.113281 393.160156 C 272.269531 393.9375 273.148438 394.402344 274 394.164062 C 274 394.164062 288.757812 390.03125 288.757812 390.03125 C 289.457031 389.835938 289.910156 389.222656 289.835938 388.578125 C 289.835938 388.578125 289.191406 383.09375 289.191406 383.09375 C 289.09375 382.246094 288.140625 381.71875 287.234375 382.007812 C 287.234375 382.007812 272.136719 386.832031 272.136719 386.832031 C 271.429688 387.058594 271 387.710938 271.132812 388.363281 Z M 271.132812 388.363281 " fill-opacity="1" fill-rule="nonzero"/><path fill="#f0c808" d="M 273.316406 400.175781 C 273.316406 400.175781 273.875 404.941406 273.875 404.941406 C 273.960938 405.699219 274.738281 406.21875 275.582031 406.085938 C 275.582031 406.085938 290.25 403.796875 290.25 403.796875 C 291.011719 403.675781 291.5625 403.066406 291.527344 402.378906 C 291.527344 402.378906 291.152344 395.3125 291.152344 395.3125 C 291.109375 394.433594 290.140625 393.855469 289.203125 394.144531 C 289.203125 394.144531 274.351562 398.738281 274.351562 398.738281 C 273.675781 398.949219 273.242188 399.546875 273.316406 400.175781 Z M 273.316406 400.175781 " fill-opacity="1" fill-rule="nonzero"/><path fill="#f0c808" d="M 274.851562 413.292969 C 274.851562 413.292969 275.496094 418.8125 275.496094 418.8125 C 275.585938 419.578125 276.382812 420.097656 277.234375 419.949219 C 277.234375 419.949219 292.421875 417.3125 292.421875 417.3125 C 293.203125 417.175781 293.746094 416.523438 293.664062 415.824219 C 293.664062 415.824219 292.964844 409.832031 292.964844 409.832031 C 292.871094 409.050781 292.042969 408.523438 291.175781 408.703125 C 291.175781 408.703125 276.042969 411.816406 276.042969 411.816406 C 275.285156 411.972656 274.773438 412.609375 274.851562 413.292969 Z M 274.851562 413.292969 " fill-opacity="1" fill-rule="nonzero"/><path fill="#2a245e" d="M 118.179688 385.171875 C 155.523438 406.546875 280.335938 379.457031 299.121094 350.164062 C 300.539062 347.953125 299.082031 345.046875 296.460938 344.867188 C 253.1875 341.960938 148.546875 360.296875 118.011719 380.511719 C 116.3125 381.636719 116.410156 384.160156 118.179688 385.171875 Z M 118.179688 385.171875 " fill-opacity="1" fill-rule="nonzero"/><path fill="#02c1c2" d="M 274.953125 273.921875 C 275.0625 274.425781 274.941406 274.957031 274.628906 275.363281 C 268.394531 283.398438 261.871094 290.488281 255.058594 296.65625 C 218.710938 329.574219 174.203125 336.179688 122.292969 318.941406 C 120.425781 318.320312 119.054688 316.722656 118.726562 314.78125 C 111.703125 273.398438 115.191406 236.054688 153.316406 212.007812 C 157.003906 209.683594 161.019531 207.476562 165.382812 205.410156 C 177.152344 199.820312 189.984375 196.707031 203.015625 196.867188 C 243.394531 197.351562 264.699219 227.148438 274.953125 273.921875 Z M 274.953125 273.921875 " fill-opacity="1" fill-rule="nonzero"/><path fill="#35cdce" d="M 274.570312 275.4375 C 268.355469 283.441406 261.851562 290.507812 255.058594 296.65625 C 220.953125 319.601562 180.53125 322.179688 134.308594 306.097656 C 127.730469 269.773438 128.703125 236.351562 153.316406 212.007812 C 157.003906 209.683594 161.019531 207.476562 165.382812 205.410156 C 177.152344 199.820312 189.984375 196.707031 203.015625 196.867188 C 243.367188 197.351562 264.671875 227.109375 274.933594 273.832031 C 275.054688 274.390625 274.921875 274.984375 274.570312 275.4375 Z M 274.570312 275.4375 " fill-opacity="1" fill-rule="nonzero"/><path fill="#02c1c2" d="M 196.582031 197.113281 C 196.582031 197.113281 184.097656 202.167969 184.097656 202.167969 C 184.097656 202.167969 153.578125 214.53125 153.578125 214.53125 C 152.183594 206.6875 149.585938 198.617188 170.515625 190.714844 C 171.238281 190.394531 171.953125 190.101562 172.652344 189.824219 C 184.773438 185.035156 193.238281 186.671875 196.582031 197.113281 Z M 196.582031 197.113281 " fill-opacity="1" fill-rule="nonzero"/><path fill="#35cdce" d="M 182.957031 202.699219 C 182.957031 193.652344 179.511719 190.003906 172.652344 189.824219 C 184.773438 185.035156 193.238281 186.671875 196.582031 197.113281 C 196.582031 197.113281 182.957031 202.699219 182.957031 202.699219 Z M 182.957031 202.699219 " fill-opacity="1" fill-rule="nonzero"/><path fill="#2a245e" d="M 153.90625 147.484375 C 160.335938 165.828125 163.597656 181.503906 163.101562 194.011719 C 163.101562 194.011719 180.339844 187.585938 180.339844 187.585938 C 169.164062 178.460938 162.566406 162.75 157.359375 145.03125 C 157.359375 145.03125 153.90625 147.484375 153.90625 147.484375 Z M 153.90625 147.484375 " fill-opacity="1" fill-rule="nonzero"/><path fill="#f0c808" d="M 169.292969 141.363281 C 170.835938 149.171875 165.757812 156.757812 157.945312 158.300781 C 150.136719 159.84375 142.550781 154.761719 141.007812 146.953125 C 139.464844 139.140625 144.546875 131.558594 152.355469 130.015625 C 160.167969 128.46875 167.75 133.550781 169.292969 141.363281 Z M 169.292969 141.363281 " fill-opacity="1" fill-rule="nonzero"/><path fill="#f3d339" d="M 169.292969 141.363281 C 170.835938 149.175781 165.753906 156.757812 157.945312 158.300781 C 156.804688 158.527344 155.667969 158.613281 154.554688 158.566406 C 160.476562 155.847656 163.988281 149.34375 162.667969 142.671875 C 161.351562 136.003906 155.628906 131.324219 149.121094 131.0625 C 150.128906 130.59375 151.214844 130.242188 152.355469 130.015625 C 160.167969 128.472656 167.75 133.554688 169.292969 141.363281 Z M 169.292969 141.363281 " fill-opacity="1" fill-rule="nonzero"/><path fill="#2a245e" d="M 253.410156 221.878906 C 205.277344 203.925781 176.992188 218.285156 158.882812 249.207031 C 141.066406 284.136719 157.667969 308.78125 187.25 302.847656 C 194.675781 301.355469 201.644531 298.117188 207.695312 293.570312 C 223.304688 281.84375 232.003906 273.40625 248.609375 274.820312 C 249.289062 274.878906 249.964844 274.984375 250.636719 275.101562 C 261.542969 276.964844 269.496094 274.5 272.960938 265.460938 C 268.277344 248.386719 262.238281 233.195312 253.410156 221.878906 Z M 253.410156 221.878906 " fill-opacity="1" fill-rule="nonzero"/><path fill="#2a245e" d="M 120.96875 485.046875 C 121.933594 500.957031 110.605469 514.589844 95.664062 515.496094 C 80.726562 516.402344 67.835938 504.238281 66.871094 488.328125 C 65.90625 472.417969 77.234375 458.785156 92.171875 457.878906 C 107.109375 456.972656 120.003906 469.136719 120.96875 485.046875 Z M 120.96875 485.046875 " fill-opacity="1" fill-rule="nonzero"/><path fill="#02c1c2" d="M 117.546875 491.144531 C 103.203125 490.972656 90.296875 488.34375 80.117188 481.003906 C 74.535156 476.980469 69.769531 471.535156 66.039062 464.304688 C 65.582031 463.414062 65.492188 462.367188 65.816406 461.417969 C 74.726562 435.367188 89.292969 412.652344 104.925781 390.5625 C 114.238281 380.683594 127.839844 377.316406 139.746094 380.113281 C 155.238281 383.746094 167.878906 397.777344 164.535156 421.421875 C 154.886719 444.460938 139.574219 467.691406 117.546875 491.144531 Z M 117.546875 491.144531 " fill-opacity="1" fill-rule="nonzero"/><path fill="#35cdce" d="M 80.121094 481.003906 C 74.542969 476.988281 69.785156 471.554688 66.058594 464.34375 C 65.585938 463.425781 65.496094 462.351562 65.828125 461.378906 C 74.742188 435.34375 89.300781 412.644531 104.925781 390.5625 C 114.238281 380.683594 127.839844 377.316406 139.746094 380.113281 C 118.027344 401.5 98.109375 434.855469 80.121094 481.003906 Z M 80.121094 481.003906 " fill-opacity="1" fill-rule="nonzero"/><path fill="#02c1c2" d="M 186.277344 457.953125 C 186.671875 461.816406 185.335938 465.636719 182.742188 468.511719 C 160.644531 493.015625 133.167969 510.164062 102.175781 522.511719 C 96.089844 524.941406 89.089844 522.777344 85.542969 517.261719 C 81 510.199219 77.433594 502.375 75.421875 493.332031 C 74.253906 488.074219 73.609375 482.402344 73.609375 476.238281 C 73.609375 473.179688 74.652344 470.207031 76.539062 467.800781 C 97.933594 440.570312 123.207031 419.117188 154.46875 407.558594 C 160.648438 405.273438 167.574219 407.710938 170.996094 413.34375 C 172.136719 415.214844 173.203125 417.074219 174.199219 418.929688 C 181.355469 432.269531 184.980469 445.238281 186.277344 457.953125 Z M 186.277344 457.953125 " fill-opacity="1" fill-rule="nonzero"/><path fill="#35cdce" d="M 174.199219 418.929688 C 132.207031 437.824219 99.265625 462.609375 75.421875 493.332031 C 74.253906 488.074219 73.609375 482.402344 73.609375 476.238281 C 73.609375 473.179688 74.652344 470.207031 76.539062 467.800781 C 97.933594 440.570312 123.207031 419.117188 154.46875 407.558594 C 160.648438 405.277344 167.574219 407.710938 170.996094 413.34375 C 172.136719 415.214844 173.203125 417.074219 174.199219 418.929688 Z M 174.199219 418.929688 " fill-opacity="1" fill-rule="nonzero"/><path fill="#02c1c2" d="M 243.179688 544.921875 C 242.757812 545.449219 242.214844 545.855469 241.613281 546.085938 C 234.9375 548.648438 228.410156 550.234375 222.011719 550.855469 C 207.554688 552.265625 193.804688 548.746094 180.730469 540.4375 C 180.101562 540.035156 179.605469 539.417969 179.324219 538.683594 C 177.789062 534.667969 177.65625 530.84375 178.851562 527.207031 C 179.519531 525.167969 181.59375 524.085938 183.441406 524.78125 C 197.703125 530.179688 212.289062 532.515625 227.222656 531.441406 C 232.515625 531.066406 237.855469 530.253906 243.246094 529.003906 C 245.480469 528.488281 247.53125 530.375 247.40625 532.835938 C 247.171875 537.515625 245.847656 541.589844 243.179688 544.921875 Z M 243.179688 544.921875 " fill-opacity="1" fill-rule="nonzero"/><path fill="#35cdce" d="M 243.179688 544.921875 C 242.757812 545.449219 242.214844 545.855469 241.613281 546.085938 C 234.9375 548.648438 228.410156 550.234375 222.011719 550.855469 C 228.847656 546.230469 231.207031 539.988281 227.222656 531.441406 C 232.515625 531.066406 237.855469 530.253906 243.246094 529.003906 C 245.480469 528.488281 247.53125 530.375 247.40625 532.835938 C 247.171875 537.515625 245.847656 541.589844 243.179688 544.921875 Z M 243.179688 544.921875 " fill-opacity="1" fill-rule="nonzero"/><path fill="#02c1c2" d="M 233.636719 569.996094 C 233.375 570.777344 233.046875 571.554688 232.644531 572.308594 C 231.515625 574.464844 229.546875 575.988281 227.324219 576.484375 C 224.226562 577.179688 221.105469 577.699219 217.957031 578.050781 C 209.359375 579.015625 200.578125 578.714844 191.605469 577.199219 C 188.5 576.675781 185.835938 574.582031 184.484375 571.53125 C 183.785156 569.964844 183.382812 568.492188 183.328125 567.140625 C 183.183594 564.007812 185.796875 561.457031 188.652344 561.878906 C 200.0625 563.5625 211.070312 564.445312 221.488281 564.148438 C 224.113281 564.078125 226.695312 563.925781 229.234375 563.699219 C 232.40625 563.40625 234.710938 566.714844 233.636719 569.996094 Z M 233.636719 569.996094 " fill-opacity="1" fill-rule="nonzero"/><path fill="#35cdce" d="M 233.636719 569.996094 C 233.375 570.777344 233.046875 571.550781 232.644531 572.308594 C 231.515625 574.464844 229.546875 575.984375 227.324219 576.484375 C 224.226562 577.179688 221.101562 577.699219 217.953125 578.050781 C 220.960938 574.285156 222.367188 569.761719 221.488281 564.148438 C 224.113281 564.078125 226.695312 563.925781 229.234375 563.699219 C 232.40625 563.40625 234.710938 566.714844 233.636719 569.996094 Z M 233.636719 569.996094 " fill-opacity="1" fill-rule="nonzero"/><path fill="#f0c808" d="M 209.757812 379.617188 C 209.757812 379.617188 210.40625 380.351562 210.40625 380.351562 C 210.40625 380.351562 231.253906 396.742188 231.253906 396.742188 C 232.554688 398.195312 232.179688 400.640625 230.300781 401.507812 C 227.660156 402.734375 225.246094 404.585938 223.292969 407.042969 C 216.726562 415.339844 218.0625 427.289062 226.316406 433.496094 C 234.277344 440.089844 246.199219 438.613281 252.75 430.292969 C 254.6875 427.832031 255.925781 425.050781 256.5 422.195312 C 256.910156 420.167969 259.199219 419.234375 260.910156 420.160156 C 260.910156 420.160156 281.707031 436.632812 281.707031 436.632812 C 281.707031 436.632812 282.570312 437.089844 282.570312 437.089844 C 283.867188 438.023438 285.695312 437.757812 286.722656 436.449219 C 286.722656 436.449219 304.90625 413.335938 304.90625 413.335938 C 306.199219 413.0625 307.582031 413.609375 308.179688 414.941406 C 310.832031 420.867188 316.71875 425.476562 325.667969 425.9375 C 326.585938 425.988281 327.539062 425.863281 328.417969 425.574219 C 345.820312 419.929688 347.808594 400.734375 336.804688 392.019531 C 334.472656 390.171875 331.820312 389.007812 329.074219 388.488281 C 327.59375 388.207031 326.761719 386.859375 326.828125 385.476562 C 326.828125 385.476562 345.117188 362.222656 345.117188 362.222656 C 346.179688 360.875 345.972656 358.960938 344.671875 357.945312 C 344.671875 357.945312 322.753906 340.703125 322.753906 340.703125 C 322.753906 340.703125 322.378906 340.488281 322.378906 340.488281 C 322.378906 340.488281 322.246094 340.382812 322.246094 340.382812 C 320.386719 338.910156 317.679688 340.210938 317.414062 342.625 C 316.605469 349.609375 311.882812 356.402344 302.847656 359.535156 C 301.125 359.90625 299.359375 360.039062 297.609375 359.921875 C 293.546875 359.402344 290.179688 357.972656 287.535156 355.941406 C 284.949219 353.835938 282.773438 350.894531 281.332031 347.0625 C 280.800781 345.394531 280.515625 343.652344 280.476562 341.882812 C 281.4375 332.363281 286.949219 326.191406 293.554688 323.796875 C 295.835938 322.964844 296.472656 320.035156 294.609375 318.570312 C 294.609375 318.570312 294.476562 318.46875 294.476562 318.46875 C 294.476562 318.46875 294.175781 318.144531 294.175781 318.144531 C 294.175781 318.144531 272.324219 300.835938 272.324219 300.835938 C 271.027344 299.804688 269.113281 300.054688 268.058594 301.390625 C 268.058594 301.390625 249.691406 324.589844 249.691406 324.589844 C 248.355469 324.972656 246.847656 324.46875 246.230469 323.097656 C 245.082031 320.542969 243.339844 318.230469 241 316.394531 C 229.964844 307.714844 211.769531 314.105469 210.3125 332.339844 C 210.238281 333.269531 210.335938 334.222656 210.601562 335.097656 C 213.125 343.699219 218.984375 348.359375 225.351562 349.566406 C 226.785156 349.835938 227.652344 351.058594 227.675781 352.371094 C 227.675781 352.371094 209.417969 375.425781 209.417969 375.425781 C 208.386719 376.726562 208.558594 378.566406 209.757812 379.617188 Z M 209.757812 379.617188 " fill-opacity="1" fill-rule="nonzero"/><path fill="#2a245e" d="M 189.285156 409.984375 C 183.675781 423.09375 184.621094 436.886719 189.925781 451.136719 C 192.425781 457.84375 198.644531 461.996094 204.992188 461.246094 C 214.316406 460.148438 222.921875 458.011719 230 453.695312 C 231.199219 452.964844 232.289062 452.027344 233.226562 450.929688 C 241.527344 441.238281 244.066406 429.402344 238.304688 414.472656 C 237.449219 412.261719 237.007812 409.882812 237.058594 407.507812 C 237.179688 401.628906 235.15625 397.742188 231.648438 395.226562 C 228.742188 393.140625 225.246094 392.46875 221.898438 393.003906 C 212.589844 394.488281 203.761719 398.164062 195.214844 403.101562 C 192.613281 404.605469 190.550781 407.03125 189.285156 409.984375 Z M 189.285156 409.984375 " fill-opacity="1" fill-rule="nonzero"/><path fill="#f0c808" d="M 197.246094 261.722656 C 198.179688 265.222656 197.050781 268.527344 194.570312 269.125 C 192.089844 269.726562 189.257812 267.441406 188.261719 263.902344 C 187.28125 260.398438 189.324219 258.535156 191.804688 257.933594 C 194.285156 257.332031 196.152344 257.855469 197.246094 261.722656 Z M 197.246094 261.722656 " fill-opacity="1" fill-rule="nonzero"/><path fill="#f0c808" d="M 253.027344 241.636719 C 254.121094 244.59375 253.617188 247.675781 251.484375 248.472656 C 249.355469 249.273438 246.558594 247.554688 245.3125 244.53125 C 243.957031 241.339844 245.679688 239.628906 247.8125 238.828125 C 249.941406 238.03125 251.84375 238.421875 253.027344 241.636719 Z M 253.027344 241.636719 " fill-opacity="1" fill-rule="nonzero"/><path stroke-linecap="round" transform="matrix(0.495139, 0, 0, 0.495139, 226.951444, 260.997547)" fill="none" stroke-linejoin="round" d="M -19.885282 -0.610403 C -4.296221 13.905727 18.377344 4.020558 19.884182 -13.903708 " stroke="#f0c808" stroke-width="7" stroke-opacity="1" stroke-miterlimit="4"/><g fill="#ffffff" fill-opacity="1"><g transform="translate(643.921029, 96.170347)"><g><path d="M 10.171875 -16.953125 L 13.5625 -20.34375 L 13.5625 -23.734375 L 10.171875 -27.125 L 3.390625 -27.125 L 3.390625 -16.953125 Z M 0 0 L 0 -30.515625 L 11.296875 -30.515625 L 16.953125 -24.875 L 16.953125 -19.21875 L 11.296875 -13.5625 L 3.390625 -13.5625 L 3.390625 0 Z M 0 0 "/></g></g></g><g fill="#ffffff" fill-opacity="1"><g transform="translate(670.140773, 96.170347)"><g><path d="M 10.171875 -16.953125 L 13.5625 -20.34375 L 13.5625 -23.734375 L 10.171875 -27.125 L 3.390625 -27.125 L 3.390625 -16.953125 Z M 0 0 L 0 -30.515625 L 11.296875 -30.515625 L 16.953125 -24.875 L 16.953125 -19.21875 L 11.296875 -13.5625 L 10.734375 -13.5625 L 16.953125 -1.125 L 14.6875 0 L 14.125 0 L 7.34375 -13.5625 L 3.390625 -13.5625 L 3.390625 0 Z M 0 0 "/></g></g></g><g fill="#ffffff" fill-opacity="1"><g transform="translate(696.360516, 96.170347)"><g><path d="M 3.390625 0 L 3.390625 -3.390625 L 6.78125 -3.390625 L 6.78125 -27.125 L 3.390625 -27.125 L 3.390625 -30.515625 L 13.5625 -30.515625 L 13.5625 -27.125 L 10.171875 -27.125 L 10.171875 -3.390625 L 13.5625 -3.390625 L 13.5625 0 Z M 3.390625 0 "/></g></g></g><g fill="#ffffff" fill-opacity="1"><g transform="translate(722.580262, 96.170347)"><g><path d="M 0 0 L 0 -30.515625 L 2.828125 -30.515625 L 8.484375 -19.21875 L 14.125 -30.515625 L 16.953125 -30.515625 L 16.953125 0 L 13.5625 0 L 13.5625 -22.609375 L 9.609375 -14.6875 L 7.34375 -14.6875 L 3.390625 -22.609375 L 3.390625 0 Z M 0 0 "/></g></g></g><g fill="#ffffff" fill-opacity="1"><g transform="translate(748.800003, 96.170347)"><g><path d="M 0 0 L 0 -30.515625 L 16.953125 -30.515625 L 16.953125 -27.125 L 3.390625 -27.125 L 3.390625 -16.953125 L 13.5625 -16.953125 L 13.5625 -13.5625 L 3.390625 -13.5625 L 3.390625 -3.390625 L 16.953125 -3.390625 L 16.953125 0 Z M 0 0 "/></g></g></g><g fill="#ffffff" fill-opacity="1"><g transform="translate(775.019744, 96.170347)"><g><path d="M 3.390625 0 L 3.390625 -3.390625 L 6.78125 -3.390625 L 6.78125 -27.125 L 3.390625 -27.125 L 3.390625 -30.515625 L 13.5625 -30.515625 L 13.5625 -27.125 L 10.171875 -27.125 L 10.171875 -3.390625 L 13.5625 -3.390625 L 13.5625 0 Z M 3.390625 0 "/></g></g></g><g fill="#ffffff" fill-opacity="1"><g transform="translate(801.239484, 96.170347)"><g><path d="M 10.171875 -16.953125 L 13.5625 -20.34375 L 13.5625 -23.734375 L 10.171875 -27.125 L 3.390625 -27.125 L 3.390625 -16.953125 Z M 0 0 L 0 -30.515625 L 11.296875 -30.515625 L 16.953125 -24.875 L 16.953125 -19.21875 L 11.296875 -13.5625 L 10.734375 -13.5625 L 16.953125 -1.125 L 14.6875 0 L 14.125 0 L 7.34375 -13.5625 L 3.390625 -13.5625 L 3.390625 0 Z M 0 0 "/></g></g></g><g fill="#ffffff" fill-opacity="1"><g transform="translate(827.459225, 96.170347)"><g><path d="M 13.5625 -13.5625 L 13.5625 -15.828125 L 8.484375 -26 L 3.390625 -15.828125 L 3.390625 -13.5625 Z M 0 0 L 0 -15.828125 L 7.34375 -30.515625 L 9.609375 -30.515625 L 16.953125 -15.828125 L 16.953125 0 L 13.5625 0 L 13.5625 -10.171875 L 3.390625 -10.171875 L 3.390625 0 Z M 0 0 "/></g></g></g><g fill="#ffffff" fill-opacity="1"><g transform="translate(853.678977, 96.170347)"><g><path d="M 0 0 L 0 -30.515625 L 2.828125 -30.515625 L 8.484375 -19.21875 L 14.125 -30.515625 L 16.953125 -30.515625 L 16.953125 0 L 13.5625 0 L 13.5625 -22.609375 L 9.609375 -14.6875 L 7.34375 -14.6875 L 3.390625 -22.609375 L 3.390625 0 Z M 0 0 "/></g></g></g><g fill="#ffffff" fill-opacity="1"><g transform="translate(879.898718, 96.170347)"><g><path d="M 0 0 L 0 -30.515625 L 16.953125 -30.515625 L 16.953125 -27.125 L 3.390625 -27.125 L 3.390625 -16.953125 L 13.5625 -16.953125 L 13.5625 -13.5625 L 3.390625 -13.5625 L 3.390625 -3.390625 L 16.953125 -3.390625 L 16.953125 0 Z M 0 0 "/></g></g></g><g fill="#ffffff" fill-opacity="1"><g transform="translate(906.118458, 96.170347)"><g><path d="M 0 0 L 0 -30.515625 L 2.828125 -30.515625 L 13.5625 -9.046875 L 13.5625 -30.515625 L 16.953125 -30.515625 L 16.953125 0 L 14.6875 0 L 3.390625 -22.609375 L 3.390625 0 Z M 0 0 "/></g></g></g><g fill="#ffffff" fill-opacity="1"><g transform="translate(932.338199, 96.170347)"><g><path d="M 6.78125 0 L 6.78125 -27.125 L 0 -27.125 L 0 -30.515625 L 16.953125 -30.515625 L 16.953125 -27.125 L 10.171875 -27.125 L 10.171875 0 Z M 6.78125 0 "/></g></g></g><g fill="#ffffff" fill-opacity="1"><g transform="translate(958.55794, 96.170347)"><g><path d="M 0 0 L 0 -30.515625 L 16.953125 -30.515625 L 16.953125 -27.125 L 3.390625 -27.125 L 3.390625 -16.953125 L 13.5625 -16.953125 L 13.5625 -13.5625 L 3.390625 -13.5625 L 3.390625 -3.390625 L 16.953125 -3.390625 L 16.953125 0 Z M 0 0 "/></g></g></g><g fill="#ffffff" fill-opacity="1"><g transform="translate(984.77768, 96.170347)"><g/></g></g><g fill="#ffffff" fill-opacity="1"><g transform="translate(1010.997421, 96.170347)"><g><path d="M 10.171875 -16.953125 L 13.5625 -20.34375 L 13.5625 -23.734375 L 10.171875 -27.125 L 3.390625 -27.125 L 3.390625 -16.953125 Z M 0 0 L 0 -30.515625 L 11.296875 -30.515625 L 16.953125 -24.875 L 16.953125 -19.21875 L 11.296875 -13.5625 L 3.390625 -13.5625 L 3.390625 0 Z M 0 0 "/></g></g></g><g fill="#ffffff" fill-opacity="1"><g transform="translate(1037.217184, 96.170347)"><g><path d="M 10.171875 -16.953125 L 13.5625 -20.34375 L 13.5625 -23.734375 L 10.171875 -27.125 L 3.390625 -27.125 L 3.390625 -16.953125 Z M 0 0 L 0 -30.515625 L 11.296875 -30.515625 L 16.953125 -24.875 L 16.953125 -19.21875 L 11.296875 -13.5625 L 10.734375 -13.5625 L 16.953125 -1.125 L 14.6875 0 L 14.125 0 L 7.34375 -13.5625 L 3.390625 -13.5625 L 3.390625 0 Z M 0 0 "/></g></g></g><g fill="#ffffff" fill-opacity="1"><g transform="translate(1063.436925, 96.170347)"><g><path d="M 0 0 L 0 -30.515625 L 16.953125 -30.515625 L 16.953125 -27.125 L 3.390625 -27.125 L 3.390625 -16.953125 L 13.5625 -16.953125 L 13.5625 -13.5625 L 3.390625 -13.5625 L 3.390625 -3.390625 L 16.953125 -3.390625 L 16.953125 0 Z M 0 0 "/></g></g></g><g fill="#ffffff" fill-opacity="1"><g transform="translate(1089.656666, 96.170347)"><g><path d="M 5.65625 0 L 0 -5.65625 L 0 -24.875 L 5.65625 -30.515625 L 11.296875 -30.515625 L 16.953125 -24.875 L 14.6875 -22.609375 L 10.171875 -27.125 L 6.78125 -27.125 L 3.390625 -23.734375 L 3.390625 -6.78125 L 6.78125 -3.390625 L 10.171875 -3.390625 L 14.6875 -7.90625 L 16.953125 -5.65625 L 11.296875 0 Z M 5.65625 0 "/></g></g></g><g fill="#ffffff" fill-opacity="1"><g transform="translate(1115.876406, 96.170347)"><g><path d="M 3.390625 0 L 3.390625 -3.390625 L 6.78125 -3.390625 L 6.78125 -27.125 L 3.390625 -27.125 L 3.390625 -30.515625 L 13.5625 -30.515625 L 13.5625 -27.125 L 10.171875 -27.125 L 10.171875 -3.390625 L 13.5625 -3.390625 L 13.5625 0 Z M 3.390625 0 "/></g></g></g><g fill="#ffffff" fill-opacity="1"><g transform="translate(1142.096147, 96.170347)"><g><path d="M 5.65625 0 L 0 -5.65625 L 2.265625 -7.90625 L 6.78125 -3.390625 L 10.171875 -3.390625 L 13.5625 -6.78125 L 13.5625 -10.171875 L 10.171875 -13.5625 L 5.65625 -13.5625 L 0 -19.21875 L 0 -24.875 L 5.65625 -30.515625 L 11.296875 -30.515625 L 16.953125 -24.875 L 14.6875 -22.609375 L 10.171875 -27.125 L 6.78125 -27.125 L 3.390625 -23.734375 L 3.390625 -20.34375 L 6.78125 -16.953125 L 11.296875 -16.953125 L 16.953125 -11.296875 L 16.953125 -5.65625 L 11.296875 0 Z M 5.65625 0 "/></g></g></g><g fill="#ffffff" fill-opacity="1"><g transform="translate(1168.315888, 96.170347)"><g><path d="M 13.5625 -13.5625 L 13.5625 -15.828125 L 8.484375 -26 L 3.390625 -15.828125 L 3.390625 -13.5625 Z M 0 0 L 0 -15.828125 L 7.34375 -30.515625 L 9.609375 -30.515625 L 16.953125 -15.828125 L 16.953125 0 L 13.5625 0 L 13.5625 -10.171875 L 3.390625 -10.171875 L 3.390625 0 Z M 0 0 "/></g></g></g><g fill="#ffffff" fill-opacity="1"><g transform="translate(1194.535628, 96.170347)"><g><path d="M 0 0 L 0 -30.515625 L 2.828125 -30.515625 L 8.484375 -19.21875 L 14.125 -30.515625 L 16.953125 -30.515625 L 16.953125 0 L 13.5625 0 L 13.5625 -22.609375 L 9.609375 -14.6875 L 7.34375 -14.6875 L 3.390625 -22.609375 L 3.390625 0 Z M 0 0 "/></g></g></g><g fill="#ffffff" fill-opacity="1"><g transform="translate(1220.755369, 96.170347)"><g><path d="M 10.171875 -3.390625 L 13.5625 -6.78125 L 13.5625 -23.734375 L 10.171875 -27.125 L 6.78125 -27.125 L 3.390625 -23.734375 L 3.390625 -6.78125 L 6.78125 -3.390625 Z M 5.65625 0 L 0 -5.65625 L 0 -24.875 L 5.65625 -30.515625 L 11.296875 -30.515625 L 16.953125 -24.875 L 16.953125 -5.65625 L 11.296875 0 Z M 5.65625 0 "/></g></g></g><g fill="#ffffff" fill-opacity="1"><g transform="translate(1246.97511, 96.170347)"><g><path d="M 5.65625 0 L 0 -5.65625 L 2.265625 -7.90625 L 6.78125 -3.390625 L 10.171875 -3.390625 L 13.5625 -6.78125 L 13.5625 -10.171875 L 10.171875 -13.5625 L 5.65625 -13.5625 L 0 -19.21875 L 0 -24.875 L 5.65625 -30.515625 L 11.296875 -30.515625 L 16.953125 -24.875 L 14.6875 -22.609375 L 10.171875 -27.125 L 6.78125 -27.125 L 3.390625 -23.734375 L 3.390625 -20.34375 L 6.78125 -16.953125 L 11.296875 -16.953125 L 16.953125 -11.296875 L 16.953125 -5.65625 L 11.296875 0 Z M 5.65625 0 "/></g></g></g><g fill="#ffffff" fill-opacity="1"><g transform="translate(1273.19485, 96.170347)"><g/></g></g><g fill="#ffffff" fill-opacity="1"><g transform="translate(1299.414591, 96.170347)"><g><path d="M 10.171875 -3.390625 L 13.5625 -6.78125 L 13.5625 -23.734375 L 10.171875 -27.125 L 3.390625 -27.125 L 3.390625 -3.390625 Z M 0 0 L 0 -30.515625 L 11.296875 -30.515625 L 16.953125 -24.875 L 16.953125 -5.65625 L 11.296875 0 Z M 0 0 "/></g></g></g><g fill="#ffffff" fill-opacity="1"><g transform="translate(1325.634332, 96.170347)"><g><path d="M 0 0 L 0 -30.515625 L 16.953125 -30.515625 L 16.953125 -27.125 L 3.390625 -27.125 L 3.390625 -16.953125 L 13.5625 -16.953125 L 13.5625 -13.5625 L 3.390625 -13.5625 L 3.390625 -3.390625 L 16.953125 -3.390625 L 16.953125 0 Z M 0 0 "/></g></g></g><g fill="#ffffff" fill-opacity="1"><g transform="translate(657.03431, 197.420342)"><g><path d="M 5.65625 0 L 0 -5.65625 L 0 -30.515625 L 3.390625 -30.515625 L 3.390625 -6.78125 L 6.78125 -3.390625 L 10.171875 -3.390625 L 13.5625 -6.78125 L 13.5625 -30.515625 L 16.953125 -30.515625 L 16.953125 -5.65625 L 11.296875 0 Z M 5.65625 0 "/></g></g></g><g fill="#ffffff" fill-opacity="1"><g transform="translate(683.254053, 197.420342)"><g><path d="M 0 0 L 0 -30.515625 L 2.828125 -30.515625 L 8.484375 -19.21875 L 14.125 -30.515625 L 16.953125 -30.515625 L 16.953125 0 L 13.5625 0 L 13.5625 -22.609375 L 9.609375 -14.6875 L 7.34375 -14.6875 L 3.390625 -22.609375 L 3.390625 0 Z M 0 0 "/></g></g></g><g fill="#ffffff" fill-opacity="1"><g transform="translate(709.473797, 197.420342)"><g/></g></g><g fill="#ffffff" fill-opacity="1"><g transform="translate(735.693543, 197.420342)"><g><path d="M 5.65625 0 L 0 -5.65625 L 2.265625 -7.90625 L 6.78125 -3.390625 L 10.171875 -3.390625 L 13.5625 -6.78125 L 13.5625 -10.171875 L 10.171875 -13.5625 L 5.65625 -13.5625 L 0 -19.21875 L 0 -24.875 L 5.65625 -30.515625 L 11.296875 -30.515625 L 16.953125 -24.875 L 14.6875 -22.609375 L 10.171875 -27.125 L 6.78125 -27.125 L 3.390625 -23.734375 L 3.390625 -20.34375 L 6.78125 -16.953125 L 11.296875 -16.953125 L 16.953125 -11.296875 L 16.953125 -5.65625 L 11.296875 0 Z M 5.65625 0 "/></g></g></g><g fill="#ffffff" fill-opacity="1"><g transform="translate(761.913284, 197.420342)"><g><path d="M 5.65625 0 L 0 -5.65625 L 0 -24.875 L 5.65625 -30.515625 L 11.296875 -30.515625 L 16.953125 -24.875 L 14.6875 -22.609375 L 10.171875 -27.125 L 6.78125 -27.125 L 3.390625 -23.734375 L 3.390625 -6.78125 L 6.78125 -3.390625 L 10.171875 -3.390625 L 14.6875 -7.90625 L 16.953125 -5.65625 L 11.296875 0 Z M 5.65625 0 "/></g></g></g><g fill="#ffffff" fill-opacity="1"><g transform="translate(788.133024, 197.420342)"><g><path d="M 10.171875 -16.953125 L 13.5625 -20.34375 L 13.5625 -23.734375 L 10.171875 -27.125 L 3.390625 -27.125 L 3.390625 -16.953125 Z M 0 0 L 0 -30.515625 L 11.296875 -30.515625 L 16.953125 -24.875 L 16.953125 -19.21875 L 11.296875 -13.5625 L 10.734375 -13.5625 L 16.953125 -1.125 L 14.6875 0 L 14.125 0 L 7.34375 -13.5625 L 3.390625 -13.5625 L 3.390625 0 Z M 0 0 "/></g></g></g><g fill="#ffffff" fill-opacity="1"><g transform="translate(814.352765, 197.420342)"><g><path d="M 5.65625 0 L 0 -5.65625 L 0 -30.515625 L 3.390625 -30.515625 L 3.390625 -6.78125 L 6.78125 -3.390625 L 10.171875 -3.390625 L 13.5625 -6.78125 L 13.5625 -30.515625 L 16.953125 -30.515625 L 16.953125 -5.65625 L 11.296875 0 Z M 5.65625 0 "/></g></g></g><g fill="#ffffff" fill-opacity="1"><g transform="translate(840.572506, 197.420342)"><g><path d="M 0 0 L 0 -30.515625 L 2.828125 -30.515625 L 8.484375 -19.21875 L 14.125 -30.515625 L 16.953125 -30.515625 L 16.953125 0 L 13.5625 0 L 13.5625 -22.609375 L 9.609375 -14.6875 L 7.34375 -14.6875 L 3.390625 -22.609375 L 3.390625 0 Z M 0 0 "/></g></g></g><g fill="#ffffff" fill-opacity="1"><g transform="translate(866.792258, 197.420342)"><g/></g></g><g fill="#ffffff" fill-opacity="1"><g transform="translate(893.011998, 197.420342)"><g><path d="M 6.78125 0 L 6.78125 -27.125 L 0 -27.125 L 0 -30.515625 L 16.953125 -30.515625 L 16.953125 -27.125 L 10.171875 -27.125 L 10.171875 0 Z M 6.78125 0 "/></g></g></g><g fill="#ffffff" fill-opacity="1"><g transform="translate(919.231739, 197.420342)"><g><path d="M 0 0 L 0 -30.515625 L 16.953125 -30.515625 L 16.953125 -27.125 L 3.390625 -27.125 L 3.390625 -16.953125 L 13.5625 -16.953125 L 13.5625 -13.5625 L 3.390625 -13.5625 L 3.390625 -3.390625 L 16.953125 -3.390625 L 16.953125 0 Z M 0 0 "/></g></g></g><g fill="#ffffff" fill-opacity="1"><g transform="translate(945.45148, 197.420342)"><g><path d="M 13.5625 -13.5625 L 13.5625 -15.828125 L 8.484375 -26 L 3.390625 -15.828125 L 3.390625 -13.5625 Z M 0 0 L 0 -15.828125 L 7.34375 -30.515625 L 9.609375 -30.515625 L 16.953125 -15.828125 L 16.953125 0 L 13.5625 0 L 13.5625 -10.171875 L 3.390625 -10.171875 L 3.390625 0 Z M 0 0 "/></g></g></g><g fill="#ffffff" fill-opacity="1"><g transform="translate(971.67122, 197.420342)"><g><path d="M 0 0 L 0 -30.515625 L 2.828125 -30.515625 L 8.484375 -19.21875 L 14.125 -30.515625 L 16.953125 -30.515625 L 16.953125 0 L 13.5625 0 L 13.5625 -22.609375 L 9.609375 -14.6875 L 7.34375 -14.6875 L 3.390625 -22.609375 L 3.390625 0 Z M 0 0 "/></g></g></g><g fill="#ffffff" fill-opacity="1"><g transform="translate(997.890961, 197.420342)"><g/></g></g><g fill="#ffffff" fill-opacity="1"><g transform="translate(1024.110702, 197.420342)"><g><path d="M 5.65625 0 L 0 -5.65625 L 0 -24.875 L 5.65625 -30.515625 L 11.296875 -30.515625 L 16.953125 -24.875 L 14.6875 -22.609375 L 10.171875 -27.125 L 6.78125 -27.125 L 3.390625 -23.734375 L 3.390625 -6.78125 L 6.78125 -3.390625 L 10.171875 -3.390625 L 14.6875 -7.90625 L 16.953125 -5.65625 L 11.296875 0 Z M 5.65625 0 "/></g></g></g><g fill="#ffffff" fill-opacity="1"><g transform="translate(1050.330465, 197.420342)"><g><path d="M 10.171875 -3.390625 L 13.5625 -6.78125 L 13.5625 -23.734375 L 10.171875 -27.125 L 6.78125 -27.125 L 3.390625 -23.734375 L 3.390625 -6.78125 L 6.78125 -3.390625 Z M 5.65625 0 L 0 -5.65625 L 0 -24.875 L 5.65625 -30.515625 L 11.296875 -30.515625 L 16.953125 -24.875 L 16.953125 -5.65625 L 11.296875 0 Z M 5.65625 0 "/></g></g></g><g fill="#ffffff" fill-opacity="1"><g transform="translate(1076.550206, 197.420342)"><g><path d="M 0 0 L 0 -30.515625 L 2.828125 -30.515625 L 8.484375 -19.21875 L 14.125 -30.515625 L 16.953125 -30.515625 L 16.953125 0 L 13.5625 0 L 13.5625 -22.609375 L 9.609375 -14.6875 L 7.34375 -14.6875 L 3.390625 -22.609375 L 3.390625 0 Z M 0 0 "/></g></g></g><g fill="#ffffff" fill-opacity="1"><g transform="translate(1102.769946, 197.420342)"><g><path d="M 10.171875 -16.953125 L 13.5625 -20.34375 L 13.5625 -23.734375 L 10.171875 -27.125 L 3.390625 -27.125 L 3.390625 -16.953125 Z M 0 0 L 0 -30.515625 L 11.296875 -30.515625 L 16.953125 -24.875 L 16.953125 -19.21875 L 11.296875 -13.5625 L 3.390625 -13.5625 L 3.390625 0 Z M 0 0 "/></g></g></g><g fill="#ffffff" fill-opacity="1"><g transform="translate(1128.989687, 197.420342)"><g><path d="M 10.171875 -3.390625 L 13.5625 -6.78125 L 13.5625 -23.734375 L 10.171875 -27.125 L 6.78125 -27.125 L 3.390625 -23.734375 L 3.390625 -6.78125 L 6.78125 -3.390625 Z M 5.65625 0 L 0 -5.65625 L 0 -24.875 L 5.65625 -30.515625 L 11.296875 -30.515625 L 16.953125 -24.875 L 16.953125 -5.65625 L 11.296875 0 Z M 5.65625 0 "/></g></g></g><g fill="#ffffff" fill-opacity="1"><g transform="translate(1155.209428, 197.420342)"><g><path d="M 5.65625 0 L 0 -5.65625 L 2.265625 -7.90625 L 6.78125 -3.390625 L 10.171875 -3.390625 L 13.5625 -6.78125 L 13.5625 -10.171875 L 10.171875 -13.5625 L 5.65625 -13.5625 L 0 -19.21875 L 0 -24.875 L 5.65625 -30.515625 L 11.296875 -30.515625 L 16.953125 -24.875 L 14.6875 -22.609375 L 10.171875 -27.125 L 6.78125 -27.125 L 3.390625 -23.734375 L 3.390625 -20.34375 L 6.78125 -16.953125 L 11.296875 -16.953125 L 16.953125 -11.296875 L 16.953125 -5.65625 L 11.296875 0 Z M 5.65625 0 "/></g></g></g><g fill="#ffffff" fill-opacity="1"><g transform="translate(1181.429168, 197.420342)"><g><path d="M 6.78125 0 L 6.78125 -27.125 L 0 -27.125 L 0 -30.515625 L 16.953125 -30.515625 L 16.953125 -27.125 L 10.171875 -27.125 L 10.171875 0 Z M 6.78125 0 "/></g></g></g><g fill="#ffffff" fill-opacity="1"><g transform="translate(1207.648909, 197.420342)"><g><path d="M 10.171875 -3.390625 L 13.5625 -6.78125 L 13.5625 -23.734375 L 10.171875 -27.125 L 6.78125 -27.125 L 3.390625 -23.734375 L 3.390625 -6.78125 L 6.78125 -3.390625 Z M 5.65625 0 L 0 -5.65625 L 0 -24.875 L 5.65625 -30.515625 L 11.296875 -30.515625 L 16.953125 -24.875 L 16.953125 -5.65625 L 11.296875 0 Z M 5.65625 0 "/></g></g></g><g fill="#ffffff" fill-opacity="1"><g transform="translate(1233.86865, 197.420342)"><g/></g></g><g fill="#ffffff" fill-opacity="1"><g transform="translate(1260.08839, 197.420342)"><g><path d="M 10.171875 -16.953125 L 13.5625 -20.34375 L 13.5625 -23.734375 L 10.171875 -27.125 L 3.390625 -27.125 L 3.390625 -16.953125 Z M 0 0 L 0 -30.515625 L 11.296875 -30.515625 L 16.953125 -24.875 L 16.953125 -19.21875 L 11.296875 -13.5625 L 3.390625 -13.5625 L 3.390625 0 Z M 0 0 "/></g></g></g><g fill="#ffffff" fill-opacity="1"><g transform="translate(1286.308131, 197.420342)"><g><path d="M 10.171875 -3.390625 L 13.5625 -6.78125 L 13.5625 -23.734375 L 10.171875 -27.125 L 6.78125 -27.125 L 3.390625 -23.734375 L 3.390625 -6.78125 L 6.78125 -3.390625 Z M 5.65625 0 L 0 -5.65625 L 0 -24.875 L 5.65625 -30.515625 L 11.296875 -30.515625 L 16.953125 -24.875 L 16.953125 -5.65625 L 11.296875 0 Z M 5.65625 0 "/></g></g></g><g fill="#ffffff" fill-opacity="1"><g transform="translate(1312.527872, 197.420342)"><g><path d="M 10.171875 -16.953125 L 13.5625 -20.34375 L 13.5625 -23.734375 L 10.171875 -27.125 L 3.390625 -27.125 L 3.390625 -16.953125 Z M 0 0 L 0 -30.515625 L 11.296875 -30.515625 L 16.953125 -24.875 L 16.953125 -19.21875 L 11.296875 -13.5625 L 10.734375 -13.5625 L 16.953125 -1.125 L 14.6875 0 L 14.125 0 L 7.34375 -13.5625 L 3.390625 -13.5625 L 3.390625 0 Z M 0 0 "/></g></g></g><g fill="#ffffff" fill-opacity="1"><g transform="translate(657.03431, 298.670337)"><g><path d="M 6.78125 0 L 6.78125 -27.125 L 0 -27.125 L 0 -30.515625 L 16.953125 -30.515625 L 16.953125 -27.125 L 10.171875 -27.125 L 10.171875 0 Z M 6.78125 0 "/></g></g></g><g fill="#ffffff" fill-opacity="1"><g transform="translate(683.254053, 298.670337)"><g><path d="M 10.171875 -16.953125 L 13.5625 -20.34375 L 13.5625 -23.734375 L 10.171875 -27.125 L 3.390625 -27.125 L 3.390625 -16.953125 Z M 0 0 L 0 -30.515625 L 11.296875 -30.515625 L 16.953125 -24.875 L 16.953125 -19.21875 L 11.296875 -13.5625 L 10.734375 -13.5625 L 16.953125 -1.125 L 14.6875 0 L 14.125 0 L 7.34375 -13.5625 L 3.390625 -13.5625 L 3.390625 0 Z M 0 0 "/></g></g></g><g fill="#ffffff" fill-opacity="1"><g transform="translate(709.473797, 298.670337)"><g><path d="M 0 0 L 0 -30.515625 L 16.953125 -30.515625 L 16.953125 -27.125 L 3.390625 -27.125 L 3.390625 -16.953125 L 13.5625 -16.953125 L 13.5625 -13.5625 L 3.390625 -13.5625 L 3.390625 -3.390625 L 16.953125 -3.390625 L 16.953125 0 Z M 5.65625 -32.78125 L 3.390625 -35.046875 L 7.90625 -39.5625 L 9.046875 -39.5625 L 13.5625 -35.046875 L 11.296875 -32.78125 L 9.046875 -35.046875 L 8.484375 -35.609375 Z M 5.65625 -32.78125 "/></g></g></g><g fill="#ffffff" fill-opacity="1"><g transform="translate(735.693543, 298.670337)"><g><path d="M 5.65625 0 L 0 -5.65625 L 2.265625 -7.90625 L 6.78125 -3.390625 L 10.171875 -3.390625 L 13.5625 -6.78125 L 13.5625 -10.171875 L 10.171875 -13.5625 L 5.65625 -13.5625 L 0 -19.21875 L 0 -24.875 L 5.65625 -30.515625 L 11.296875 -30.515625 L 16.953125 -24.875 L 14.6875 -22.609375 L 10.171875 -27.125 L 6.78125 -27.125 L 3.390625 -23.734375 L 3.390625 -20.34375 L 6.78125 -16.953125 L 11.296875 -16.953125 L 16.953125 -11.296875 L 16.953125 -5.65625 L 11.296875 0 Z M 5.65625 0 "/></g></g></g><g fill="#ffffff" fill-opacity="1"><g transform="translate(761.913284, 298.670337)"><g/></g></g><g fill="#ffffff" fill-opacity="1"><g transform="translate(788.133024, 298.670337)"><g><path d="M 10.171875 -16.953125 L 13.5625 -20.34375 L 13.5625 -23.734375 L 10.171875 -27.125 L 3.390625 -27.125 L 3.390625 -16.953125 Z M 0 0 L 0 -30.515625 L 11.296875 -30.515625 L 16.953125 -24.875 L 16.953125 -19.21875 L 11.296875 -13.5625 L 3.390625 -13.5625 L 3.390625 0 Z M 0 0 "/></g></g></g><g fill="#ffffff" fill-opacity="1"><g transform="translate(814.352765, 298.670337)"><g><path d="M 13.5625 -13.5625 L 13.5625 -15.828125 L 8.484375 -26 L 3.390625 -15.828125 L 3.390625 -13.5625 Z M 0 0 L 0 -15.828125 L 7.34375 -30.515625 L 9.609375 -30.515625 L 16.953125 -15.828125 L 16.953125 0 L 13.5625 0 L 13.5625 -10.171875 L 3.390625 -10.171875 L 3.390625 0 Z M 0 0 "/></g></g></g><g fill="#ffffff" fill-opacity="1"><g transform="translate(840.572506, 298.670337)"><g><path d="M 10.171875 -16.953125 L 13.5625 -20.34375 L 13.5625 -23.734375 L 10.171875 -27.125 L 3.390625 -27.125 L 3.390625 -16.953125 Z M 0 0 L 0 -30.515625 L 11.296875 -30.515625 L 16.953125 -24.875 L 16.953125 -19.21875 L 11.296875 -13.5625 L 3.390625 -13.5625 L 3.390625 0 Z M 0 0 "/></g></g></g><g fill="#ffffff" fill-opacity="1"><g transform="translate(866.792258, 298.670337)"><g><path d="M 0 0 L 0 -30.515625 L 16.953125 -30.515625 L 16.953125 -27.125 L 3.390625 -27.125 L 3.390625 -16.953125 L 13.5625 -16.953125 L 13.5625 -13.5625 L 3.390625 -13.5625 L 3.390625 -3.390625 L 16.953125 -3.390625 L 16.953125 0 Z M 7.90625 -32.78125 L 5.65625 -35.046875 L 10.171875 -39.5625 L 12.4375 -37.296875 Z M 7.90625 -32.78125 "/></g></g></g><g fill="#ffffff" fill-opacity="1"><g transform="translate(893.011998, 298.670337)"><g><path d="M 3.390625 0 L 3.390625 -3.390625 L 6.78125 -3.390625 L 6.78125 -27.125 L 3.390625 -27.125 L 3.390625 -30.515625 L 13.5625 -30.515625 L 13.5625 -27.125 L 10.171875 -27.125 L 10.171875 -3.390625 L 13.5625 -3.390625 L 13.5625 0 Z M 3.390625 0 "/></g></g></g><g fill="#ffffff" fill-opacity="1"><g transform="translate(919.231739, 298.670337)"><g><path d="M 5.65625 0 L 0 -5.65625 L 2.265625 -7.90625 L 6.78125 -3.390625 L 10.171875 -3.390625 L 13.5625 -6.78125 L 13.5625 -10.171875 L 10.171875 -13.5625 L 5.65625 -13.5625 L 0 -19.21875 L 0 -24.875 L 5.65625 -30.515625 L 11.296875 -30.515625 L 16.953125 -24.875 L 14.6875 -22.609375 L 10.171875 -27.125 L 6.78125 -27.125 L 3.390625 -23.734375 L 3.390625 -20.34375 L 6.78125 -16.953125 L 11.296875 -16.953125 L 16.953125 -11.296875 L 16.953125 -5.65625 L 11.296875 0 Z M 5.65625 0 "/></g></g></g><g fill="#ffffff" fill-opacity="1"><g transform="translate(945.45148, 298.670337)"><g><path d="M 5.65625 0 L 5.65625 -5.65625 L 11.296875 -5.65625 L 11.296875 0 Z M 5.65625 -18.09375 L 5.65625 -23.734375 L 11.296875 -23.734375 L 11.296875 -18.09375 Z M 5.65625 -18.09375 "/></g></g></g><g fill="#ffffff" fill-opacity="1"><g transform="translate(971.67122, 298.670337)"><g/></g></g><g fill="#f0c808" fill-opacity="1"><g transform="translate(997.885855, 298.670337)"><g><path d="M 10.171875 -16.953125 L 13.5625 -20.34375 L 13.5625 -23.734375 L 10.171875 -27.125 L 3.390625 -27.125 L 3.390625 -16.953125 Z M 0 0 L 0 -30.515625 L 11.296875 -30.515625 L 16.953125 -24.875 L 16.953125 -19.21875 L 11.296875 -13.5625 L 3.390625 -13.5625 L 3.390625 0 Z M 0 0 "/></g></g></g><g fill="#f0c808" fill-opacity="1"><g transform="translate(1024.105599, 298.670337)"><g><path d="M 10.171875 -16.953125 L 13.5625 -20.34375 L 13.5625 -23.734375 L 10.171875 -27.125 L 3.390625 -27.125 L 3.390625 -16.953125 Z M 0 0 L 0 -30.515625 L 11.296875 -30.515625 L 16.953125 -24.875 L 16.953125 -19.21875 L 11.296875 -13.5625 L 10.734375 -13.5625 L 16.953125 -1.125 L 14.6875 0 L 14.125 0 L 7.34375 -13.5625 L 3.390625 -13.5625 L 3.390625 0 Z M 0 0 "/></g></g></g><g fill="#f0c808" fill-opacity="1"><g transform="translate(1050.325342, 298.670337)"><g><path d="M 10.171875 -3.390625 L 13.5625 -6.78125 L 13.5625 -23.734375 L 10.171875 -27.125 L 6.78125 -27.125 L 3.390625 -23.734375 L 3.390625 -6.78125 L 6.78125 -3.390625 Z M 5.65625 0 L 0 -5.65625 L 0 -24.875 L 5.65625 -30.515625 L 11.296875 -30.515625 L 16.953125 -24.875 L 16.953125 -5.65625 L 11.296875 0 Z M 5.65625 0 "/></g></g></g><g fill="#f0c808" fill-opacity="1"><g transform="translate(1076.545088, 298.670337)"><g><path d="M 10.171875 -3.390625 L 13.5625 -6.78125 L 13.5625 -23.734375 L 10.171875 -27.125 L 3.390625 -27.125 L 3.390625 -3.390625 Z M 0 0 L 0 -30.515625 L 11.296875 -30.515625 L 16.953125 -24.875 L 16.953125 -5.65625 L 11.296875 0 Z M 0 0 "/></g></g></g><g fill="#f0c808" fill-opacity="1"><g transform="translate(1102.764829, 298.670337)"><g><path d="M 5.65625 0 L 0 -5.65625 L 0 -30.515625 L 3.390625 -30.515625 L 3.390625 -6.78125 L 6.78125 -3.390625 L 10.171875 -3.390625 L 13.5625 -6.78125 L 13.5625 -30.515625 L 16.953125 -30.515625 L 16.953125 -5.65625 L 11.296875 0 Z M 5.65625 0 "/></g></g></g><g fill="#f0c808" fill-opacity="1"><g transform="translate(1128.98457, 298.670337)"><g><path d="M 5.65625 0 L 0 -5.65625 L 0 -24.875 L 5.65625 -30.515625 L 11.296875 -30.515625 L 16.953125 -24.875 L 14.6875 -22.609375 L 10.171875 -27.125 L 6.78125 -27.125 L 3.390625 -23.734375 L 3.390625 -6.78125 L 6.78125 -3.390625 L 10.171875 -3.390625 L 14.6875 -7.90625 L 16.953125 -5.65625 L 11.296875 0 Z M 5.65625 0 "/></g></g></g><g fill="#f0c808" fill-opacity="1"><g transform="translate(1155.20431, 298.670337)"><g><path d="M 6.78125 0 L 6.78125 -27.125 L 0 -27.125 L 0 -30.515625 L 16.953125 -30.515625 L 16.953125 -27.125 L 10.171875 -27.125 L 10.171875 0 Z M 6.78125 0 "/></g></g></g><g fill="#f0c808" fill-opacity="1"><g transform="translate(1181.424051, 298.670337)"><g/></g></g><g fill="#f0c808" fill-opacity="1"><g transform="translate(1207.643803, 298.670337)"><g><path d="M 10.171875 -3.390625 L 13.5625 -6.78125 L 13.5625 -23.734375 L 10.171875 -27.125 L 6.78125 -27.125 L 3.390625 -23.734375 L 3.390625 -6.78125 L 6.78125 -3.390625 Z M 5.65625 0 L 0 -5.65625 L 0 -24.875 L 5.65625 -30.515625 L 11.296875 -30.515625 L 16.953125 -24.875 L 16.953125 -5.65625 L 11.296875 0 Z M 5.65625 0 "/></g></g></g><g fill="#f0c808" fill-opacity="1"><g transform="translate(1233.863544, 298.670337)"><g><path d="M 0 0 L 0 -30.515625 L 3.390625 -30.515625 L 3.390625 -7.90625 L 7.34375 -15.828125 L 9.609375 -15.828125 L 13.5625 -7.90625 L 13.5625 -30.515625 L 16.953125 -30.515625 L 16.953125 0 L 14.125 0 L 8.484375 -11.296875 L 2.828125 0 Z M 0 0 "/></g></g></g><g fill="#f0c808" fill-opacity="1"><g transform="translate(1260.083284, 298.670337)"><g><path d="M 0 0 L 0 -30.515625 L 2.828125 -30.515625 L 13.5625 -9.046875 L 13.5625 -30.515625 L 16.953125 -30.515625 L 16.953125 0 L 14.6875 0 L 3.390625 -22.609375 L 3.390625 0 Z M 0 0 "/></g></g></g><g fill="#f0c808" fill-opacity="1"><g transform="translate(1286.303025, 298.670337)"><g><path d="M 0 0 L 0 -30.515625 L 16.953125 -30.515625 L 16.953125 -27.125 L 3.390625 -27.125 L 3.390625 -16.953125 L 13.5625 -16.953125 L 13.5625 -13.5625 L 3.390625 -13.5625 L 3.390625 -3.390625 L 16.953125 -3.390625 L 16.953125 0 Z M 0 0 "/></g></g></g><g fill="#f0c808" fill-opacity="1"><g transform="translate(1312.522766, 298.670337)"><g><path d="M 10.171875 -16.953125 L 13.5625 -20.34375 L 13.5625 -23.734375 L 10.171875 -27.125 L 3.390625 -27.125 L 3.390625 -16.953125 Z M 0 0 L 0 -30.515625 L 11.296875 -30.515625 L 16.953125 -24.875 L 16.953125 -19.21875 L 11.296875 -13.5625 L 10.734375 -13.5625 L 16.953125 -1.125 L 14.6875 0 L 14.125 0 L 7.34375 -13.5625 L 3.390625 -13.5625 L 3.390625 0 Z M 0 0 "/></g></g></g><g fill="#f0c808" fill-opacity="1"><g transform="translate(709.475713, 399.920332)"><g><path d="M 11.296875 6.78125 L 4.515625 0 L 4.515625 -28.265625 L 11.296875 -35.046875 L 13.5625 -32.78125 L 7.90625 -27.125 L 7.90625 -1.125 L 13.5625 4.515625 Z M 11.296875 6.78125 "/></g></g></g><g fill="#f0c808" fill-opacity="1"><g transform="translate(735.695457, 399.920332)"><g><path d="M 10.171875 -16.953125 L 13.5625 -20.34375 L 13.5625 -23.734375 L 10.171875 -27.125 L 3.390625 -27.125 L 3.390625 -16.953125 Z M 0 0 L 0 -30.515625 L 11.296875 -30.515625 L 16.953125 -24.875 L 16.953125 -19.21875 L 11.296875 -13.5625 L 3.390625 -13.5625 L 3.390625 0 Z M 0 0 "/></g></g></g><g fill="#f0c808" fill-opacity="1"><g transform="translate(761.915201, 399.920332)"><g><path d="M 5.65625 0 L 5.65625 -5.65625 L 11.296875 -5.65625 L 11.296875 0 Z M 5.65625 0 "/></g></g></g><g fill="#f0c808" fill-opacity="1"><g transform="translate(788.134947, 399.920332)"><g><path d="M 10.171875 -3.390625 L 13.5625 -6.78125 L 13.5625 -23.734375 L 10.171875 -27.125 L 6.78125 -27.125 L 3.390625 -23.734375 L 3.390625 -6.78125 L 6.78125 -3.390625 Z M 5.65625 0 L 0 -5.65625 L 0 -24.875 L 5.65625 -30.515625 L 11.296875 -30.515625 L 16.953125 -24.875 L 16.953125 -5.65625 L 11.296875 0 Z M 5.65625 0 "/></g></g></g><g fill="#f0c808" fill-opacity="1"><g transform="translate(814.354687, 399.920332)"><g><path d="M 5.65625 0 L 5.65625 -5.65625 L 11.296875 -5.65625 L 11.296875 0 Z M 5.65625 0 "/></g></g></g><g fill="#f0c808" fill-opacity="1"><g transform="translate(840.574428, 399.920332)"><g><path d="M 5.65625 6.78125 L 3.390625 4.515625 L 9.046875 -1.125 L 9.046875 -27.125 L 3.390625 -32.78125 L 5.65625 -35.046875 L 12.4375 -28.265625 L 12.4375 0 Z M 5.65625 6.78125 "/></g></g></g><g fill="#ffffff" fill-opacity="1"><g transform="translate(866.788209, 399.920332)"><g><path d="M 6.78125 6.78125 L 4.515625 4.515625 L 7.90625 1.125 L 7.90625 0 L 5.65625 0 L 5.65625 -5.65625 L 11.296875 -5.65625 L 11.296875 2.265625 Z M 6.78125 6.78125 "/></g></g></g><g fill="#ffffff" fill-opacity="1"><g transform="translate(893.007953, 399.920332)"><g/></g></g><g fill="#00ffff" fill-opacity="1"><g transform="translate(919.217894, 399.920332)"><g><path d="M 5.65625 0 L 0 -5.65625 L 2.265625 -7.90625 L 6.78125 -3.390625 L 10.171875 -3.390625 L 13.5625 -6.78125 L 13.5625 -10.171875 L 10.171875 -13.5625 L 5.65625 -13.5625 L 0 -19.21875 L 0 -24.875 L 5.65625 -30.515625 L 11.296875 -30.515625 L 16.953125 -24.875 L 14.6875 -22.609375 L 10.171875 -27.125 L 6.78125 -27.125 L 3.390625 -23.734375 L 3.390625 -20.34375 L 6.78125 -16.953125 L 11.296875 -16.953125 L 16.953125 -11.296875 L 16.953125 -5.65625 L 11.296875 0 Z M 5.65625 0 "/></g></g></g><g fill="#00ffff" fill-opacity="1"><g transform="translate(945.437638, 399.920332)"><g><path d="M 5.65625 0 L 0 -5.65625 L 0 -24.875 L 5.65625 -30.515625 L 11.296875 -30.515625 L 16.953125 -24.875 L 14.6875 -22.609375 L 10.171875 -27.125 L 6.78125 -27.125 L 3.390625 -23.734375 L 3.390625 -6.78125 L 6.78125 -3.390625 L 10.171875 -3.390625 L 14.6875 -7.90625 L 16.953125 -5.65625 L 11.296875 0 Z M 5.65625 0 "/></g></g></g><g fill="#00ffff" fill-opacity="1"><g transform="translate(971.657381, 399.920332)"><g><path d="M 10.171875 -16.953125 L 13.5625 -20.34375 L 13.5625 -23.734375 L 10.171875 -27.125 L 3.390625 -27.125 L 3.390625 -16.953125 Z M 0 0 L 0 -30.515625 L 11.296875 -30.515625 L 16.953125 -24.875 L 16.953125 -19.21875 L 11.296875 -13.5625 L 10.734375 -13.5625 L 16.953125 -1.125 L 14.6875 0 L 14.125 0 L 7.34375 -13.5625 L 3.390625 -13.5625 L 3.390625 0 Z M 0 0 "/></g></g></g><g fill="#00ffff" fill-opacity="1"><g transform="translate(997.877127, 399.920332)"><g><path d="M 5.65625 0 L 0 -5.65625 L 0 -30.515625 L 3.390625 -30.515625 L 3.390625 -6.78125 L 6.78125 -3.390625 L 10.171875 -3.390625 L 13.5625 -6.78125 L 13.5625 -30.515625 L 16.953125 -30.515625 L 16.953125 -5.65625 L 11.296875 0 Z M 5.65625 0 "/></g></g></g><g fill="#00ffff" fill-opacity="1"><g transform="translate(1024.096868, 399.920332)"><g><path d="M 0 0 L 0 -30.515625 L 2.828125 -30.515625 L 8.484375 -19.21875 L 14.125 -30.515625 L 16.953125 -30.515625 L 16.953125 0 L 13.5625 0 L 13.5625 -22.609375 L 9.609375 -14.6875 L 7.34375 -14.6875 L 3.390625 -22.609375 L 3.390625 0 Z M 0 0 "/></g></g></g><g fill="#00ffff" fill-opacity="1"><g transform="translate(1050.316609, 399.920332)"><g/></g></g><g fill="#00ffff" fill-opacity="1"><g transform="translate(1076.536349, 399.920332)"><g><path d="M 0 0 L 0 -30.515625 L 2.828125 -30.515625 L 8.484375 -19.21875 L 14.125 -30.515625 L 16.953125 -30.515625 L 16.953125 0 L 13.5625 0 L 13.5625 -22.609375 L 9.609375 -14.6875 L 7.34375 -14.6875 L 3.390625 -22.609375 L 3.390625 0 Z M 0 0 "/></g></g></g><g fill="#00ffff" fill-opacity="1"><g transform="translate(1102.75609, 399.920332)"><g><path d="M 13.5625 -13.5625 L 13.5625 -15.828125 L 8.484375 -26 L 3.390625 -15.828125 L 3.390625 -13.5625 Z M 0 0 L 0 -15.828125 L 7.34375 -30.515625 L 9.609375 -30.515625 L 16.953125 -15.828125 L 16.953125 0 L 13.5625 0 L 13.5625 -10.171875 L 3.390625 -10.171875 L 3.390625 0 Z M 0 0 "/></g></g></g><g fill="#00ffff" fill-opacity="1"><g transform="translate(1128.975842, 399.920332)"><g><path d="M 5.65625 0 L 0 -5.65625 L 2.265625 -7.90625 L 6.78125 -3.390625 L 10.171875 -3.390625 L 13.5625 -6.78125 L 13.5625 -10.171875 L 10.171875 -13.5625 L 5.65625 -13.5625 L 0 -19.21875 L 0 -24.875 L 5.65625 -30.515625 L 11.296875 -30.515625 L 16.953125 -24.875 L 14.6875 -22.609375 L 10.171875 -27.125 L 6.78125 -27.125 L 3.390625 -23.734375 L 3.390625 -20.34375 L 6.78125 -16.953125 L 11.296875 -16.953125 L 16.953125 -11.296875 L 16.953125 -5.65625 L 11.296875 0 Z M 5.65625 0 "/></g></g></g><g fill="#00ffff" fill-opacity="1"><g transform="translate(1155.195583, 399.920332)"><g><path d="M 6.78125 0 L 6.78125 -27.125 L 0 -27.125 L 0 -30.515625 L 16.953125 -30.515625 L 16.953125 -27.125 L 10.171875 -27.125 L 10.171875 0 Z M 6.78125 0 "/></g></g></g><g fill="#00ffff" fill-opacity="1"><g transform="translate(1181.415323, 399.920332)"><g><path d="M 0 0 L 0 -30.515625 L 16.953125 -30.515625 L 16.953125 -27.125 L 3.390625 -27.125 L 3.390625 -16.953125 L 13.5625 -16.953125 L 13.5625 -13.5625 L 3.390625 -13.5625 L 3.390625 -3.390625 L 16.953125 -3.390625 L 16.953125 0 Z M 0 0 "/></g></g></g><g fill="#00ffff" fill-opacity="1"><g transform="translate(1207.635064, 399.920332)"><g><path d="M 10.171875 -16.953125 L 13.5625 -20.34375 L 13.5625 -23.734375 L 10.171875 -27.125 L 3.390625 -27.125 L 3.390625 -16.953125 Z M 0 0 L 0 -30.515625 L 11.296875 -30.515625 L 16.953125 -24.875 L 16.953125 -19.21875 L 11.296875 -13.5625 L 10.734375 -13.5625 L 16.953125 -1.125 L 14.6875 0 L 14.125 0 L 7.34375 -13.5625 L 3.390625 -13.5625 L 3.390625 0 Z M 0 0 "/></g></g></g><g fill="#ffffff" fill-opacity="1"><g transform="translate(1233.854593, 399.920332)"><g/></g></g><g fill="#ffffff" fill-opacity="1"><g transform="translate(1260.074337, 399.920332)"><g><path d="M 0 0 L 0 -30.515625 L 16.953125 -30.515625 L 16.953125 -27.125 L 3.390625 -27.125 L 3.390625 -16.953125 L 13.5625 -16.953125 L 13.5625 -13.5625 L 3.390625 -13.5625 L 3.390625 -3.390625 L 16.953125 -3.390625 L 16.953125 0 Z M 0 0 "/></g></g></g><g fill="#fbb040" fill-opacity="1"><g transform="translate(630.807748, 501.170327)"><g><path d="M 10.171875 -3.390625 L 13.5625 -6.78125 L 13.5625 -23.734375 L 10.171875 -27.125 L 3.390625 -27.125 L 3.390625 -3.390625 Z M 0 0 L 0 -30.515625 L 11.296875 -30.515625 L 16.953125 -24.875 L 16.953125 -5.65625 L 11.296875 0 Z M 0 0 "/></g></g></g><g fill="#fbb040" fill-opacity="1"><g transform="translate(657.027492, 501.170327)"><g><path d="M 0 0 L 0 -30.515625 L 16.953125 -30.515625 L 16.953125 -27.125 L 3.390625 -27.125 L 3.390625 -16.953125 L 13.5625 -16.953125 L 13.5625 -13.5625 L 3.390625 -13.5625 L 3.390625 -3.390625 L 16.953125 -3.390625 L 16.953125 0 Z M 0 0 "/></g></g></g><g fill="#fbb040" fill-opacity="1"><g transform="translate(683.247236, 501.170327)"><g><path d="M 7.34375 0 L 0 -14.6875 L 0 -30.515625 L 3.390625 -30.515625 L 3.390625 -14.6875 L 8.484375 -4.515625 L 13.5625 -14.6875 L 13.5625 -30.515625 L 16.953125 -30.515625 L 16.953125 -14.6875 L 9.609375 0 Z M 7.34375 0 "/></g></g></g><g fill="#fbb040" fill-opacity="1"><g transform="translate(709.466982, 501.170327)"><g><path d="M 0 0 L 0 -30.515625 L 16.953125 -30.515625 L 16.953125 -27.125 L 3.390625 -27.125 L 3.390625 -16.953125 L 13.5625 -16.953125 L 13.5625 -13.5625 L 3.390625 -13.5625 L 3.390625 -3.390625 L 16.953125 -3.390625 L 16.953125 0 Z M 0 0 "/></g></g></g><g fill="#fbb040" fill-opacity="1"><g transform="translate(735.686722, 501.170327)"><g><path d="M 0 0 L 0 -30.515625 L 3.390625 -30.515625 L 3.390625 -3.390625 L 16.953125 -3.390625 L 16.953125 0 Z M 0 0 "/></g></g></g><g fill="#fbb040" fill-opacity="1"><g transform="translate(761.906463, 501.170327)"><g><path d="M 10.171875 -3.390625 L 13.5625 -6.78125 L 13.5625 -23.734375 L 10.171875 -27.125 L 6.78125 -27.125 L 3.390625 -23.734375 L 3.390625 -6.78125 L 6.78125 -3.390625 Z M 5.65625 0 L 0 -5.65625 L 0 -24.875 L 5.65625 -30.515625 L 11.296875 -30.515625 L 16.953125 -24.875 L 16.953125 -5.65625 L 11.296875 0 Z M 5.65625 0 "/></g></g></g><g fill="#fbb040" fill-opacity="1"><g transform="translate(788.126204, 501.170327)"><g><path d="M 10.171875 -16.953125 L 13.5625 -20.34375 L 13.5625 -23.734375 L 10.171875 -27.125 L 3.390625 -27.125 L 3.390625 -16.953125 Z M 0 0 L 0 -30.515625 L 11.296875 -30.515625 L 16.953125 -24.875 L 16.953125 -19.21875 L 11.296875 -13.5625 L 3.390625 -13.5625 L 3.390625 0 Z M 0 0 "/></g></g></g><g fill="#fbb040" fill-opacity="1"><g transform="translate(814.345945, 501.170327)"><g><path d="M 0 0 L 0 -30.515625 L 2.828125 -30.515625 L 8.484375 -19.21875 L 14.125 -30.515625 L 16.953125 -30.515625 L 16.953125 0 L 13.5625 0 L 13.5625 -22.609375 L 9.609375 -14.6875 L 7.34375 -14.6875 L 3.390625 -22.609375 L 3.390625 0 Z M 0 0 "/></g></g></g><g fill="#fbb040" fill-opacity="1"><g transform="translate(840.565696, 501.170327)"><g><path d="M 0 0 L 0 -30.515625 L 16.953125 -30.515625 L 16.953125 -27.125 L 3.390625 -27.125 L 3.390625 -16.953125 L 13.5625 -16.953125 L 13.5625 -13.5625 L 3.390625 -13.5625 L 3.390625 -3.390625 L 16.953125 -3.390625 L 16.953125 0 Z M 0 0 "/></g></g></g><g fill="#fbb040" fill-opacity="1"><g transform="translate(866.785437, 501.170327)"><g><path d="M 0 0 L 0 -30.515625 L 2.828125 -30.515625 L 13.5625 -9.046875 L 13.5625 -30.515625 L 16.953125 -30.515625 L 16.953125 0 L 14.6875 0 L 3.390625 -22.609375 L 3.390625 0 Z M 0 0 "/></g></g></g><g fill="#fbb040" fill-opacity="1"><g transform="translate(893.005178, 501.170327)"><g><path d="M 6.78125 0 L 6.78125 -27.125 L 0 -27.125 L 0 -30.515625 L 16.953125 -30.515625 L 16.953125 -27.125 L 10.171875 -27.125 L 10.171875 0 Z M 6.78125 0 "/></g></g></g><g fill="#fbb040" fill-opacity="1"><g transform="translate(919.224918, 501.170327)"><g/></g></g><g fill="#fbb040" fill-opacity="1"><g transform="translate(945.444659, 501.170327)"><g><path d="M 6.78125 0 L 6.78125 -27.125 L 0 -27.125 L 0 -30.515625 L 16.953125 -30.515625 L 16.953125 -27.125 L 10.171875 -27.125 L 10.171875 0 Z M 6.78125 0 "/></g></g></g><g fill="#fbb040" fill-opacity="1"><g transform="translate(971.6644, 501.170327)"><g><path d="M 0 0 L 0 -30.515625 L 16.953125 -30.515625 L 16.953125 -27.125 L 3.390625 -27.125 L 3.390625 -16.953125 L 13.5625 -16.953125 L 13.5625 -13.5625 L 3.390625 -13.5625 L 3.390625 -3.390625 L 16.953125 -3.390625 L 16.953125 0 Z M 0 0 "/></g></g></g><g fill="#fbb040" fill-opacity="1"><g transform="translate(997.884141, 501.170327)"><g><path d="M 13.5625 -13.5625 L 13.5625 -15.828125 L 8.484375 -26 L 3.390625 -15.828125 L 3.390625 -13.5625 Z M 0 0 L 0 -15.828125 L 7.34375 -30.515625 L 9.609375 -30.515625 L 16.953125 -15.828125 L 16.953125 0 L 13.5625 0 L 13.5625 -10.171875 L 3.390625 -10.171875 L 3.390625 0 Z M 0 0 "/></g></g></g><g fill="#fbb040" fill-opacity="1"><g transform="translate(1024.103904, 501.170327)"><g><path d="M 0 0 L 0 -30.515625 L 2.828125 -30.515625 L 8.484375 -19.21875 L 14.125 -30.515625 L 16.953125 -30.515625 L 16.953125 0 L 13.5625 0 L 13.5625 -22.609375 L 9.609375 -14.6875 L 7.34375 -14.6875 L 3.390625 -22.609375 L 3.390625 0 Z M 0 0 "/></g></g></g><g fill="#ffffff" fill-opacity="1"><g transform="translate(1050.31554, 501.170327)"><g/></g></g><g fill="#ffffff" fill-opacity="1"><g transform="translate(1076.535284, 501.170327)"><g><path d="M 11.296875 6.78125 L 4.515625 0 L 4.515625 -28.265625 L 11.296875 -35.046875 L 13.5625 -32.78125 L 7.90625 -27.125 L 7.90625 -1.125 L 13.5625 4.515625 Z M 11.296875 6.78125 "/></g></g></g><g fill="#ffffff" fill-opacity="1"><g transform="translate(1102.755027, 501.170327)"><g><path d="M 0 0 L 0 -30.515625 L 2.828125 -30.515625 L 13.5625 -9.046875 L 13.5625 -30.515625 L 16.953125 -30.515625 L 16.953125 0 L 14.6875 0 L 3.390625 -22.609375 L 3.390625 0 Z M 0 0 "/></g></g></g><g fill="#ffffff" fill-opacity="1"><g transform="translate(1128.974773, 501.170327)"><g><path d="M 10.171875 -3.390625 L 13.5625 -6.78125 L 13.5625 -23.734375 L 10.171875 -27.125 L 6.78125 -27.125 L 3.390625 -23.734375 L 3.390625 -6.78125 L 6.78125 -3.390625 Z M 5.65625 0 L 0 -5.65625 L 0 -24.875 L 5.65625 -30.515625 L 11.296875 -30.515625 L 16.953125 -24.875 L 16.953125 -5.65625 L 11.296875 0 Z M 5.65625 0 "/></g></g></g><g fill="#ffffff" fill-opacity="1"><g transform="translate(1155.194514, 501.170327)"><g/></g></g><g fill="#ffffff" fill-opacity="1"><g transform="translate(1181.414255, 501.170327)"><g><path d="M 10.171875 -16.953125 L 13.5625 -20.34375 L 13.5625 -23.734375 L 10.171875 -27.125 L 3.390625 -27.125 L 3.390625 -16.953125 Z M 0 0 L 0 -30.515625 L 11.296875 -30.515625 L 16.953125 -24.875 L 16.953125 -19.21875 L 11.296875 -13.5625 L 3.390625 -13.5625 L 3.390625 0 Z M 0 0 "/></g></g></g><g fill="#ffffff" fill-opacity="1"><g transform="translate(1207.633995, 501.170327)"><g><path d="M 10.171875 -16.953125 L 13.5625 -20.34375 L 13.5625 -23.734375 L 10.171875 -27.125 L 3.390625 -27.125 L 3.390625 -16.953125 Z M 0 0 L 0 -30.515625 L 11.296875 -30.515625 L 16.953125 -24.875 L 16.953125 -19.21875 L 11.296875 -13.5625 L 10.734375 -13.5625 L 16.953125 -1.125 L 14.6875 0 L 14.125 0 L 7.34375 -13.5625 L 3.390625 -13.5625 L 3.390625 0 Z M 0 0 "/></g></g></g><g fill="#ffffff" fill-opacity="1"><g transform="translate(1233.853736, 501.170327)"><g><path d="M 10.171875 -3.390625 L 13.5625 -6.78125 L 13.5625 -23.734375 L 10.171875 -27.125 L 6.78125 -27.125 L 3.390625 -23.734375 L 3.390625 -6.78125 L 6.78125 -3.390625 Z M 5.65625 0 L 0 -5.65625 L 0 -24.875 L 5.65625 -30.515625 L 11.296875 -30.515625 L 16.953125 -24.875 L 16.953125 -5.65625 L 11.296875 0 Z M 7.90625 -32.78125 L 5.65625 -35.046875 L 10.171875 -39.5625 L 12.4375 -37.296875 Z M 7.90625 -32.78125 "/></g></g></g><g fill="#ffffff" fill-opacity="1"><g transform="translate(1260.073488, 501.170327)"><g><path d="M 2.265625 0 L 0 -1.125 L 6.78125 -14.6875 L 6.78125 -15.828125 L 0 -29.390625 L 2.265625 -30.515625 L 2.828125 -30.515625 L 8.484375 -19.21875 L 14.125 -30.515625 L 14.6875 -30.515625 L 16.953125 -29.390625 L 10.171875 -15.828125 L 10.171875 -14.6875 L 16.953125 -1.125 L 14.6875 0 L 14.125 0 L 8.484375 -11.296875 L 2.828125 0 Z M 2.265625 0 "/></g></g></g><g fill="#ffffff" fill-opacity="1"><g transform="translate(1286.293229, 501.170327)"><g><path d="M 3.390625 0 L 3.390625 -3.390625 L 6.78125 -3.390625 L 6.78125 -27.125 L 3.390625 -27.125 L 3.390625 -30.515625 L 13.5625 -30.515625 L 13.5625 -27.125 L 10.171875 -27.125 L 10.171875 -3.390625 L 13.5625 -3.390625 L 13.5625 0 Z M 3.390625 0 "/></g></g></g><g fill="#ffffff" fill-opacity="1"><g transform="translate(1312.512969, 501.170327)"><g><path d="M 0 0 L 0 -30.515625 L 2.828125 -30.515625 L 8.484375 -19.21875 L 14.125 -30.515625 L 16.953125 -30.515625 L 16.953125 0 L 13.5625 0 L 13.5625 -22.609375 L 9.609375 -14.6875 L 7.34375 -14.6875 L 3.390625 -22.609375 L 3.390625 0 Z M 0 0 "/></g></g></g><g fill="#ffffff" fill-opacity="1"><g transform="translate(1338.73271, 501.170327)"><g><path d="M 10.171875 -3.390625 L 13.5625 -6.78125 L 13.5625 -23.734375 L 10.171875 -27.125 L 6.78125 -27.125 L 3.390625 -23.734375 L 3.390625 -6.78125 L 6.78125 -3.390625 Z M 5.65625 0 L 0 -5.65625 L 0 -24.875 L 5.65625 -30.515625 L 11.296875 -30.515625 L 16.953125 -24.875 L 16.953125 -5.65625 L 11.296875 0 Z M 5.65625 0 "/></g></g></g><g fill="#ffffff" fill-opacity="1"><g transform="translate(630.807748, 602.420322)"><g><path d="M 0 0 L 0 -30.515625 L 2.828125 -30.515625 L 8.484375 -19.21875 L 14.125 -30.515625 L 16.953125 -30.515625 L 16.953125 0 L 13.5625 0 L 13.5625 -22.609375 L 9.609375 -14.6875 L 7.34375 -14.6875 L 3.390625 -22.609375 L 3.390625 0 Z M 0 0 "/></g></g></g><g fill="#ffffff" fill-opacity="1"><g transform="translate(657.027492, 602.420322)"><g><path d="M 10.171875 -3.390625 L 13.5625 -6.78125 L 13.5625 -23.734375 L 10.171875 -27.125 L 6.78125 -27.125 L 3.390625 -23.734375 L 3.390625 -6.78125 L 6.78125 -3.390625 Z M 5.65625 0 L 0 -5.65625 L 0 -24.875 L 5.65625 -30.515625 L 11.296875 -30.515625 L 16.953125 -24.875 L 16.953125 -5.65625 L 11.296875 0 Z M 7.90625 -32.78125 L 5.65625 -35.046875 L 10.171875 -39.5625 L 12.4375 -37.296875 Z M 7.90625 -32.78125 "/></g></g></g><g fill="#ffffff" fill-opacity="1"><g transform="translate(683.247236, 602.420322)"><g><path d="M 10.171875 -3.390625 L 13.5625 -6.78125 L 13.5625 -23.734375 L 10.171875 -27.125 L 3.390625 -27.125 L 3.390625 -3.390625 Z M 0 0 L 0 -30.515625 L 11.296875 -30.515625 L 16.953125 -24.875 L 16.953125 -5.65625 L 11.296875 0 Z M 0 0 "/></g></g></g><g fill="#ffffff" fill-opacity="1"><g transform="translate(709.466982, 602.420322)"><g><path d="M 5.65625 0 L 0 -5.65625 L 0 -30.515625 L 3.390625 -30.515625 L 3.390625 -6.78125 L 6.78125 -3.390625 L 10.171875 -3.390625 L 13.5625 -6.78125 L 13.5625 -30.515625 L 16.953125 -30.515625 L 16.953125 -5.65625 L 11.296875 0 Z M 5.65625 0 "/></g></g></g><g fill="#ffffff" fill-opacity="1"><g transform="translate(735.686722, 602.420322)"><g><path d="M 0 0 L 0 -30.515625 L 3.390625 -30.515625 L 3.390625 -3.390625 L 16.953125 -3.390625 L 16.953125 0 Z M 0 0 "/></g></g></g><g fill="#ffffff" fill-opacity="1"><g transform="translate(761.906463, 602.420322)"><g><path d="M 10.171875 -3.390625 L 13.5625 -6.78125 L 13.5625 -23.734375 L 10.171875 -27.125 L 6.78125 -27.125 L 3.390625 -23.734375 L 3.390625 -6.78125 L 6.78125 -3.390625 Z M 5.65625 0 L 0 -5.65625 L 0 -24.875 L 5.65625 -30.515625 L 11.296875 -30.515625 L 16.953125 -24.875 L 16.953125 -5.65625 L 11.296875 0 Z M 5.65625 0 "/></g></g></g><g fill="#ffffff" fill-opacity="1"><g transform="translate(788.126204, 602.420322)"><g><path d="M 6.78125 6.78125 L 4.515625 4.515625 L 7.90625 1.125 L 7.90625 0 L 5.65625 0 L 5.65625 -5.65625 L 11.296875 -5.65625 L 11.296875 2.265625 Z M 6.78125 6.78125 "/></g></g></g><g fill="#ffffff" fill-opacity="1"><g transform="translate(814.345945, 602.420322)"><g/></g></g><g fill="#ffffff" fill-opacity="1"><g transform="translate(840.565696, 602.420322)"><g><path d="M 13.5625 -13.5625 L 13.5625 -15.828125 L 8.484375 -26 L 3.390625 -15.828125 L 3.390625 -13.5625 Z M 0 0 L 0 -15.828125 L 7.34375 -30.515625 L 9.609375 -30.515625 L 16.953125 -15.828125 L 16.953125 0 L 13.5625 0 L 13.5625 -10.171875 L 3.390625 -10.171875 L 3.390625 0 Z M 0 0 "/></g></g></g><g fill="#ffffff" fill-opacity="1"><g transform="translate(866.785437, 602.420322)"><g><path d="M 10.171875 -3.390625 L 13.5625 -6.78125 L 13.5625 -10.171875 L 10.171875 -13.5625 L 3.390625 -13.5625 L 3.390625 -3.390625 Z M 10.171875 -16.953125 L 13.5625 -20.34375 L 13.5625 -23.734375 L 10.171875 -27.125 L 3.390625 -27.125 L 3.390625 -16.953125 Z M 0 0 L 0 -30.515625 L 11.296875 -30.515625 L 16.953125 -24.875 L 16.953125 -19.21875 L 13.5625 -15.828125 L 13.5 -15.828125 L 13 -15.265625 L 16.953125 -11.296875 L 16.953125 -5.65625 L 11.296875 0 Z M 0 0 "/></g></g></g><g fill="#ffffff" fill-opacity="1"><g transform="translate(893.005178, 602.420322)"><g><path d="M 10.171875 -3.390625 L 13.5625 -6.78125 L 13.5625 -23.734375 L 10.171875 -27.125 L 6.78125 -27.125 L 3.390625 -23.734375 L 3.390625 -6.78125 L 6.78125 -3.390625 Z M 5.65625 0 L 0 -5.65625 L 0 -24.875 L 5.65625 -30.515625 L 11.296875 -30.515625 L 16.953125 -24.875 L 16.953125 -5.65625 L 11.296875 0 Z M 5.65625 0 "/></g></g></g><g fill="#ffffff" fill-opacity="1"><g transform="translate(919.224918, 602.420322)"><g><path d="M 10.171875 -16.953125 L 13.5625 -20.34375 L 13.5625 -23.734375 L 10.171875 -27.125 L 3.390625 -27.125 L 3.390625 -16.953125 Z M 0 0 L 0 -30.515625 L 11.296875 -30.515625 L 16.953125 -24.875 L 16.953125 -19.21875 L 11.296875 -13.5625 L 10.734375 -13.5625 L 16.953125 -1.125 L 14.6875 0 L 14.125 0 L 7.34375 -13.5625 L 3.390625 -13.5625 L 3.390625 0 Z M 0 0 "/></g></g></g><g fill="#ffffff" fill-opacity="1"><g transform="translate(945.444659, 602.420322)"><g><path d="M 10.171875 -3.390625 L 13.5625 -6.78125 L 13.5625 -23.734375 L 10.171875 -27.125 L 3.390625 -27.125 L 3.390625 -3.390625 Z M 0 0 L 0 -30.515625 L 11.296875 -30.515625 L 16.953125 -24.875 L 16.953125 -5.65625 L 11.296875 0 Z M 0 0 "/></g></g></g><g fill="#ffffff" fill-opacity="1"><g transform="translate(971.6644, 602.420322)"><g><path d="M 13.5625 -13.5625 L 13.5625 -15.828125 L 8.484375 -26 L 3.390625 -15.828125 L 3.390625 -13.5625 Z M 0 0 L 0 -15.828125 L 7.34375 -30.515625 L 9.609375 -30.515625 L 16.953125 -15.828125 L 16.953125 0 L 13.5625 0 L 13.5625 -10.171875 L 3.390625 -10.171875 L 3.390625 0 Z M 0 0 "/></g></g></g><g fill="#ffffff" fill-opacity="1"><g transform="translate(997.884141, 602.420322)"><g><path d="M 10.171875 -16.953125 L 13.5625 -20.34375 L 13.5625 -23.734375 L 10.171875 -27.125 L 3.390625 -27.125 L 3.390625 -16.953125 Z M 0 0 L 0 -30.515625 L 11.296875 -30.515625 L 16.953125 -24.875 L 16.953125 -19.21875 L 11.296875 -13.5625 L 10.734375 -13.5625 L 16.953125 -1.125 L 14.6875 0 L 14.125 0 L 7.34375 -13.5625 L 3.390625 -13.5625 L 3.390625 0 Z M 0 0 "/></g></g></g><g fill="#ffffff" fill-opacity="1"><g transform="translate(1024.103904, 602.420322)"><g><path d="M 0 0 L 0 -30.515625 L 16.953125 -30.515625 L 16.953125 -27.125 L 3.390625 -27.125 L 3.390625 -16.953125 L 13.5625 -16.953125 L 13.5625 -13.5625 L 3.390625 -13.5625 L 3.390625 -3.390625 L 16.953125 -3.390625 L 16.953125 0 Z M 0 0 "/></g></g></g><g fill="#ffffff" fill-opacity="1"><g transform="translate(1050.323644, 602.420322)"><g><path d="M 0 0 L 0 -30.515625 L 2.828125 -30.515625 L 8.484375 -19.21875 L 14.125 -30.515625 L 16.953125 -30.515625 L 16.953125 0 L 13.5625 0 L 13.5625 -22.609375 L 9.609375 -14.6875 L 7.34375 -14.6875 L 3.390625 -22.609375 L 3.390625 0 Z M 0 0 "/></g></g></g><g fill="#ffffff" fill-opacity="1"><g transform="translate(1076.543385, 602.420322)"><g><path d="M 10.171875 -3.390625 L 13.5625 -6.78125 L 13.5625 -23.734375 L 10.171875 -27.125 L 6.78125 -27.125 L 3.390625 -23.734375 L 3.390625 -6.78125 L 6.78125 -3.390625 Z M 5.65625 0 L 0 -5.65625 L 0 -24.875 L 5.65625 -30.515625 L 11.296875 -30.515625 L 16.953125 -24.875 L 16.953125 -5.65625 L 11.296875 0 Z M 5.65625 0 "/></g></g></g><g fill="#ffffff" fill-opacity="1"><g transform="translate(1102.763126, 602.420322)"><g><path d="M 5.65625 0 L 0 -5.65625 L 2.265625 -7.90625 L 6.78125 -3.390625 L 10.171875 -3.390625 L 13.5625 -6.78125 L 13.5625 -10.171875 L 10.171875 -13.5625 L 5.65625 -13.5625 L 0 -19.21875 L 0 -24.875 L 5.65625 -30.515625 L 11.296875 -30.515625 L 16.953125 -24.875 L 14.6875 -22.609375 L 10.171875 -27.125 L 6.78125 -27.125 L 3.390625 -23.734375 L 3.390625 -20.34375 L 6.78125 -16.953125 L 11.296875 -16.953125 L 16.953125 -11.296875 L 16.953125 -5.65625 L 11.296875 0 Z M 5.65625 0 "/></g></g></g><g fill="#ffffff" fill-opacity="1"><g transform="translate(1128.982866, 602.420322)"><g/></g></g><g fill="#ffffff" fill-opacity="1"><g transform="translate(1155.202607, 602.420322)"><g><path d="M 0 0 L 0 -30.515625 L 2.828125 -30.515625 L 8.484375 -19.21875 L 14.125 -30.515625 L 16.953125 -30.515625 L 16.953125 0 L 13.5625 0 L 13.5625 -22.609375 L 9.609375 -14.6875 L 7.34375 -14.6875 L 3.390625 -22.609375 L 3.390625 0 Z M 0 0 "/></g></g></g><g fill="#ffffff" fill-opacity="1"><g transform="translate(1181.422348, 602.420322)"><g><path d="M 0 0 L 0 -30.515625 L 16.953125 -30.515625 L 16.953125 -27.125 L 3.390625 -27.125 L 3.390625 -16.953125 L 13.5625 -16.953125 L 13.5625 -13.5625 L 3.390625 -13.5625 L 3.390625 -3.390625 L 16.953125 -3.390625 L 16.953125 0 Z M 0 0 "/></g></g></g><g fill="#ffffff" fill-opacity="1"><g transform="translate(1207.642088, 602.420322)"><g><path d="M 0 0 L 0 -30.515625 L 3.390625 -30.515625 L 3.390625 -3.390625 L 16.953125 -3.390625 L 16.953125 0 Z M 0 0 "/></g></g></g><g fill="#ffffff" fill-opacity="1"><g transform="translate(1233.861829, 602.420322)"><g><path d="M 0 0 L 0 -30.515625 L 3.390625 -30.515625 L 3.390625 -16.953125 L 13.5625 -16.953125 L 13.5625 -30.515625 L 16.953125 -30.515625 L 16.953125 0 L 13.5625 0 L 13.5625 -13.5625 L 3.390625 -13.5625 L 3.390625 0 Z M 0 0 "/></g></g></g><g fill="#ffffff" fill-opacity="1"><g transform="translate(1260.08157, 602.420322)"><g><path d="M 10.171875 -3.390625 L 13.5625 -6.78125 L 13.5625 -23.734375 L 10.171875 -27.125 L 6.78125 -27.125 L 3.390625 -23.734375 L 3.390625 -6.78125 L 6.78125 -3.390625 Z M 5.65625 0 L 0 -5.65625 L 0 -24.875 L 5.65625 -30.515625 L 11.296875 -30.515625 L 16.953125 -24.875 L 16.953125 -5.65625 L 11.296875 0 Z M 5.65625 0 "/></g></g></g><g fill="#ffffff" fill-opacity="1"><g transform="translate(1286.301311, 602.420322)"><g><path d="M 10.171875 -16.953125 L 13.5625 -20.34375 L 13.5625 -23.734375 L 10.171875 -27.125 L 3.390625 -27.125 L 3.390625 -16.953125 Z M 0 0 L 0 -30.515625 L 11.296875 -30.515625 L 16.953125 -24.875 L 16.953125 -19.21875 L 11.296875 -13.5625 L 10.734375 -13.5625 L 16.953125 -1.125 L 14.6875 0 L 14.125 0 L 7.34375 -13.5625 L 3.390625 -13.5625 L 3.390625 0 Z M 0 0 "/></g></g></g><g fill="#ffffff" fill-opacity="1"><g transform="translate(1312.521051, 602.420322)"><g/></g></g><g fill="#ffffff" fill-opacity="1"><g transform="translate(1338.740792, 602.420322)"><g><path d="M 13.5625 -13.5625 L 13.5625 -15.828125 L 8.484375 -26 L 3.390625 -15.828125 L 3.390625 -13.5625 Z M 0 0 L 0 -15.828125 L 7.34375 -30.515625 L 9.609375 -30.515625 L 16.953125 -15.828125 L 16.953125 0 L 13.5625 0 L 13.5625 -10.171875 L 3.390625 -10.171875 L 3.390625 0 Z M 0 0 "/></g></g></g><g fill="#ffffff" fill-opacity="1"><g transform="translate(649.569466, 703.670317)"><g><path d="M 10.171875 -16.953125 L 13.5625 -20.34375 L 13.5625 -23.734375 L 10.171875 -27.125 L 3.390625 -27.125 L 3.390625 -16.953125 Z M 0 0 L 0 -30.515625 L 11.296875 -30.515625 L 16.953125 -24.875 L 16.953125 -19.21875 L 11.296875 -13.5625 L 10.734375 -13.5625 L 16.953125 -1.125 L 14.6875 0 L 14.125 0 L 7.34375 -13.5625 L 3.390625 -13.5625 L 3.390625 0 Z M 0 0 "/></g></g></g><g fill="#ffffff" fill-opacity="1"><g transform="translate(675.78921, 703.670317)"><g><path d="M 0 0 L 0 -30.515625 L 16.953125 -30.515625 L 16.953125 -27.125 L 3.390625 -27.125 L 3.390625 -16.953125 L 13.5625 -16.953125 L 13.5625 -13.5625 L 3.390625 -13.5625 L 3.390625 -3.390625 L 16.953125 -3.390625 L 16.953125 0 Z M 0 0 "/></g></g></g><g fill="#ffffff" fill-opacity="1"><g transform="translate(702.008954, 703.670317)"><g><path d="M 5.65625 0 L 0 -5.65625 L 2.265625 -7.90625 L 6.78125 -3.390625 L 10.171875 -3.390625 L 13.5625 -6.78125 L 13.5625 -10.171875 L 10.171875 -13.5625 L 5.65625 -13.5625 L 0 -19.21875 L 0 -24.875 L 5.65625 -30.515625 L 11.296875 -30.515625 L 16.953125 -24.875 L 14.6875 -22.609375 L 10.171875 -27.125 L 6.78125 -27.125 L 3.390625 -23.734375 L 3.390625 -20.34375 L 6.78125 -16.953125 L 11.296875 -16.953125 L 16.953125 -11.296875 L 16.953125 -5.65625 L 11.296875 0 Z M 5.65625 0 "/></g></g></g><g fill="#ffffff" fill-opacity="1"><g transform="translate(728.2287, 703.670317)"><g><path d="M 10.171875 -16.953125 L 13.5625 -20.34375 L 13.5625 -23.734375 L 10.171875 -27.125 L 3.390625 -27.125 L 3.390625 -16.953125 Z M 0 0 L 0 -30.515625 L 11.296875 -30.515625 L 16.953125 -24.875 L 16.953125 -19.21875 L 11.296875 -13.5625 L 3.390625 -13.5625 L 3.390625 0 Z M 0 0 "/></g></g></g><g fill="#ffffff" fill-opacity="1"><g transform="translate(754.44844, 703.670317)"><g><path d="M 0 0 L 0 -30.515625 L 16.953125 -30.515625 L 16.953125 -27.125 L 3.390625 -27.125 L 3.390625 -16.953125 L 13.5625 -16.953125 L 13.5625 -13.5625 L 3.390625 -13.5625 L 3.390625 -3.390625 L 16.953125 -3.390625 L 16.953125 0 Z M 0 0 "/></g></g></g><g fill="#ffffff" fill-opacity="1"><g transform="translate(780.668181, 703.670317)"><g><path d="M 3.390625 0 L 3.390625 -3.390625 L 6.78125 -3.390625 L 6.78125 -27.125 L 3.390625 -27.125 L 3.390625 -30.515625 L 13.5625 -30.515625 L 13.5625 -27.125 L 10.171875 -27.125 L 10.171875 -3.390625 L 13.5625 -3.390625 L 13.5625 0 Z M 3.390625 0 "/></g></g></g><g fill="#ffffff" fill-opacity="1"><g transform="translate(806.887922, 703.670317)"><g><path d="M 6.78125 0 L 6.78125 -27.125 L 0 -27.125 L 0 -30.515625 L 16.953125 -30.515625 L 16.953125 -27.125 L 10.171875 -27.125 L 10.171875 0 Z M 6.78125 0 "/></g></g></g><g fill="#ffffff" fill-opacity="1"><g transform="translate(833.107662, 703.670317)"><g><path d="M 10.171875 -3.390625 L 13.5625 -6.78125 L 13.5625 -23.734375 L 10.171875 -27.125 L 6.78125 -27.125 L 3.390625 -23.734375 L 3.390625 -6.78125 L 6.78125 -3.390625 Z M 5.65625 0 L 0 -5.65625 L 0 -24.875 L 5.65625 -30.515625 L 11.296875 -30.515625 L 16.953125 -24.875 L 16.953125 -5.65625 L 11.296875 0 Z M 5.65625 0 "/></g></g></g><g fill="#ffffff" fill-opacity="1"><g transform="translate(859.327414, 703.670317)"><g/></g></g><g fill="#ffffff" fill-opacity="1"><g transform="translate(885.547155, 703.670317)"><g><path d="M 10.171875 -3.390625 L 13.5625 -6.78125 L 13.5625 -23.734375 L 10.171875 -27.125 L 3.390625 -27.125 L 3.390625 -3.390625 Z M 0 0 L 0 -30.515625 L 11.296875 -30.515625 L 16.953125 -24.875 L 16.953125 -5.65625 L 11.296875 0 Z M 0 0 "/></g></g></g><g fill="#ffffff" fill-opacity="1"><g transform="translate(911.766896, 703.670317)"><g><path d="M 0 0 L 0 -30.515625 L 16.953125 -30.515625 L 16.953125 -27.125 L 3.390625 -27.125 L 3.390625 -16.953125 L 13.5625 -16.953125 L 13.5625 -13.5625 L 3.390625 -13.5625 L 3.390625 -3.390625 L 16.953125 -3.390625 L 16.953125 0 Z M 0 0 "/></g></g></g><g fill="#ffffff" fill-opacity="1"><g transform="translate(937.986636, 703.670317)"><g/></g></g><g fill="#ffffff" fill-opacity="1"><g transform="translate(964.206377, 703.670317)"><g><path d="M 5.65625 0 L 0 -5.65625 L 0 -24.875 L 5.65625 -30.515625 L 11.296875 -30.515625 L 16.953125 -24.875 L 14.6875 -22.609375 L 10.171875 -27.125 L 6.78125 -27.125 L 3.390625 -23.734375 L 3.390625 -6.78125 L 6.78125 -3.390625 L 10.171875 -3.390625 L 14.6875 -7.90625 L 16.953125 -5.65625 L 11.296875 0 Z M 5.65625 0 "/></g></g></g><g fill="#ffffff" fill-opacity="1"><g transform="translate(990.426118, 703.670317)"><g><path d="M 13.5625 -13.5625 L 13.5625 -15.828125 L 8.484375 -26 L 3.390625 -15.828125 L 3.390625 -13.5625 Z M 0 0 L 0 -15.828125 L 7.34375 -30.515625 L 9.609375 -30.515625 L 16.953125 -15.828125 L 16.953125 0 L 13.5625 0 L 13.5625 -10.171875 L 3.390625 -10.171875 L 3.390625 0 Z M 0 0 "/></g></g></g><g fill="#ffffff" fill-opacity="1"><g transform="translate(1016.645858, 703.670317)"><g><path d="M 10.171875 -3.390625 L 13.5625 -6.78125 L 13.5625 -23.734375 L 10.171875 -27.125 L 3.390625 -27.125 L 3.390625 -3.390625 Z M 0 0 L 0 -30.515625 L 11.296875 -30.515625 L 16.953125 -24.875 L 16.953125 -5.65625 L 11.296875 0 Z M 0 0 "/></g></g></g><g fill="#ffffff" fill-opacity="1"><g transform="translate(1042.865622, 703.670317)"><g><path d="M 13.5625 -13.5625 L 13.5625 -15.828125 L 8.484375 -26 L 3.390625 -15.828125 L 3.390625 -13.5625 Z M 0 0 L 0 -15.828125 L 7.34375 -30.515625 L 9.609375 -30.515625 L 16.953125 -15.828125 L 16.953125 0 L 13.5625 0 L 13.5625 -10.171875 L 3.390625 -10.171875 L 3.390625 0 Z M 0 0 "/></g></g></g><g fill="#ffffff" fill-opacity="1"><g transform="translate(1069.085362, 703.670317)"><g/></g></g><g fill="#ffffff" fill-opacity="1"><g transform="translate(1095.305103, 703.670317)"><g><path d="M 0 0 L 0 -30.515625 L 16.953125 -30.515625 L 16.953125 -27.125 L 3.390625 -27.125 L 3.390625 -16.953125 L 13.5625 -16.953125 L 13.5625 -13.5625 L 3.390625 -13.5625 L 3.390625 0 Z M 0 0 "/></g></g></g><g fill="#ffffff" fill-opacity="1"><g transform="translate(1121.524844, 703.670317)"><g><path d="M 5.65625 0 L 0 -5.65625 L 0 -30.515625 L 3.390625 -30.515625 L 3.390625 -6.78125 L 6.78125 -3.390625 L 10.171875 -3.390625 L 13.5625 -6.78125 L 13.5625 -30.515625 L 16.953125 -30.515625 L 16.953125 -5.65625 L 11.296875 0 Z M 5.65625 0 "/></g></g></g><g fill="#ffffff" fill-opacity="1"><g transform="translate(1147.744584, 703.670317)"><g><path d="M 0 0 L 0 -30.515625 L 2.828125 -30.515625 L 13.5625 -9.046875 L 13.5625 -30.515625 L 16.953125 -30.515625 L 16.953125 0 L 14.6875 0 L 3.390625 -22.609375 L 3.390625 0 Z M 0 0 "/></g></g></g><g fill="#ffffff" fill-opacity="1"><g transform="translate(1173.964325, 703.670317)"><g><path d="M 6.78125 6.78125 L 4.515625 4.515625 L 6.78125 2.265625 L 6.78125 0 L 5.65625 0 L 0 -5.65625 L 0 -24.875 L 5.65625 -30.515625 L 11.296875 -30.515625 L 16.953125 -24.875 L 14.6875 -22.609375 L 10.171875 -27.125 L 6.78125 -27.125 L 3.390625 -23.734375 L 3.390625 -6.78125 L 6.78125 -3.390625 L 10.171875 -3.390625 L 14.6875 -7.90625 L 16.953125 -5.65625 L 11.296875 0 L 10.171875 0 L 10.171875 3.390625 Z M 6.78125 6.78125 "/></g></g></g><g fill="#ffffff" fill-opacity="1"><g transform="translate(1200.184066, 703.670317)"><g><path d="M 13.5625 -13.5625 L 13.5625 -15.828125 L 8.484375 -26 L 3.390625 -15.828125 L 3.390625 -13.5625 Z M 0 0 L 0 -15.828125 L 7.34375 -30.515625 L 9.609375 -30.515625 L 16.953125 -15.828125 L 16.953125 0 L 13.5625 0 L 13.5625 -10.171875 L 3.390625 -10.171875 L 3.390625 0 Z M 3.390625 -32.78125 L 1.125 -35.046875 L 4.515625 -38.4375 L 7.90625 -38.4375 L 10.171875 -36.171875 L 11.296875 -36.171875 L 13.5625 -38.4375 L 15.828125 -36.171875 L 12.4375 -32.78125 L 9.046875 -32.78125 L 6.78125 -35.046875 L 5.65625 -35.046875 Z M 3.390625 -32.78125 "/></g></g></g><g fill="#ffffff" fill-opacity="1"><g transform="translate(1226.403806, 703.670317)"><g><path d="M 10.171875 -3.390625 L 13.5625 -6.78125 L 13.5625 -23.734375 L 10.171875 -27.125 L 6.78125 -27.125 L 3.390625 -23.734375 L 3.390625 -6.78125 L 6.78125 -3.390625 Z M 5.65625 0 L 0 -5.65625 L 0 -24.875 L 5.65625 -30.515625 L 11.296875 -30.515625 L 16.953125 -24.875 L 16.953125 -5.65625 L 11.296875 0 Z M 5.65625 0 "/></g></g></g><g fill="#ffffff" fill-opacity="1"><g transform="translate(1252.623547, 703.670317)"><g><path d="M 5.65625 6.78125 L 3.390625 4.515625 L 9.046875 -1.125 L 9.046875 -27.125 L 3.390625 -32.78125 L 5.65625 -35.046875 L 12.4375 -28.265625 L 12.4375 0 Z M 5.65625 6.78125 "/></g></g></g><g fill="#ffffff" fill-opacity="1"><g transform="translate(1278.843288, 703.670317)"><g><path d="M 5.65625 0 L 5.65625 -5.65625 L 11.296875 -5.65625 L 11.296875 0 Z M 5.65625 0 "/></g></g></g><g fill="#ffffff" fill-opacity="1"><g transform="translate(1305.063028, 703.670317)"><g/></g></g><g fill="#ffffff" fill-opacity="1"><g transform="translate(1319.975686, 703.670317)"><g/></g></g></svg>